SplineFontDB: 3.0
FontName: NTR
FullName: NTR
FamilyName: NTR
OS2FamilyName: "NTR"
OS2StyleName: "regular"
Weight: Regular
Copyright: This font is copyright of SiliconAndhra, USA.
Version: 1.0
FONDName: NTR
ItalicAngle: 0
UnderlinePosition: -1100
UnderlineWidth: 60
Ascent: 819
Descent: 205
InvalidEm: 1
UFOAscent: 875
UFODescent: -250
LayerCount: 2
Layer: 0 0 "Back" 1
Layer: 1 0 "Fore" 0
FSType: 0
OS2Version: 0
OS2_WeightWidthSlopeOnly: 0
OS2_UseTypoMetrics: 0
CreationTime: 1416059235
ModificationTime: 1416059235
PfmFamily: 16
TTFWeight: 400
TTFWidth: 5
LineGap: 0
VLineGap: 0
Panose: 0 0 0 0 0 0 0 0 0 0
OS2TypoAscent: 875
OS2TypoAOffset: 0
OS2TypoDescent: -250
OS2TypoDOffset: 0
OS2TypoLinegap: 10
OS2WinAscent: 900
OS2WinAOffset: 0
OS2WinDescent: 700
OS2WinDOffset: 0
HheadAscent: 880
HheadAOffset: 0
HheadDescent: -255
HheadDOffset: 0
OS2SubXSize: 700
OS2SubYSize: 650
OS2SubXOff: 0
OS2SubYOff: 140
OS2SupXSize: 700
OS2SupYSize: 650
OS2SupXOff: 0
OS2SupYOff: 477
OS2StrikeYSize: 50
OS2StrikeYPos: 250
OS2CapHeight: 596
OS2XHeight: 410
OS2Vendor: 'pyrs'
Lookup: 258 0 0 "'kern' Horizontal Kerning in Telugu2 lookup 0" { "'kern' Horizontal Kerning in Telugu2 lookup 0 subtable"  } ['kern' ('tel2' <'dflt' > ) ]
Lookup: 258 0 0 "'kern' Horizontal Kerning lookup 0" { "'kern' Horizontal Kerning lookup 0 subtable"  } ['kern' ('DFLT' <'dflt' > ) ]
DEI: 91125
GroupKern: "VaOttu" "VaEE" -5
GroupKern: "PaOttu" "RMatra" 76
GroupKern: "Kaottu" "RMatra" 28
GroupKern: "Ta" "VaOttu" 71
LangName: 1033 "" "" "" "" "" "Version 0.30 October 27, 2012" "" "" "SiliconAndhra, USA." "Purushoth Kumar Guthula" "" "" "" "SIL Open Font License v1.1" "http://scripts.sil.org/OFL"
PickledDataWithLists: "(dp1
S'com.fontlab.v2.tth'
p2
(dp3
S'stems'
p4
(dp5
S'Y: 59'
p6
(dp7
S'width'
p8
I59
sS'horizontal'
p9
I01
sS'round'
p10
(dp11
S'27'
p12
I2
sS'61'
p13
I4
sS'44'
p14
I3
sS'0'
I1
sS'79'
p15
I5
sS'96'
p16
I6
sssS'X: 69'
p17
(dp18
g8
I69
sg9
I00
sg10
(dp19
S'38'
p20
I3
sS'23'
p21
I2
sS'52'
p22
I4
sS'0'
I1

StartChar: exclam
Encoding: 1 33 1
GlifName: exclam
Width: 290
VWidth: 0
Flags: W
LayerCount: 2
Back
Fore
SplineSet
224 51 m 258
NamedP: "hr00"
 227 57 228 62 228 66 c 256
 228 74 224 80 215 84 c 256
 206 88 191 90 171 90 c 256
 164 90 158 87 153 80 c 256
 147 72 140 58 131 38 c 256
 127 28 125 20 125 15 c 256
 125 8 128 2 135 -1 c 256
 142 -5 155 -8 173 -9 c 256
 180 -9 187 -8 193 -5 c 256
 200 -2 205 5 209 14 c 258
 224 51 l 258
NamedP: "hr00"
225 513 m 257
 225 534 218 551 205 564 c 256
 194 575 180 581 163 581 c 256
 155 581 149 577 144 570 c 256
 139 563 136 554 136 544 c 258
 141 384 l 257
 138 201 l 258
 138 177 144 158 156 143 c 256
 166 131 177 125 189 125 c 256
 193 125 196 126 198 128 c 256
 200 129 201 132 201 135 c 256
 201 278 209 404 225 513 c 257
EndSplineSet
PickledDataWithLists: "(dp1
S'com.adobe.type.autohint'
p2
(S'data'
S'<data>\\n  <hintSetList>\\n    <hintset pointTag=\"hr00\">\\n      <hstem pos=\"12\" width=\"-21\"/>\\n      <hstem pos=\"20\" width=\"-21\"/>\\n      <vstem pos=\"138\" width=\"63\"/>\\n    </hintset>\\n  </hintSetList>\\n  </data>'
Ntp3
s."
EndChar

StartChar: quotedbl
Encoding: 2 34 2
GlifName: quotedbl
Width: 505
VWidth: 0
Flags: W
LayerCount: 2
Back
Fore
SplineSet
400 503 m 257
NamedP: "hr00"
 442 503 l 257
 402 766 l 257
 281 766 l 257
 400 503 l 257
NamedP: "hr00"
181 503 m 257
 223 503 l 257
 183 766 l 257
 62 766 l 257
 181 503 l 257
EndSplineSet
PickledDataWithLists: "(dp1
S'com.adobe.type.autohint'
p2
(S'data'
S'<data>\\n  <hintSetList>\\n    <hintset pointTag=\"hr00\">\\n      <hstem pos=\"503\" width=\"263\"/>\\n      <vstem pos=\"62\" width=\"380\"/>\\n    </hintset>\\n  </hintSetList>\\n  </data>'
Ntp3
s."
EndChar

StartChar: numbersign
Encoding: 3 35 3
GlifName: numbersign
Width: 890
VWidth: 0
Flags: W
LayerCount: 2
Back
Fore
SplineSet
507 274 m 257
NamedP: "hr00"
 330 274 l 257
 387 450 l 257
 563 450 l 257
 507 274 l 257
NamedP: "hr00"
296 450 m 257
 238 274 l 257
 62 274 l 257
 62 183 l 257
 210 183 l 257
 151 0 l 257
 242 0 l 257
 301 183 l 257
 477 183 l 257
 418 0 l 257
 510 0 l 257
 568 183 l 257
 760 183 l 257
 760 274 l 257
 597 274 l 257
 655 450 l 257
 827 450 l 257
 827 541 l 257
 685 541 l 257
 735 698 l 257
 643 698 l 257
 593 541 l 257
 417 541 l 257
 467 698 l 257
 376 698 l 257
 326 541 l 257
 130 541 l 257
 130 450 l 257
 296 450 l 257
EndSplineSet
PickledDataWithLists: "(dp1
S'com.adobe.type.autohint'
p2
(S'data'
S'<data>\\n  <hintSetList>\\n    <hintset pointTag=\"hr00\">\\n      <hstem pos=\"21\" width=\"-21\"/>\\n      <hstem pos=\"183\" width=\"91\"/>\\n      <hstem pos=\"450\" width=\"91\"/>\\n      <vstem pos=\"62\" width=\"765\"/>\\n    </hintset>\\n  </hintSetList>\\n  </data>'
Ntp3
s."
EndChar

StartChar: dollar
Encoding: 4 36 4
GlifName: dollar
Width: 712
VWidth: 0
Flags: W
LayerCount: 2
Back
Fore
SplineSet
331 470 m 257
NamedP: "hr00"
 296 482 267 499 245 520 c 256
 223 542 212 565 212 589 c 256
 212 617 224 642 247 663 c 256
 270 683 298 693 331 693 c 257
 331 470 l 257
NamedP: "hr00"
387 324 m 257
 430 308 465 288 491 263 c 256
 518 238 531 214 531 189 c 256
 531 149 517 115 488 86 c 256
 461 58 427 44 387 44 c 257
 387 324 l 257
100 550 m 256
 100 507 121 467 163 428 c 256
 206 389 262 359 331 339 c 257
 331 44 l 257
 287 47 244 65 202 99 c 256
 161 132 127 178 100 234 c 257
 62 234 l 257
 100 13 l 257
 137 13 l 257
 140 22 147 29 156 34 c 256
 165 40 176 43 187 43 c 256
 198 43 219 35 250 20 c 256
 265 13 292 7 331 3 c 257
 331 -114 l 257
 387 -114 l 257
 387 1 l 257
 460 4 522 25 573 64 c 256
 624 104 650 151 650 205 c 256
 650 257 625 306 576 351 c 256
 527 396 464 429 387 448 c 257
 387 693 l 257
 436 684 481 664 521 633 c 256
 561 601 591 562 612 515 c 257
 637 515 l 257
 612 736 l 257
 581 736 l 257
 578 726 572 718 561 713 c 257
 551 707 539 704 525 704 c 256
 509 704 486 709 456 718 c 256
 426 728 403 733 387 733 c 257
 387 855 l 257
 331 855 l 257
 331 736 l 257
 267 736 212 717 167 681 c 256
 122 645 100 602 100 550 c 256
EndSplineSet
PickledDataWithLists: "(dp1
S'com.adobe.type.autohint'
p2
(S'data'
S'<data>\\n  <hintSetList>\\n    <hintset pointTag=\"hr00\">\\n      <hstem pos=\"1\" width=\"43\"/>\\n      <hstem pos=\"693\" width=\"43\"/>\\n      <vstem pos=\"100\" width=\"112\"/>\\n      <vstem pos=\"331\" width=\"56\"/>\\n      <vstem pos=\"531\" width=\"119\"/>\\n    </hintset>\\n  </hintSetList>\\n  </data>'
Ntp3
s."
EndChar

StartChar: percent
Encoding: 5 37 5
GlifName: percent
Width: 881
VWidth: 0
Flags: W
LayerCount: 2
Back
Fore
SplineSet
318 349 m 256
NamedP: "hr00"
 319 312 310 283 295 261 c 256
 278 238 254 226 223 226 c 256
 190 226 166 239 153 265 c 256
 141 288 135 325 135 376 c 256
 135 407 142 432 157 451 c 256
 173 471 195 481 223 481 c 256
 260 481 286 468 300 443 c 256
 311 424 317 393 318 349 c 256
NamedP: "hr00"
631 523 m 256
 631 532 627 540 618 548 c 256
 610 555 600 558 588 559 c 257
 240 -24 l 257
 240 -31 243 -38 250 -45 c 257
 255 -52 261 -56 267 -56 c 257
 296 -25 331 32 380 113 c 258
 618 501 l 257
 621 504 624 508 627 513 c 256
 630 517 631 520 631 523 c 256
392 366 m 256
 391 421 373 460 345 486 c 256
 319 511 280 523 227 523 c 256
 180 523 141 510 112 485 c 256
 79 455 62 410 62 350 c 256
 62 295 75 253 100 224 c 256
 127 192 166 176 218 176 c 256
 268 176 309 191 340 221 c 256
 375 256 394 304 392 366 c 256
745 148 m 256
 746 111 737 82 721 60 c 256
 704 37 681 25 650 25 c 256
 617 25 594 38 580 64 c 256
 568 87 561 124 561 175 c 256
 561 207 568 232 583 251 c 256
 599 271 621 281 650 281 c 256
 687 281 712 268 726 243 c 256
 736 224 743 192 745 148 c 256
818 165 m 256
 817 221 799 261 772 286 c 256
 745 311 706 323 653 323 c 256
 606 323 568 310 540 285 c 256
 505 255 488 210 488 149 c 256
 488 94 501 52 526 23 c 256
 553 -8 592 -24 645 -24 c 256
 695 -24 735 -9 766 21 c 256
 801 54 820 102 818 165 c 256
EndSplineSet
PickledDataWithLists: "(dp1
S'com.adobe.type.autohint'
p2
(S'data'
S'<data>\\n  <hintSetList>\\n    <hintset pointTag=\"hr00\">\\n      <hstem pos=\"-24\" width=\"49\"/>\\n      <hstem pos=\"176\" width=\"50\"/>\\n      <hstem pos=\"281\" width=\"42\"/>\\n      <hstem pos=\"481\" width=\"42\"/>\\n      <vstem pos=\"62\" width=\"73\"/>\\n      <vstem pos=\"318\" width=\"74\"/>\\n      <vstem pos=\"488\" width=\"73\"/>\\n      <vstem pos=\"745\" width=\"73\"/>\\n    </hintset>\\n  </hintSetList>\\n  </data>'
Ntp3
s."
EndChar

StartChar: ampersand
Encoding: 6 38 6
GlifName: ampersand
Width: 845
VWidth: 0
Flags: W
LayerCount: 2
Back
Fore
SplineSet
350 431 m 257
NamedP: "hr00"
 341 444 333 461 328 484 c 256
 323 507 321 533 321 563 c 256
 321 586 326 606 338 623 c 256
 350 640 365 648 382 648 c 256
 397 648 410 640 420 625 c 256
 431 610 436 592 436 571 c 256
 436 540 428 512 412 486 c 256
 396 461 375 443 350 431 c 257
NamedP: "hr00"
303 76 m 256
 270 76 241 87 218 109 c 256
 195 132 183 158 183 189 c 256
 183 225 192 258 210 288 c 256
 228 317 252 339 282 354 c 257
 328 260 379 179 436 111 c 257
 423 100 405 91 382 85 c 256
 359 79 332 76 303 76 c 256
241 -2 m 256
 282 -2 322 5 360 21 c 256
 397 36 430 60 458 89 c 257
 483 60 510 37 541 21 c 256
 571 6 601 -2 632 -2 c 256
 658 -2 684 8 711 28 c 256
 738 49 762 76 782 111 c 257
 765 121 l 257
 756 106 743 94 726 85 c 256
 709 76 689 71 668 71 c 256
 651 71 630 79 607 96 c 256
 584 113 560 136 535 166 c 257
 557 185 587 239 632 325 c 256
 647 355 665 376 681 391 c 256
 698 408 712 416 723 416 c 258
 741 416 l 257
 741 436 l 257
 522 436 l 257
 522 416 l 257
 541 416 l 258
 555 416 567 412 576 403 c 256
 586 394 591 384 591 371 c 256
 591 347 582 320 568 290 c 256
 553 259 533 228 506 195 c 257
 469 238 425 305 373 395 c 257
 422 422 460 453 487 486 c 256
 514 519 528 551 528 581 c 256
 528 611 514 638 487 659 c 256
 459 681 425 690 386 690 c 256
 339 690 298 676 263 645 c 256
 230 615 213 579 213 536 c 256
 213 502 229 458 261 403 c 257
 201 381 154 349 117 306 c 256
 81 264 62 219 62 171 c 256
 62 123 80 82 115 49 c 256
 150 15 192 -2 241 -2 c 256
EndSplineSet
PickledDataWithLists: "(dp1
S'com.adobe.type.autohint'
p2
(S'data'
S'<data>\\n  <hintSetList>\\n    <hintset pointTag=\"hr00\">\\n      <hstem pos=\"19\" width=\"-21\"/>\\n      <hstem pos=\"-2\" width=\"78\"/>\\n      <hstem pos=\"-2\" width=\"73\"/>\\n      <hstem pos=\"416\" width=\"20\"/>\\n      <hstem pos=\"648\" width=\"42\"/>\\n      <vstem pos=\"62\" width=\"121\"/>\\n      <vstem pos=\"213\" width=\"108\"/>\\n      <vstem pos=\"436\" width=\"92\"/>\\n    </hintset>\\n  </hintSetList>\\n  </data>'
Ntp3
s."
EndChar

StartChar: quotesingle
Encoding: 7 39 7
GlifName: quotesingle
Width: 286
VWidth: 0
Flags: W
LayerCount: 2
Back
Fore
SplineSet
181 503 m 257
NamedP: "hr00"
 223 503 l 257
 183 766 l 257
 62 766 l 257
 181 503 l 257
NamedP: "hr00"
EndSplineSet
PickledDataWithLists: "(dp1
S'com.adobe.type.autohint'
p2
(S'data'
S'<data>\\n  <hintSetList>\\n    <hintset pointTag=\"hr00\">\\n      <hstem pos=\"503\" width=\"263\"/>\\n      <vstem pos=\"62\" width=\"161\"/>\\n    </hintset>\\n  </hintSetList>\\n  </data>'
Ntp3
s."
EndChar

StartChar: parenleft
Encoding: 8 40 8
GlifName: parenleft
Width: 371
VWidth: 0
Flags: W
LayerCount: 2
Back
Fore
SplineSet
281 750 m 257
NamedP: "hr00"
 194 660 129 563 88 460 c 256
 70 415 62 367 62 316 c 256
 62 238 76 166 103 101 c 256
 133 31 181 -36 248 -99 c 257
 292 -75 l 257
 216 21 171 103 156 171 c 256
 147 212 142 262 142 321 c 256
 142 387 155 452 182 515 c 256
 209 580 251 645 308 710 c 257
 281 750 l 257
NamedP: "hr00"
EndSplineSet
PickledDataWithLists: "(dp1
S'com.adobe.type.autohint'
p2
(S'data'
S'<data>\\n  <hintSetList>\\n    <hintset pointTag=\"hr00\">\\n      <hstem pos=\"-99\" width=\"849\"/>\\n      <vstem pos=\"62\" width=\"80\"/>\\n    </hintset>\\n  </hintSetList>\\n  </data>'
Ntp3
s."
EndChar

StartChar: parenright
Encoding: 9 41 9
GlifName: parenright
Width: 381
VWidth: 0
Flags: W
LayerCount: 2
Back
Fore
SplineSet
318 308 m 256
NamedP: "hr00"
 318 391 299 470 260 545 c 256
 229 605 184 665 125 724 c 257
 83 700 l 257
 159 595 205 507 221 434 c 256
 232 382 238 337 238 300 c 256
 238 232 221 163 187 93 c 256
 157 30 115 -30 62 -86 c 257
 95 -126 l 257
 168 -45 222 28 257 94 c 256
 298 169 318 240 318 308 c 256
NamedP: "hr00"
EndSplineSet
PickledDataWithLists: "(dp1
S'com.adobe.type.autohint'
p2
(S'data'
S'<data>\\n  <hintSetList>\\n    <hintset pointTag=\"hr00\">\\n      <hstem pos=\"-126\" width=\"850\"/>\\n      <vstem pos=\"238\" width=\"80\"/>\\n    </hintset>\\n  </hintSetList>\\n  </data>'
Ntp3
s."
EndChar

StartChar: asterisk
Encoding: 10 42 10
GlifName: asterisk
Width: 716
VWidth: 0
Flags: W
LayerCount: 2
Back
Fore
SplineSet
256 192 m 257
NamedP: "hr00"
 186 -6 l 257
 368 119 l 257
 552 -3 l 257
 478 192 l 257
 663 324 l 257
 439 324 l 257
 368 513 l 257
 300 324 l 257
 67 324 l 257
 256 192 l 257
NamedP: "hr00"
EndSplineSet
PickledDataWithLists: "(dp1
S'com.adobe.type.autohint'
p2
(S'data'
S'<data>\\n  <hintSetList>\\n    <hintset pointTag=\"hr00\">\\n      <hstem pos=\"15\" width=\"-21\"/>\\n      <hstem pos=\"18\" width=\"-21\"/>\\n      <vstem pos=\"67\" width=\"596\"/>\\n    </hintset>\\n  </hintSetList>\\n  </data>'
Ntp3
s."
EndChar

StartChar: plus
Encoding: 11 43 11
GlifName: plus
Width: 637
VWidth: 0
Flags: W
LayerCount: 2
Back
Fore
SplineSet
575 290 m 257
NamedP: "hr00"
 352 290 l 257
 352 513 l 257
 285 513 l 257
 285 293 l 257
 62 293 l 257
 62 225 l 257
 278 225 l 257
 278 1 l 257
 350 1 l 257
 350 223 l 257
 575 223 l 257
 575 290 l 257
NamedP: "hr00"
EndSplineSet
PickledDataWithLists: "(dp1
S'com.adobe.type.autohint'
p2
(S'data'
S'<data>\\n  <hintSetList>\\n    <hintset pointTag=\"hr00\">\\n      <hstem pos=\"22\" width=\"-21\"/>\\n      <hstem pos=\"223\" width=\"67\"/>\\n      <hstem pos=\"225\" width=\"68\"/>\\n      <vstem pos=\"278\" width=\"72\"/>\\n      <vstem pos=\"285\" width=\"67\"/>\\n    </hintset>\\n  </hintSetList>\\n  </data>'
Ntp3
s."
EndChar

StartChar: comma
Encoding: 12 44 12
GlifName: comma
Width: 293
VWidth: 0
Flags: W
LayerCount: 2
Back
Fore
SplineSet
231 41 m 256
NamedP: "hr00"
 231 59 226 73 217 84 c 256
 208 95 196 100 182 100 c 256
 156 100 136 68 122 3 c 256
 109 -56 96 -101 77 -129 c 258
 73 -135 l 258
 66 -146 62 -155 62 -160 c 256
 62 -165 63 -168 66 -171 c 256
 69 -174 73 -176 78 -176 c 256
 93 -176 116 -156 147 -115 c 256
 161 -96 181 -69 205 -31 c 256
 223 -3 231 22 231 41 c 256
NamedP: "hr00"
EndSplineSet
PickledDataWithLists: "(dp1
S'com.adobe.type.autohint'
p2
(S'data'
S'<data>\\n  <hintSetList>\\n    <hintset pointTag=\"hr00\">\\n      <hstem pos=\"-176\" width=\"276\"/>\\n      <vstem pos=\"62\" width=\"169\"/>\\n    </hintset>\\n  </hintSetList>\\n  </data>'
Ntp3
s."
EndChar

StartChar: hyphen
Encoding: 13 45 13
GlifName: hyphen
Width: 482
VWidth: 0
Flags: W
LayerCount: 2
Back
Fore
SplineSet
420 243 m 256
NamedP: "hr00"
 420 258 412 268 397 273 c 256
 384 278 361 282 327 280 c 258
 213 274 l 258
 173 272 141 277 118 284 c 257
 111 287 105 288 100 288 c 256
 87 288 78 286 73 283 c 256
 66 278 62 268 62 255 c 256
 62 238 82 226 123 218 c 256
 155 212 198 208 251 209 c 258
 365 211 l 257
 396 211 l 257
 406 213 413 218 417 225 c 256
 419 230 420 236 420 243 c 256
NamedP: "hr00"
EndSplineSet
PickledDataWithLists: "(dp1
S'com.adobe.type.autohint'
p2
(S'data'
S'<data>\\n  <hintSetList>\\n    <hintset pointTag=\"hr00\">\\n      <hstem pos=\"209\" width=\"65\"/>\\n      <vstem pos=\"62\" width=\"358\"/>\\n    </hintset>\\n  </hintSetList>\\n  </data>'
Ntp3
s."
EndChar

StartChar: period
Encoding: 14 46 14
GlifName: period
Width: 215
VWidth: 0
Flags: W
LayerCount: 2
Back
Fore
SplineSet
152 51 m 258
NamedP: "hr00"
 152 64 146 74 135 81 c 256
 122 88 103 91 78 91 c 258
 76 91 l 258
 67 92 62 82 62 61 c 258
 63 19 l 258
 63 12 65 7 68 3 c 256
 71 -2 78 -7 88 -10 c 257
 94 -14 106 -15 123 -15 c 258
 131 -15 l 258
 137 -15 142 -13 145 -10 c 256
 150 -6 152 1 152 11 c 258
 152 51 l 258
NamedP: "hr00"
EndSplineSet
PickledDataWithLists: "(dp1
S'com.adobe.type.autohint'
p2
(S'data'
S'<data>\\n  <hintSetList>\\n    <hintset pointTag=\"hr00\">\\n      <hstem pos=\"-15\" width=\"106\"/>\\n      <vstem pos=\"62\" width=\"90\"/>\\n    </hintset>\\n  </hintSetList>\\n  </data>'
Ntp3
s."
EndChar

StartChar: slash
Encoding: 15 47 15
GlifName: slash
Width: 512
VWidth: 0
Flags: W
LayerCount: 2
Back
Fore
SplineSet
450 644 m 256
NamedP: "hr00"
 450 655 443 664 428 673 c 256
 415 680 401 683 388 683 c 257
 327 534 l 258
 308 488 297 457 291 441 c 258
 123 -2 l 257
 67 -137 l 257
 64 -142 62 -146 62 -151 c 256
 62 -168 68 -182 80 -194 c 256
 90 -204 99 -209 108 -209 c 257
 128 -173 161 -104 201 0 c 258
 438 614 l 257
 443 620 446 625 447 629 c 256
 449 634 450 639 450 644 c 256
NamedP: "hr00"
EndSplineSet
PickledDataWithLists: "(dp1
S'com.adobe.type.autohint'
p2
(S'data'
S'<data>\\n  <hintSetList>\\n    <hintset pointTag=\"hr00\">\\n      <hstem pos=\"-209\" width=\"892\"/>\\n      <vstem pos=\"62\" width=\"388\"/>\\n    </hintset>\\n  </hintSetList>\\n  </data>'
Ntp3
s."
EndChar

StartChar: zero
Encoding: 16 48 16
GlifName: zero
Width: 606
VWidth: 0
Flags: W
LayerCount: 2
Back
Fore
SplineSet
448 243 m 256
NamedP: "hr00"
 449 173 437 122 413 90 c 256
 390 59 350 44 297 44 c 256
 256 44 223 60 197 93 c 256
 168 128 153 175 153 236 c 256
 153 302 164 353 186 390 c 256
 213 435 255 458 312 458 c 256
 356 458 389 440 412 404 c 256
 434 369 446 315 448 243 c 256
NamedP: "hr00"
537 249 m 256
 537 335 521 398 488 438 c 256
 457 477 407 496 338 496 c 256
 257 496 192 472 143 424 c 256
 93 375 68 311 68 231 c 256
 68 166 79 113 102 74 c 256
 133 21 186 -5 259 -5 c 256
 336 -5 400 20 454 68 c 256
 508 117 537 176 537 249 c 256
EndSplineSet
PickledDataWithLists: "(dp1
S'com.adobe.type.autohint'
p2
(S'data'
S'<data>\\n  <hintSetList>\\n    <hintset pointTag=\"hr00\">\\n      <hstem pos=\"-5\" width=\"49\"/>\\n      <hstem pos=\"458\" width=\"38\"/>\\n      <vstem pos=\"68\" width=\"85\"/>\\n      <vstem pos=\"448\" width=\"89\"/>\\n    </hintset>\\n  </hintSetList>\\n  </data>'
Ntp3
s."
EndChar

StartChar: one
Encoding: 17 49 17
GlifName: one
Width: 607
VWidth: 0
Flags: W
LayerCount: 2
Back
Fore
SplineSet
376 485 m 256
NamedP: "hr00"
 376 490 374 494 371 496 c 256
 368 498 362 499 353 499 c 256
 341 499 319 489 288 469 c 256
 241 440 199 419 160 403 c 258
 150 399 l 258
 126 389 114 381 114 376 c 256
 114 368 119 361 128 356 c 256
 138 351 150 348 163 348 c 256
 175 348 191 352 210 361 c 256
 229 370 251 383 274 400 c 257
 274 361 269 302 260 225 c 256
 251 148 246 90 246 51 c 257
 120 51 l 258
 113 51 108 49 103 44 c 256
 98 39 95 32 95 25 c 256
 95 18 98 13 103 8 c 256
 108 3 113 0 120 0 c 258
 488 0 l 258
 495 0 500 3 505 8 c 256
 510 13 513 18 513 25 c 256
 513 32 510 39 505 44 c 256
 500 49 495 51 488 51 c 258
 351 51 l 257
 351 61 350 76 348 95 c 256
 346 114 345 128 345 138 c 256
 345 165 351 233 363 343 c 258
 373 435 l 258
 376 459 376 476 376 485 c 256
NamedP: "hr00"
EndSplineSet
PickledDataWithLists: "(dp1
S'com.adobe.type.autohint'
p2
(S'data'
S'<data>\\n  <hintSetList>\\n    <hintset pointTag=\"hr00\">\\n      <hstem pos=\"0\" width=\"51\"/>\\n      <vstem pos=\"246\" width=\"99\"/>\\n      <vstem pos=\"274\" width=\"94\"/>\\n    </hintset>\\n  </hintSetList>\\n  </data>'
Ntp3
s."
EndChar

StartChar: two
Encoding: 18 50 18
GlifName: two
Width: 607
VWidth: 0
Flags: W
LayerCount: 2
Back
Fore
SplineSet
558 29 m 257
NamedP: "hr00"
 558 40 557 48 555 53 c 256
 552 62 546 66 536 66 c 258
 170 60 l 257
 373 161 l 258
 422 185 459 219 490 251 c 256
 526 290 544 326 544 359 c 256
 544 408 525 445 486 468 c 256
 455 487 412 496 358 496 c 256
 289 496 228 481 175 451 c 256
 112 416 81 367 81 305 c 256
 81 281 89 261 105 245 c 256
 121 230 142 223 168 223 c 256
 186 223 203 226 219 233 c 256
 235 240 247 250 256 263 c 257
 256 265 254 267 251 270 c 256
 248 273 243 274 236 274 c 256
 213 274 195 279 184 288 c 256
 173 296 168 309 168 326 c 256
 168 375 190 411 235 434 c 256
 265 450 297 458 331 458 c 256
 363 458 390 446 414 421 c 256
 437 398 448 371 448 341 c 256
 448 297 418 253 358 210 c 256
 310 175 248 143 173 115 c 256
 134 100 106 89 88 79 c 256
 66 68 53 57 50 46 c 257
 50 32 54 20 61 11 c 256
 71 0 86 -5 105 -5 c 256
 265 -5 416 6 558 29 c 257
NamedP: "hr00"
EndSplineSet
PickledDataWithLists: "(dp1
S'com.adobe.type.autohint'
p2
(S'data'
S'<data>\\n  <hintSetList>\\n    <hintset pointTag=\"hr00\">\\n      <hstem pos=\"-5\" width=\"71\"/>\\n      <hstem pos=\"223\" width=\"51\"/>\\n      <hstem pos=\"458\" width=\"38\"/>\\n      <vstem pos=\"81\" width=\"87\"/>\\n      <vstem pos=\"448\" width=\"96\"/>\\n    </hintset>\\n  </hintSetList>\\n  </data>'
Ntp3
s."
EndChar

StartChar: three
Encoding: 19 51 19
GlifName: three
Width: 606
VWidth: 0
Flags: W
LayerCount: 2
Back
Fore
SplineSet
563 190 m 256
NamedP: "hr00"
 563 217 551 239 528 256 c 256
 507 273 478 283 441 288 c 257
 481 300 511 317 531 338 c 256
 548 357 557 379 557 404 c 256
 557 432 539 454 503 471 c 256
 468 488 420 496 360 496 c 256
 271 496 193 472 126 425 c 256
 117 418 110 413 107 408 c 257
 106 403 105 398 105 391 c 256
 105 380 109 371 116 364 c 256
 123 357 135 354 150 354 c 256
 168 354 191 366 220 389 c 256
 267 426 313 444 358 444 c 256
 388 444 412 438 431 426 c 256
 448 415 456 403 456 388 c 256
 456 333 391 306 261 298 c 258
 228 296 l 257
 221 296 l 258
 184 296 165 284 165 263 c 256
 165 257 168 252 173 249 c 256
 180 245 189 243 201 243 c 257
 260 251 309 255 348 255 c 256
 386 255 413 250 430 241 c 256
 447 231 456 215 456 194 c 256
 456 145 431 107 382 80 c 256
 343 59 296 49 242 49 c 256
 201 49 153 57 98 74 c 256
 80 80 68 83 63 83 c 256
 58 83 54 82 51 80 c 257
 47 79 44 75 42 69 c 257
 42 44 66 25 115 11 c 256
 152 1 193 -5 237 -5 c 256
 343 -5 426 16 486 59 c 256
 537 95 563 139 563 190 c 256
NamedP: "hr00"
EndSplineSet
PickledDataWithLists: "(dp1
S'com.adobe.type.autohint'
p2
(S'data'
S'<data>\\n  <hintSetList>\\n    <hintset pointTag=\"hr00\">\\n      <hstem pos=\"-5\" width=\"54\"/>\\n      <hstem pos=\"255\" width=\"41\"/>\\n      <hstem pos=\"444\" width=\"52\"/>\\n      <vstem pos=\"456\" width=\"107\"/>\\n      <vstem pos=\"456\" width=\"101\"/>\\n    </hintset>\\n  </hintSetList>\\n  </data>'
Ntp3
s."
EndChar

StartChar: four
Encoding: 20 52 20
GlifName: four
Width: 606
VWidth: 0
Flags: W
LayerCount: 2
Back
Fore
SplineSet
560 179 m 256
NamedP: "hr00"
 560 185 557 189 552 190 c 256
 550 191 543 191 532 191 c 258
 457 188 l 257
 467 335 l 258
 468 344 461 352 449 360 c 256
 434 370 416 375 397 375 c 256
 390 375 385 373 381 370 c 256
 376 367 373 361 372 354 c 257
 364 191 l 257
 251 191 167 197 112 210 c 257
 129 230 l 257
 299 416 l 257
 299 417 301 421 304 426 c 256
 309 436 311 443 311 446 c 256
 311 455 306 466 295 478 c 256
 284 490 273 496 261 496 c 256
 254 496 249 495 245 494 c 256
 238 491 235 487 235 480 c 257
 66 233 l 257
 59 220 54 210 51 201 c 256
 48 193 46 186 46 181 c 256
 46 164 55 153 74 144 c 256
 93 135 121 128 160 129 c 258
 362 134 l 257
 360 50 l 258
 360 33 367 19 381 9 c 256
 394 0 410 -5 429 -5 c 256
 436 -5 442 -3 447 1 c 256
 452 6 455 13 455 20 c 258
 457 138 l 257
 497 139 525 143 540 150 c 256
 553 157 560 166 560 179 c 256
NamedP: "hr00"
EndSplineSet
PickledDataWithLists: "(dp1
S'com.adobe.type.autohint'
p2
(S'data'
S'<data>\\n  <hintSetList>\\n    <hintset pointTag=\"hr00\">\\n      <hstem pos=\"16\" width=\"-21\"/>\\n      <hstem pos=\"129\" width=\"62\"/>\\n      <vstem pos=\"360\" width=\"95\"/>\\n      <vstem pos=\"368\" width=\"99\"/>\\n    </hintset>\\n  </hintSetList>\\n  </data>'
Ntp3
s."
EndChar

StartChar: five
Encoding: 21 53 21
GlifName: five
Width: 606
VWidth: 0
Flags: W
LayerCount: 2
Back
Fore
SplineSet
561 220 m 256
NamedP: "hr00"
 561 256 546 284 515 303 c 256
 484 323 437 333 375 333 c 256
 316 333 264 328 220 318 c 257
 228 438 l 257
 468 426 l 258
 491 425 511 431 526 441 c 256
 542 451 551 463 554 478 c 257
 554 483 551 487 546 491 c 256
 542 494 538 496 535 496 c 257
 468 481 396 474 321 474 c 256
 267 474 204 478 133 486 c 257
 114 258 l 258
 113 251 116 246 120 241 c 257
 124 238 128 236 133 236 c 256
 140 236 157 243 184 256 c 256
 227 276 257 287 275 289 c 257
 291 295 314 296 344 296 c 256
 379 296 407 291 428 280 c 256
 453 267 465 245 465 216 c 256
 465 164 437 122 380 90 c 256
 331 63 274 49 209 49 c 256
 160 49 122 55 93 66 c 257
 64 74 l 257
 60 74 56 72 51 68 c 257
 47 63 45 59 45 55 c 256
 45 38 59 24 86 13 c 256
 114 1 147 -5 185 -5 c 256
 269 -5 353 21 438 74 c 256
 520 125 561 173 561 220 c 256
NamedP: "hr00"
EndSplineSet
PickledDataWithLists: "(dp1
S'com.adobe.type.autohint'
p2
(S'data'
S'<data>\\n  <hintSetList>\\n    <hintset pointTag=\"hr00\">\\n      <hstem pos=\"-5\" width=\"54\"/>\\n      <hstem pos=\"296\" width=\"37\"/>\\n      <hstem pos=\"426\" width=\"48\"/>\\n      <vstem pos=\"465\" width=\"96\"/>\\n    </hintset>\\n  </hintSetList>\\n  </data>'
Ntp3
s."
EndChar

StartChar: six
Encoding: 22 54 22
GlifName: six
Width: 606
VWidth: 0
Flags: W
LayerCount: 2
Back
Fore
SplineSet
478 179 m 256
NamedP: "hr00"
 478 140 456 107 413 80 c 256
 373 54 329 41 282 41 c 256
 235 41 196 51 167 71 c 256
 140 90 127 114 127 141 c 256
 127 188 147 223 188 246 c 256
 223 266 270 276 328 276 c 256
 379 276 417 268 441 253 c 256
 466 237 478 212 478 179 c 256
NamedP: "hr00"
568 209 m 256
 568 248 549 276 510 293 c 256
 473 308 412 315 327 315 c 256
 294 315 257 308 217 295 c 257
 256 324 302 352 357 379 c 256
 412 406 452 421 475 424 c 256
 480 424 484 426 488 430 c 257
 493 433 495 437 495 440 c 256
 495 454 489 467 476 479 c 256
 464 490 452 496 440 496 c 256
 413 496 359 465 278 404 c 256
 195 341 131 280 85 224 c 256
 68 202 55 182 47 161 c 256
 41 144 37 126 37 108 c 256
 37 72 56 44 93 24 c 256
 129 5 177 -5 236 -5 c 256
 316 -5 391 17 461 60 c 256
 532 105 568 155 568 209 c 256
EndSplineSet
PickledDataWithLists: "(dp1
S'com.adobe.type.autohint'
p2
(S'data'
S'<data>\\n  <hintSetList>\\n    <hintset pointTag=\"hr00\">\\n      <hstem pos=\"-5\" width=\"46\"/>\\n      <hstem pos=\"276\" width=\"39\"/>\\n      <vstem pos=\"37\" width=\"90\"/>\\n      <vstem pos=\"478\" width=\"90\"/>\\n    </hintset>\\n  </hintSetList>\\n  </data>'
Ntp3
s."
EndChar

StartChar: seven
Encoding: 23 55 23
GlifName: seven
Width: 607
VWidth: 0
Flags: W
LayerCount: 2
Back
Fore
SplineSet
553 445 m 256
NamedP: "hr00"
 553 448 551 454 544 461 c 257
 539 470 532 476 524 481 c 257
 369 474 l 258
 211 467 112 481 71 496 c 257
 65 496 60 494 57 491 c 256
 54 489 53 487 53 485 c 256
 53 468 62 452 81 436 c 256
 98 421 117 413 138 414 c 258
 457 430 l 257
 384 372 317 303 253 225 c 256
 191 148 159 97 159 70 c 256
 159 50 165 32 179 16 c 256
 192 2 204 -5 217 -5 c 256
 222 -5 226 -3 231 0 c 257
 235 4 237 9 237 16 c 257
 268 111 306 192 354 258 c 256
 416 344 478 400 538 429 c 257
 544 433 548 436 549 438 c 257
 552 440 553 442 553 445 c 256
NamedP: "hr00"
EndSplineSet
PickledDataWithLists: "(dp1
S'com.adobe.type.autohint'
p2
(S'data'
S'<data>\\n  <hintSetList>\\n    <hintset pointTag=\"hr00\">\\n      <hstem pos=\"16\" width=\"-21\"/>\\n      <hstem pos=\"414\" width=\"60\"/>\\n      <vstem pos=\"53\" width=\"500\"/>\\n    </hintset>\\n  </hintSetList>\\n  </data>'
Ntp3
s."
EndChar

StartChar: eight
Encoding: 24 56 24
GlifName: eight
Width: 606
VWidth: 0
Flags: W
LayerCount: 2
Back
Fore
SplineSet
441 378 m 256
NamedP: "hr00"
 442 353 423 331 387 313 c 256
 357 297 329 289 304 289 c 256
 275 289 249 296 225 310 c 256
 201 325 189 343 189 364 c 256
 189 398 205 423 237 438 c 256
 262 449 294 455 334 455 c 256
 367 455 393 448 412 433 c 256
 430 420 441 401 441 378 c 256
NamedP: "hr00"
469 153 m 256
 469 122 449 94 410 71 c 256
 375 50 338 39 299 39 c 256
 270 39 238 46 204 59 c 256
 155 79 131 107 131 143 c 256
 131 178 150 206 189 225 c 256
 220 241 259 249 306 249 c 256
 363 249 404 243 429 230 c 256
 456 216 469 190 469 153 c 256
565 176 m 256
 565 199 553 221 530 240 c 256
 506 259 476 273 439 280 c 257
 466 293 488 310 505 331 c 256
 522 352 531 373 531 393 c 256
 531 427 516 453 486 470 c 256
 456 487 411 496 351 496 c 256
 276 496 216 485 169 460 c 256
 121 435 97 400 97 359 c 256
 97 336 104 316 117 300 c 256
 132 283 153 272 180 265 c 257
 135 251 100 231 77 206 c 256
 53 181 41 151 41 116 c 256
 41 77 61 47 100 26 c 256
 139 5 194 -5 265 -5 c 256
 345 -5 414 12 472 45 c 256
 534 79 565 123 565 176 c 256
EndSplineSet
PickledDataWithLists: "(dp1
S'com.adobe.type.autohint'
p2
(S'data'
S'<data>\\n  <hintSetList>\\n    <hintset pointTag=\"hr00\">\\n      <hstem pos=\"-5\" width=\"44\"/>\\n      <hstem pos=\"249\" width=\"40\"/>\\n      <hstem pos=\"455\" width=\"41\"/>\\n      <vstem pos=\"41\" width=\"90\"/>\\n      <vstem pos=\"97\" width=\"92\"/>\\n      <vstem pos=\"441\" width=\"90\"/>\\n      <vstem pos=\"469\" width=\"96\"/>\\n    </hintset>\\n  </hintSetList>\\n  </data>'
Ntp3
s."
EndChar

StartChar: nine
Encoding: 25 57 25
GlifName: nine
Width: 606
VWidth: 0
Flags: W
LayerCount: 2
Back
Fore
SplineSet
471 358 m 256
NamedP: "hr00"
 471 328 453 299 417 273 c 256
 376 243 327 229 268 229 c 256
 221 229 187 239 165 260 c 256
 146 277 137 299 137 326 c 256
 137 367 159 400 203 425 c 256
 242 447 286 458 336 458 c 256
 373 458 404 450 427 436 c 256
 456 418 471 393 471 358 c 256
NamedP: "hr00"
558 386 m 256
 558 428 535 458 490 476 c 256
 457 489 416 496 367 496 c 256
 280 496 205 476 140 435 c 256
 78 396 47 352 47 304 c 256
 47 271 62 243 91 221 c 256
 124 197 168 185 223 185 c 256
 285 185 348 200 411 229 c 257
 310 132 212 74 117 53 c 257
 111 51 107 48 105 45 c 256
 102 42 100 38 100 35 c 256
 100 27 106 18 117 9 c 256
 129 0 140 -5 151 -5 c 256
 202 -5 282 45 391 146 c 256
 502 249 558 329 558 386 c 256
EndSplineSet
PickledDataWithLists: "(dp1
S'com.adobe.type.autohint'
p2
(S'data'
S'<data>\\n  <hintSetList>\\n    <hintset pointTag=\"hr00\">\\n      <hstem pos=\"16\" width=\"-21\"/>\\n      <hstem pos=\"185\" width=\"44\"/>\\n      <hstem pos=\"458\" width=\"38\"/>\\n      <vstem pos=\"47\" width=\"90\"/>\\n      <vstem pos=\"471\" width=\"87\"/>\\n    </hintset>\\n  </hintSetList>\\n  </data>'
Ntp3
s."
EndChar

StartChar: colon
Encoding: 26 58 26
GlifName: colon
Width: 212
VWidth: 0
Flags: W
LayerCount: 2
Back
Fore
SplineSet
150 44 m 258
NamedP: "hr00"
 150 57 144 67 132 74 c 256
 121 81 102 84 77 84 c 256
 71 84 67 81 66 74 c 256
 64 67 63 53 63 30 c 256
 63 13 66 0 73 -7 c 256
 82 -18 101 -24 128 -24 c 256
 134 -24 139 -21 142 -16 c 256
 147 -10 150 -3 150 6 c 258
 150 44 l 258
NamedP: "hr00"
150 351 m 258
 150 366 144 376 131 383 c 256
 118 390 99 393 73 393 c 256
 68 393 66 390 65 383 c 256
 63 376 62 360 62 333 c 256
 62 318 68 306 81 298 c 257
 92 289 108 284 128 284 c 256
 133 284 138 286 142 291 c 256
 147 297 150 304 150 313 c 258
 150 351 l 258
EndSplineSet
PickledDataWithLists: "(dp1
S'com.adobe.type.autohint'
p2
(S'data'
S'<data>\\n  <hintSetList>\\n    <hintset pointTag=\"hr00\">\\n      <hstem pos=\"-24\" width=\"417\"/>\\n      <hstem pos=\"-24\" width=\"108\"/>\\n      <hstem pos=\"284\" width=\"109\"/>\\n      <vstem pos=\"63\" width=\"87\"/>\\n    </hintset>\\n  </hintSetList>\\n  </data>'
Ntp3
s."
EndChar

StartChar: semicolon
Encoding: 27 59 27
GlifName: semicolon
Width: 356
VWidth: 0
Flags: W
LayerCount: 2
Back
Fore
SplineSet
294 41 m 256
NamedP: "hr00"
 294 58 286 72 270 84 c 256
 257 94 245 99 234 99 c 256
 225 99 220 98 219 96 c 257
 216 95 215 90 215 81 c 256
 215 60 207 24 190 -25 c 256
 173 -76 156 -111 139 -129 c 257
 132 -140 128 -150 125 -159 c 257
 125 -164 126 -168 128 -170 c 256
 130 -174 135 -176 144 -176 c 256
 157 -176 174 -157 199 -125 c 258
 223 -94 l 258
 243 -68 261 -43 273 -20 c 256
 287 5 294 26 294 41 c 256
NamedP: "hr00"
280 338 m 258
 280 357 278 369 275 376 c 257
 274 381 269 385 261 388 c 257
 249 395 235 398 219 398 c 256
 212 398 208 397 205 395 c 256
 202 394 200 391 200 386 c 258
 201 369 l 257
 199 321 l 257
 202 312 209 305 219 300 c 256
 230 294 244 291 261 291 c 256
 266 291 271 293 274 298 c 256
 278 303 280 310 280 319 c 258
 280 338 l 258
EndSplineSet
PickledDataWithLists: "(dp1
S'com.adobe.type.autohint'
p2
(S'data'
S'<data>\\n  <hintSetList>\\n    <hintset pointTag=\"hr00\">\\n      <hstem pos=\"-176\" width=\"574\"/>\\n      <hstem pos=\"291\" width=\"107\"/>\\n      <vstem pos=\"200\" width=\"80\"/>\\n      <vstem pos=\"215\" width=\"79\"/>\\n    </hintset>\\n  </hintSetList>\\n  </data>'
Ntp3
s."
EndChar

StartChar: less
Encoding: 28 60 28
GlifName: less
Width: 615
VWidth: 0
Flags: W
LayerCount: 2
Back
Fore
SplineSet
552 -75 m 257
NamedP: "hr00"
 552 -25 l 257
 195 238 l 257
 552 500 l 257
 552 550 l 257
 62 283 l 257
 62 188 l 257
 552 -75 l 257
NamedP: "hr00"
EndSplineSet
PickledDataWithLists: "(dp1
S'com.adobe.type.autohint'
p2
(S'data'
S'<data>\\n  <hintSetList>\\n    <hintset pointTag=\"hr00\">\\n      <hstem pos=\"-75\" width=\"625\"/>\\n      <vstem pos=\"62\" width=\"490\"/>\\n    </hintset>\\n  </hintSetList>\\n  </data>'
Ntp3
s."
EndChar

StartChar: equal
Encoding: 29 61 29
GlifName: equal
Width: 630
VWidth: 0
Flags: W
LayerCount: 2
Back
Fore
SplineSet
567 171 m 256
NamedP: "hr00"
 567 184 563 193 555 200 c 256
 549 206 541 209 532 209 c 258
 188 204 l 258
 149 203 119 200 96 193 c 256
 73 185 62 174 62 161 c 256
 62 142 65 130 72 124 c 256
 77 119 87 116 100 116 c 256
 105 116 110 118 117 123 c 257
 140 135 171 143 212 141 c 258
 477 129 l 258
 510 128 533 132 547 139 c 256
 560 145 567 156 567 171 c 256
NamedP: "hr00"
567 319 m 256
 567 330 563 339 555 346 c 256
 549 351 541 354 532 354 c 258
 188 351 l 258
 150 351 119 347 96 339 c 256
 73 332 62 321 62 308 c 256
 62 289 65 277 72 270 c 256
 78 265 87 263 100 263 c 256
 105 263 110 265 117 269 c 256
 140 282 171 291 212 289 c 258
 477 276 l 258
 510 274 534 279 547 285 c 256
 560 292 567 303 567 319 c 256
EndSplineSet
PickledDataWithLists: "(dp1
S'com.adobe.type.autohint'
p2
(S'data'
S'<data>\\n  <hintSetList>\\n    <hintset pointTag=\"hr00\">\\n      <hstem pos=\"141\" width=\"63\"/>\\n      <hstem pos=\"289\" width=\"62\"/>\\n      <vstem pos=\"62\" width=\"505\"/>\\n    </hintset>\\n  </hintSetList>\\n  </data>'
Ntp3
s."
EndChar

StartChar: greater
Encoding: 30 62 30
GlifName: greater
Width: 615
VWidth: 0
Flags: W
LayerCount: 2
Back
Fore
SplineSet
552 283 m 257
NamedP: "hr00"
 62 550 l 257
 62 500 l 257
 420 238 l 257
 62 -25 l 257
 62 -75 l 257
 552 188 l 257
 552 283 l 257
NamedP: "hr00"
EndSplineSet
PickledDataWithLists: "(dp1
S'com.adobe.type.autohint'
p2
(S'data'
S'<data>\\n  <hintSetList>\\n    <hintset pointTag=\"hr00\">\\n      <hstem pos=\"-75\" width=\"625\"/>\\n      <vstem pos=\"62\" width=\"490\"/>\\n    </hintset>\\n  </hintSetList>\\n  </data>'
Ntp3
s."
EndChar

StartChar: question
Encoding: 31 63 31
GlifName: question
Width: 628
VWidth: 0
Flags: W
LayerCount: 2
Back
Fore
SplineSet
383 1 m 258
NamedP: "hr00"
 383 14 377 24 366 30 c 256
 355 37 338 40 315 40 c 256
 309 40 305 36 304 29 c 257
 302 23 301 9 301 -12 c 256
 301 -30 304 -42 311 -49 c 256
 320 -59 338 -64 365 -64 c 256
 370 -64 375 -62 378 -57 c 256
 381 -52 383 -45 383 -36 c 258
 383 1 l 258
NamedP: "hr00"
371 605 m 256
 306 605 249 590 199 559 c 256
 150 528 125 493 125 453 c 256
 125 434 130 422 139 415 c 256
 145 411 154 409 166 409 c 256
 183 409 197 424 211 454 c 256
 241 518 295 550 370 550 c 256
 397 550 421 544 441 531 c 256
 464 517 475 499 475 476 c 256
 475 437 428 393 333 343 c 256
 230 290 179 240 179 194 c 256
 179 157 194 128 223 108 c 256
 252 88 290 78 339 78 c 256
 387 78 429 88 465 108 c 256
 499 127 516 147 516 170 c 256
 516 189 512 201 503 208 c 256
 496 213 487 216 474 216 c 256
 465 216 457 214 451 209 c 256
 446 205 444 199 444 191 c 256
 444 174 434 159 414 146 c 256
 397 135 377 129 356 129 c 256
 327 129 307 136 293 148 c 256
 280 160 273 176 273 199 c 256
 273 237 319 279 410 323 c 256
 514 374 566 422 566 470 c 256
 566 517 547 552 508 575 c 256
 473 595 428 605 371 605 c 256
EndSplineSet
PickledDataWithLists: "(dp1
S'com.adobe.type.autohint'
p2
(S'data'
S'<data>\\n  <hintSetList>\\n    <hintset pointTag=\"hr00\">\\n      <hstem pos=\"-64\" width=\"104\"/>\\n      <hstem pos=\"78\" width=\"51\"/>\\n      <hstem pos=\"550\" width=\"55\"/>\\n      <vstem pos=\"179\" width=\"94\"/>\\n      <vstem pos=\"301\" width=\"82\"/>\\n      <vstem pos=\"444\" width=\"72\"/>\\n      <vstem pos=\"475\" width=\"91\"/>\\n    </hintset>\\n  </hintSetList>\\n  </data>'
Ntp3
s."
EndChar

StartChar: at
Encoding: 32 64 32
GlifName: at
Width: 1193
VWidth: 0
Flags: W
LayerCount: 2
Back
Fore
SplineSet
610 39 m 256
NamedP: "hr00"
 568 39 533 56 503 91 c 256
 473 126 457 168 457 217 c 256
 457 274 472 323 503 364 c 256
 533 405 570 425 614 425 c 256
 638 425 659 417 676 400 c 256
 693 384 702 365 702 343 c 258
 702 140 l 258
 702 113 693 89 674 68 c 256
 657 49 635 39 610 39 c 256
NamedP: "hr00"
594 -276 m 256
 690 -276 776 -259 853 -225 c 256
 931 -190 990 -143 1031 -82 c 257
 991 -46 l 257
 948 -105 891 -152 821 -185 c 256
 752 -218 676 -235 594 -235 c 256
 475 -235 373 -191 290 -102 c 256
 206 -12 165 96 165 223 c 256
 165 350 206 458 290 548 c 256
 373 637 476 681 595 681 c 256
 712 681 812 640 894 558 c 256
 977 476 1019 377 1019 262 c 256
 1019 195 1005 137 976 90 c 256
 947 42 912 18 871 18 c 256
 852 18 836 26 821 42 c 257
 808 59 802 80 802 103 c 258
 802 466 l 257
 702 466 l 257
 702 432 l 257
 683 449 663 461 642 469 c 256
 622 477 602 481 582 481 c 256
 521 481 470 455 427 404 c 256
 384 352 363 290 363 217 c 256
 363 148 384 88 428 39 c 256
 471 -10 524 -33 585 -33 c 256
 605 -33 626 -27 647 -14 c 257
 667 1 685 19 702 42 c 257
 710 19 728 1 755 -12 c 256
 782 -26 814 -33 850 -33 c 256
 924 -33 987 -4 1038 53 c 256
 1091 111 1117 181 1117 262 c 256
 1117 389 1066 498 965 587 c 256
 863 677 740 721 597 721 c 256
 453 721 330 672 228 575 c 256
 126 478 75 360 75 223 c 256
 75 86 126 -32 227 -130 c 256
 328 -227 450 -276 594 -276 c 256
EndSplineSet
PickledDataWithLists: "(dp1
S'com.adobe.type.autohint'
p2
(S'data'
S'<data>\\n  <hintSetList>\\n    <hintset pointTag=\"hr00\">\\n      <hstem pos=\"-276\" width=\"41\"/>\\n      <hstem pos=\"-33\" width=\"51\"/>\\n      <hstem pos=\"-33\" width=\"72\"/>\\n      <hstem pos=\"425\" width=\"56\"/>\\n      <hstem pos=\"681\" width=\"40\"/>\\n      <vstem pos=\"75\" width=\"90\"/>\\n      <vstem pos=\"363\" width=\"94\"/>\\n      <vstem pos=\"702\" width=\"100\"/>\\n      <vstem pos=\"1019\" width=\"98\"/>\\n    </hintset>\\n  </hintSetList>\\n  </data>'
Ntp3
s."
EndChar

StartChar: A
Encoding: 33 65 33
GlifName: A_
Width: 611
VWidth: 0
Flags: W
LayerCount: 2
Back
Fore
SplineSet
177 226 m 257
NamedP: "hr00"
 282 475 l 257
 386 238 l 257
 177 238 l 257
 177 226 l 257
NamedP: "hr00"
4 8 m 257
 179 8 l 257
 179 27 l 257
 161 27 l 258
 150 27 140 31 131 38 c 256
 122 44 118 52 118 61 c 256
 118 74 121 89 128 105 c 258
 169 203 l 257
 397 203 l 257
 440 105 l 257
 447 84 451 70 451 61 c 256
 451 52 447 44 440 38 c 256
 432 31 423 27 413 27 c 258
 394 27 l 257
 394 8 l 257
 610 8 l 257
 610 27 l 257
 596 27 583 34 570 49 c 256
 557 63 548 84 537 108 c 258
 313 608 l 257
 298 608 l 257
 86 108 l 258
 76 84 66 63 51 49 c 256
 36 34 20 27 4 27 c 257
 4 9 l 257
 4 8 l 257
EndSplineSet
PickledDataWithLists: "(dp1
S'com.adobe.type.autohint'
p2
(S'data'
S'<data>\\n  <hintSetList>\\n    <hintset pointTag=\"hr00\">\\n      <hstem pos=\"8\" width=\"19\"/>\\n      <hstem pos=\"203\" width=\"35\"/>\\n      <hstem pos=\"608\" width=\"-20\"/>\\n      <vstem pos=\"4\" width=\"606\"/>\\n      <vstem pos=\"4\" width=\"175\"/>\\n    </hintset>\\n  </hintSetList>\\n  </data>'
Ntp3
s."
EndChar

StartChar: B
Encoding: 34 66 34
GlifName: B_
Width: 544
VWidth: 0
Flags: W
LayerCount: 2
Back
Fore
SplineSet
182 328 m 257
NamedP: "hr00"
 182 537 l 258
 182 545 187 552 196 559 c 257
 208 565 222 568 237 568 c 256
 281 568 319 556 350 531 c 256
 381 505 397 475 397 440 c 256
 397 408 384 381 357 360 c 256
 330 339 295 328 252 328 c 258
 182 328 l 257
NamedP: "hr00"
252 39 m 256
 233 39 217 42 202 49 c 256
 189 56 182 65 182 74 c 258
 182 299 l 257
 254 299 l 258
 301 299 339 287 368 263 c 256
 398 239 413 209 413 172 c 256
 413 135 398 103 367 78 c 256
 335 52 297 39 252 39 c 256
7 8 m 257
 334 8 l 258
 384 8 428 23 463 57 c 256
 499 91 515 133 515 180 c 256
 515 213 502 242 475 269 c 256
 448 296 420 312 388 318 c 257
 411 322 433 337 454 364 c 256
 476 391 487 421 487 456 c 256
 487 497 469 531 433 557 c 256
 398 583 355 596 302 596 c 258
 7 596 l 257
 7 576 l 257
 26 576 l 258
 43 576 57 570 70 558 c 256
 83 545 89 530 89 513 c 258
 89 98 l 258
 89 79 83 62 70 48 c 256
 57 34 43 27 26 27 c 258
 7 27 l 257
 7 9 l 257
 7 8 l 257
EndSplineSet
PickledDataWithLists: "(dp1
S'com.adobe.type.autohint'
p2
(S'data'
S'<data>\\n  <hintSetList>\\n    <hintset pointTag=\"hr00\">\\n      <hstem pos=\"8\" width=\"19\"/>\\n      <hstem pos=\"299\" width=\"29\"/>\\n      <hstem pos=\"568\" width=\"28\"/>\\n      <hstem pos=\"576\" width=\"20\"/>\\n      <vstem pos=\"89\" width=\"93\"/>\\n      <vstem pos=\"397\" width=\"90\"/>\\n      <vstem pos=\"413\" width=\"102\"/>\\n    </hintset>\\n  </hintSetList>\\n  </data>'
Ntp3
s."
EndChar

StartChar: C
Encoding: 35 67 35
GlifName: C_
Width: 604
VWidth: 0
Flags: W
LayerCount: 2
Back
Fore
SplineSet
337 -9 m 256
NamedP: "hr00"
 391 -9 439 2 481 22 c 256
 526 44 560 72 585 111 c 257
 566 126 l 257
 537 97 503 74 466 59 c 256
 429 44 393 36 356 36 c 256
 291 36 240 58 201 103 c 256
 162 150 142 211 142 286 c 256
 142 371 161 439 199 491 c 256
 236 542 285 568 347 568 c 256
 389 568 428 553 464 524 c 256
 501 495 528 455 545 405 c 257
 569 405 l 257
 561 605 l 257
 532 605 l 257
 531 597 526 591 519 587 c 256
 512 582 504 579 494 579 c 256
 489 579 475 584 454 593 c 257
 441 596 l 257
 420 604 386 608 339 608 c 256
 247 608 174 579 119 520 c 256
 64 461 36 383 36 286 c 256
 36 197 64 125 119 71 c 256
 174 18 246 -9 337 -9 c 256
NamedP: "hr00"
EndSplineSet
PickledDataWithLists: "(dp1
S'com.adobe.type.autohint'
p2
(S'data'
S'<data>\\n  <hintSetList>\\n    <hintset pointTag=\"hr00\">\\n      <hstem pos=\"-9\" width=\"45\"/>\\n      <hstem pos=\"568\" width=\"40\"/>\\n      <hstem pos=\"596\" width=\"-20\"/>\\n      <hstem pos=\"605\" width=\"-20\"/>\\n      <vstem pos=\"36\" width=\"106\"/>\\n      <vstem pos=\"532\" width=\"33\"/>\\n    </hintset>\\n  </hintSetList>\\n  </data>'
Ntp3
s."
EndChar

StartChar: D
Encoding: 36 68 36
GlifName: D_
Width: 634
VWidth: 0
Flags: W
LayerCount: 2
Back
Fore
SplineSet
266 36 m 256
NamedP: "hr00"
 243 36 223 40 206 47 c 256
 189 55 181 64 181 74 c 258
 181 513 l 258
 181 527 189 539 206 548 c 256
 223 558 244 563 268 563 c 256
 336 563 392 539 435 490 c 256
 480 439 502 376 502 301 c 256
 502 224 479 161 435 111 c 256
 391 61 335 36 266 36 c 256
NamedP: "hr00"
6 8 m 257
 301 8 l 258
 388 8 461 34 519 90 c 256
 576 145 604 216 604 301 c 256
 604 386 577 458 519 514 c 256
 462 570 388 596 301 596 c 258
 6 596 l 257
 6 576 l 257
 25 576 l 258
 42 576 57 571 70 560 c 256
 82 549 88 536 88 521 c 258
 88 90 l 258
 88 73 82 58 69 46 c 256
 56 33 42 27 25 27 c 258
 6 27 l 257
 6 9 l 257
 6 8 l 257
EndSplineSet
PickledDataWithLists: "(dp1
S'com.adobe.type.autohint'
p2
(S'data'
S'<data>\\n  <hintSetList>\\n    <hintset pointTag=\"hr00\">\\n      <hstem pos=\"8\" width=\"19\"/>\\n      <hstem pos=\"563\" width=\"33\"/>\\n      <hstem pos=\"576\" width=\"20\"/>\\n      <vstem pos=\"88\" width=\"93\"/>\\n      <vstem pos=\"502\" width=\"102\"/>\\n    </hintset>\\n  </hintSetList>\\n  </data>'
Ntp3
s."
EndChar

StartChar: E
Encoding: 37 69 37
GlifName: E_
Width: 542
VWidth: 0
Flags: W
LayerCount: 2
Back
Fore
SplineSet
7 8 m 257
NamedP: "hr00"
 491 8 l 257
 528 149 l 257
 508 153 l 257
 496 120 477 93 450 73 c 256
 425 53 397 43 367 43 c 258
 232 43 l 258
 218 43 206 48 196 57 c 256
 187 66 182 77 182 90 c 258
 182 299 l 257
 334 299 l 258
 356 299 375 291 390 274 c 256
 405 257 413 236 413 211 c 257
 434 211 l 257
 434 418 l 257
 413 418 l 257
 413 395 405 375 390 360 c 256
 375 345 356 337 334 337 c 258
 182 337 l 257
 182 525 l 258
 182 534 185 542 191 549 c 256
 197 556 204 560 212 560 c 258
 375 560 l 258
 395 560 412 552 427 535 c 256
 442 518 453 497 458 471 c 257
 482 471 l 257
 482 596 l 257
 7 596 l 257
 7 576 l 257
 26 576 l 258
 43 576 57 570 70 558 c 256
 83 545 89 530 89 513 c 258
 89 98 l 258
 89 79 83 62 70 48 c 256
 57 34 43 27 26 27 c 258
 7 27 l 257
 7 9 l 257
 7 8 l 257
NamedP: "hr00"
EndSplineSet
PickledDataWithLists: "(dp1
S'com.adobe.type.autohint'
p2
(S'data'
S'<data>\\n  <hintSetList>\\n    <hintset pointTag=\"hr00\">\\n      <hstem pos=\"8\" width=\"35\"/>\\n      <hstem pos=\"299\" width=\"38\"/>\\n      <hstem pos=\"418\" width=\"-20\"/>\\n      <hstem pos=\"560\" width=\"36\"/>\\n      <hstem pos=\"576\" width=\"20\"/>\\n      <vstem pos=\"89\" width=\"93\"/>\\n      <vstem pos=\"413\" width=\"21\"/>\\n      <vstem pos=\"458\" width=\"24\"/>\\n    </hintset>\\n  </hintSetList>\\n  </data>'
Ntp3
s."
EndChar

StartChar: F
Encoding: 38 70 38
GlifName: F_
Width: 499
VWidth: 0
Flags: W
LayerCount: 2
Back
Fore
SplineSet
6 8 m 257
NamedP: "hr00"
 254 8 l 257
 254 27 l 257
 236 27 l 258
 221 27 208 31 197 40 c 256
 186 49 181 61 181 74 c 258
 181 299 l 257
 333 299 l 258
 353 299 371 292 385 276 c 256
 399 261 404 241 404 218 c 257
 425 218 l 257
 425 418 l 257
 404 418 l 257
 404 395 399 375 385 360 c 256
 371 344 353 337 333 337 c 258
 181 337 l 257
 181 513 l 258
 181 526 184 538 190 547 c 256
 196 556 203 560 211 560 c 258
 366 560 l 258
 389 560 409 550 427 534 c 256
 445 517 457 497 462 471 c 257
 481 471 l 257
 481 596 l 257
 6 596 l 257
 6 576 l 257
 25 576 l 258
 42 576 56 570 69 558 c 256
 82 545 88 530 88 513 c 258
 88 74 l 258
 88 61 82 49 70 40 c 256
 57 31 42 27 25 27 c 258
 6 27 l 257
 6 9 l 257
 6 8 l 257
NamedP: "hr00"
EndSplineSet
PickledDataWithLists: "(dp1
S'com.adobe.type.autohint'
p2
(S'data'
S'<data>\\n  <hintSetList>\\n    <hintset pointTag=\"hr00\">\\n      <hstem pos=\"8\" width=\"19\"/>\\n      <hstem pos=\"299\" width=\"38\"/>\\n      <hstem pos=\"418\" width=\"-20\"/>\\n      <hstem pos=\"560\" width=\"36\"/>\\n      <hstem pos=\"576\" width=\"20\"/>\\n      <vstem pos=\"88\" width=\"93\"/>\\n      <vstem pos=\"404\" width=\"21\"/>\\n      <vstem pos=\"462\" width=\"19\"/>\\n    </hintset>\\n  </hintSetList>\\n  </data>'
Ntp3
s."
EndChar

StartChar: G
Encoding: 39 71 39
GlifName: G_
Width: 649
VWidth: 0
Flags: W
LayerCount: 2
Back
Fore
SplineSet
354 -5 m 256
NamedP: "hr00"
 428 -5 505 18 584 65 c 257
 584 256 l 258
 584 269 588 281 596 290 c 256
 605 299 614 304 624 304 c 258
 642 304 l 257
 642 324 l 257
 419 324 l 257
 419 304 l 257
 436 304 l 258
 451 304 465 299 476 290 c 256
 487 281 492 269 492 256 c 258
 492 70 l 257
 478 59 460 50 438 44 c 256
 416 39 391 36 363 36 c 256
 302 36 251 61 208 112 c 256
 165 163 142 224 142 297 c 256
 142 374 164 438 205 491 c 256
 247 545 297 572 356 572 c 256
 397 572 435 558 470 531 c 256
 507 503 536 465 557 417 c 257
 578 417 l 257
 565 608 l 257
 545 608 l 257
 542 601 537 595 530 590 c 257
 522 586 512 584 501 584 c 256
 486 584 463 588 434 599 c 256
 411 607 374 613 323 613 c 256
 236 613 168 584 115 526 c 256
 63 469 36 393 36 297 c 256
 36 206 65 133 124 78 c 256
 181 23 258 -5 354 -5 c 256
NamedP: "hr00"
EndSplineSet
PickledDataWithLists: "(dp1
S'com.adobe.type.autohint'
p2
(S'data'
S'<data>\\n  <hintSetList>\\n    <hintset pointTag=\"hr00\">\\n      <hstem pos=\"-5\" width=\"41\"/>\\n      <hstem pos=\"304\" width=\"20\"/>\\n      <hstem pos=\"572\" width=\"41\"/>\\n      <hstem pos=\"608\" width=\"-20\"/>\\n      <vstem pos=\"36\" width=\"106\"/>\\n      <vstem pos=\"492\" width=\"92\"/>\\n    </hintset>\\n  </hintSetList>\\n  </data>'
Ntp3
s."
EndChar

StartChar: H
Encoding: 40 72 40
GlifName: H_
Width: 615
VWidth: 0
Flags: W
LayerCount: 2
Back
Fore
SplineSet
6 8 m 257
NamedP: "hr00"
 254 8 l 257
 254 27 l 257
 236 27 l 258
 221 27 208 33 197 46 c 256
 186 58 181 73 181 90 c 258
 181 284 l 257
 446 284 l 257
 446 90 l 258
 446 73 441 58 430 46 c 256
 418 33 405 27 390 27 c 258
 373 27 l 257
 373 8 l 257
 612 8 l 257
 612 27 l 257
 594 27 l 258
 579 27 565 33 554 46 c 256
 544 58 539 73 539 90 c 258
 539 513 l 258
 539 530 543 545 554 558 c 256
 564 570 579 576 594 576 c 258
 612 576 l 257
 612 596 l 257
 373 596 l 257
 373 576 l 257
 390 576 l 258
 405 576 419 570 430 558 c 256
 442 545 446 530 446 513 c 258
 446 320 l 257
 181 320 l 257
 181 513 l 258
 181 530 186 545 197 558 c 256
 208 570 221 576 236 576 c 258
 254 576 l 257
 254 596 l 257
 6 596 l 257
 6 576 l 257
 25 576 l 258
 42 576 56 570 69 558 c 256
 82 545 88 530 88 513 c 258
 88 90 l 258
 88 73 82 58 69 46 c 256
 56 33 42 27 25 27 c 258
 6 27 l 257
 6 9 l 257
 6 8 l 257
NamedP: "hr00"
EndSplineSet
PickledDataWithLists: "(dp1
S'com.adobe.type.autohint'
p2
(S'data'
S'<data>\\n  <hintSetList>\\n    <hintset pointTag=\"hr00\">\\n      <hstem pos=\"8\" width=\"19\"/>\\n      <hstem pos=\"284\" width=\"36\"/>\\n      <hstem pos=\"576\" width=\"20\"/>\\n      <vstem pos=\"88\" width=\"93\"/>\\n      <vstem pos=\"446\" width=\"93\"/>\\n    </hintset>\\n  </hintSetList>\\n  </data>'
Ntp3
s."
EndChar

StartChar: I
Encoding: 41 73 41
GlifName: I_
Width: 264
VWidth: 0
Flags: W
LayerCount: 2
Back
Fore
SplineSet
6 8 m 257
NamedP: "hr00"
 262 8 l 257
 262 27 l 257
 244 27 l 258
 227 27 212 31 199 40 c 256
 187 49 181 61 181 74 c 258
 181 521 l 258
 181 536 187 549 199 560 c 256
 212 571 227 576 244 576 c 258
 262 576 l 257
 262 596 l 257
 6 596 l 257
 6 576 l 257
 25 576 l 258
 42 576 57 571 70 560 c 256
 82 549 88 536 88 521 c 258
 88 74 l 258
 88 61 82 49 70 40 c 256
 57 31 42 27 25 27 c 258
 6 27 l 257
 6 9 l 257
 6 8 l 257
NamedP: "hr00"
EndSplineSet
PickledDataWithLists: "(dp1
S'com.adobe.type.autohint'
p2
(S'data'
S'<data>\\n  <hintSetList>\\n    <hintset pointTag=\"hr00\">\\n      <hstem pos=\"8\" width=\"19\"/>\\n      <hstem pos=\"576\" width=\"20\"/>\\n      <vstem pos=\"88\" width=\"93\"/>\\n    </hintset>\\n  </hintSetList>\\n  </data>'
Ntp3
s."
EndChar

StartChar: J
Encoding: 42 74 42
GlifName: J_
Width: 315
VWidth: 0
Flags: W
LayerCount: 2
Back
Fore
SplineSet
104 -5 m 256
NamedP: "hr00"
 153 -5 191 9 217 38 c 256
 242 67 254 108 254 163 c 258
 254 504 l 258
 254 524 259 541 270 556 c 256
 281 569 294 576 309 576 c 258
 327 576 l 257
 327 596 l 257
 79 596 l 257
 79 576 l 257
 97 576 l 258
 115 576 130 569 142 556 c 256
 155 541 160 524 160 504 c 258
 160 82 l 258
 160 68 157 55 152 44 c 256
 147 35 141 31 134 31 c 256
 129 31 123 34 117 39 c 257
 112 46 109 53 108 61 c 256
 106 73 100 83 90 90 c 256
 81 97 69 100 56 100 c 256
 45 100 35 97 26 90 c 257
 18 82 14 72 14 61 c 256
 14 42 23 27 42 15 c 257
 59 2 79 -5 104 -5 c 256
NamedP: "hr00"
EndSplineSet
PickledDataWithLists: "(dp1
S'com.adobe.type.autohint'
p2
(S'data'
S'<data>\\n  <hintSetList>\\n    <hintset pointTag=\"hr00\">\\n      <hstem pos=\"-5\" width=\"36\"/>\\n      <hstem pos=\"576\" width=\"20\"/>\\n      <vstem pos=\"160\" width=\"94\"/>\\n    </hintset>\\n  </hintSetList>\\n  </data>'
Ntp3
s."
EndChar

StartChar: K
Encoding: 43 75 43
GlifName: K_
Width: 605
VWidth: 0
Flags: W
LayerCount: 2
Back
Fore
SplineSet
6 8 m 257
NamedP: "hr00"
 254 8 l 257
 254 27 l 257
 236 27 l 258
 221 27 208 31 197 40 c 256
 186 49 181 61 181 74 c 258
 181 271 l 257
 203 291 l 257
 397 81 l 257
 400 76 403 72 404 67 c 257
 407 62 408 56 408 50 c 256
 408 43 405 38 398 34 c 257
 392 29 384 27 374 27 c 258
 356 27 l 257
 356 8 l 257
 604 8 l 257
 604 27 l 257
 595 27 583 32 569 42 c 257
 553 51 535 64 518 83 c 258
 271 346 l 257
 440 512 l 258
 463 535 490 549 513 560 c 256
 537 571 559 576 580 576 c 257
 580 596 l 257
 347 596 l 257
 347 576 l 257
 366 576 l 258
 376 576 385 574 394 569 c 256
 401 565 404 560 404 554 c 256
 404 547 403 541 400 534 c 256
 398 528 394 523 389 518 c 258
 181 323 l 257
 181 529 l 258
 181 542 186 553 197 563 c 256
 208 572 221 576 236 576 c 258
 254 576 l 257
 254 596 l 257
 6 596 l 257
 6 576 l 257
 25 576 l 258
 42 576 57 572 70 563 c 257
 82 553 88 542 88 529 c 258
 88 74 l 258
 88 61 82 49 70 40 c 256
 57 31 42 27 25 27 c 258
 6 27 l 257
 6 9 l 257
 6 8 l 257
NamedP: "hr00"
EndSplineSet
PickledDataWithLists: "(dp1
S'com.adobe.type.autohint'
p2
(S'data'
S'<data>\\n  <hintSetList>\\n    <hintset pointTag=\"hr00\">\\n      <hstem pos=\"8\" width=\"19\"/>\\n      <hstem pos=\"576\" width=\"20\"/>\\n      <vstem pos=\"88\" width=\"93\"/>\\n    </hintset>\\n  </hintSetList>\\n  </data>'
Ntp3
s."
EndChar

StartChar: L
Encoding: 44 76 44
GlifName: L_
Width: 542
VWidth: 0
Flags: W
LayerCount: 2
Back
Fore
SplineSet
6 8 m 257
NamedP: "hr00"
 498 8 l 257
 531 165 l 257
 510 165 l 257
 497 129 477 100 449 77 c 256
 421 54 391 43 358 43 c 258
 228 43 l 258
 215 43 204 47 194 54 c 257
 185 63 181 73 181 82 c 258
 181 513 l 258
 181 530 186 545 197 558 c 256
 208 570 221 576 236 576 c 258
 254 576 l 257
 254 596 l 257
 6 596 l 257
 6 576 l 257
 25 576 l 258
 42 576 57 571 70 560 c 256
 82 549 88 536 88 521 c 258
 88 82 l 258
 88 67 82 54 70 43 c 256
 57 32 42 27 25 27 c 258
 6 27 l 257
 6 9 l 257
 6 8 l 257
NamedP: "hr00"
EndSplineSet
PickledDataWithLists: "(dp1
S'com.adobe.type.autohint'
p2
(S'data'
S'<data>\\n  <hintSetList>\\n    <hintset pointTag=\"hr00\">\\n      <hstem pos=\"8\" width=\"35\"/>\\n      <hstem pos=\"576\" width=\"20\"/>\\n      <vstem pos=\"88\" width=\"93\"/>\\n    </hintset>\\n  </hintSetList>\\n  </data>'
Ntp3
s."
EndChar

StartChar: M
Encoding: 45 77 45
GlifName: M_
Width: 761
VWidth: 0
Flags: W
LayerCount: 2
Back
Fore
SplineSet
6 8 m 257
NamedP: "hr00"
 213 8 l 257
 213 27 l 257
 194 27 l 258
 177 27 163 34 150 48 c 256
 138 62 132 79 132 98 c 258
 132 472 l 257
 357 -1 l 257
 371 -1 l 257
 592 495 l 257
 592 98 l 258
 592 79 586 62 575 48 c 256
 564 34 552 27 538 27 c 258
 519 27 l 257
 519 8 l 257
 758 8 l 257
 758 27 l 257
 740 27 l 258
 725 27 712 34 701 48 c 256
 690 62 685 79 685 98 c 258
 685 521 l 258
 685 536 690 549 701 560 c 256
 712 571 725 576 740 576 c 258
 758 576 l 257
 758 596 l 257
 587 596 l 257
 394 152 l 257
 180 596 l 257
 6 596 l 257
 6 576 l 257
 25 576 l 258
 42 576 58 570 72 558 c 257
 84 545 90 530 90 513 c 258
 90 98 l 258
 90 79 85 62 72 48 c 256
 59 33 42 27 25 27 c 258
 6 27 l 257
 6 9 l 257
 6 8 l 257
NamedP: "hr00"
EndSplineSet
PickledDataWithLists: "(dp1
S'com.adobe.type.autohint'
p2
(S'data'
S'<data>\\n  <hintSetList>\\n    <hintset pointTag=\"hr00\">\\n      <hstem pos=\"20\" width=\"-21\"/>\\n      <hstem pos=\"8\" width=\"19\"/>\\n      <hstem pos=\"576\" width=\"20\"/>\\n      <vstem pos=\"90\" width=\"42\"/>\\n      <vstem pos=\"592\" width=\"93\"/>\\n    </hintset>\\n  </hintSetList>\\n  </data>'
Ntp3
s."
EndChar

StartChar: N
Encoding: 46 78 46
GlifName: N_
Width: 619
VWidth: 0
Flags: W
LayerCount: 2
Back
Fore
SplineSet
7 8 m 257
NamedP: "hr00"
 214 8 l 257
 214 27 l 257
 195 27 l 258
 178 27 162 34 149 48 c 256
 136 62 130 79 130 98 c 258
 130 466 l 257
 521 -5 l 257
 540 -5 l 257
 540 513 l 258
 540 530 546 545 557 558 c 257
 570 570 585 576 603 576 c 258
 621 576 l 257
 621 596 l 257
 421 596 l 257
 421 576 l 257
 440 576 l 258
 457 576 470 570 481 558 c 256
 494 545 500 530 500 513 c 258
 500 181 l 257
 161 596 l 257
 7 596 l 257
 7 576 l 257
 26 576 l 258
 34 576 51 558 80 526 c 258
 89 516 l 257
 89 98 l 258
 89 79 83 62 70 48 c 256
 57 34 43 27 26 27 c 258
 7 27 l 257
 7 9 l 257
 7 8 l 257
NamedP: "hr00"
EndSplineSet
PickledDataWithLists: "(dp1
S'com.adobe.type.autohint'
p2
(S'data'
S'<data>\\n  <hintSetList>\\n    <hintset pointTag=\"hr00\">\\n      <hstem pos=\"16\" width=\"-21\"/>\\n      <hstem pos=\"8\" width=\"19\"/>\\n      <hstem pos=\"576\" width=\"20\"/>\\n      <vstem pos=\"89\" width=\"41\"/>\\n      <vstem pos=\"500\" width=\"40\"/>\\n    </hintset>\\n  </hintSetList>\\n  </data>'
Ntp3
s."
EndChar

StartChar: O
Encoding: 47 79 47
GlifName: O_
Width: 662
VWidth: 0
Flags: W
LayerCount: 2
Back
Fore
SplineSet
331 27 m 256
NamedP: "hr00"
 274 27 229 51 195 99 c 256
 160 148 143 213 143 293 c 258
 143 309 l 258
 143 390 161 455 195 503 c 256
 230 552 275 576 333 576 c 256
 391 576 438 552 473 503 c 256
 508 455 526 390 526 309 c 258
 526 293 l 258
 526 213 508 148 473 99 c 256
 438 51 390 27 331 27 c 256
NamedP: "hr00"
331 -9 m 256
 421 -9 492 18 546 73 c 256
 600 129 628 202 628 293 c 258
 628 309 l 258
 628 402 600 474 546 529 c 256
 492 584 422 613 333 613 c 256
 244 613 174 585 119 529 c 256
 65 475 38 402 38 309 c 258
 38 293 l 258
 38 202 65 128 119 73 c 256
 173 18 244 -9 331 -9 c 256
EndSplineSet
PickledDataWithLists: "(dp1
S'com.adobe.type.autohint'
p2
(S'data'
S'<data>\\n  <hintSetList>\\n    <hintset pointTag=\"hr00\">\\n      <hstem pos=\"-9\" width=\"36\"/>\\n      <hstem pos=\"576\" width=\"37\"/>\\n      <vstem pos=\"38\" width=\"105\"/>\\n      <vstem pos=\"526\" width=\"102\"/>\\n    </hintset>\\n  </hintSetList>\\n  </data>'
Ntp3
s."
EndChar

StartChar: P
Encoding: 48 80 48
GlifName: P_
Width: 501
VWidth: 0
Flags: W
LayerCount: 2
Back
Fore
SplineSet
181 295 m 257
NamedP: "hr00"
 181 521 l 258
 181 531 188 540 201 548 c 256
 216 556 233 560 253 560 c 256
 292 560 321 547 344 523 c 256
 367 499 380 468 380 428 c 256
 380 388 368 356 344 331 c 256
 322 307 291 295 251 295 c 258
 181 295 l 257
NamedP: "hr00"
6 8 m 257
 262 8 l 257
 262 27 l 257
 244 27 l 258
 227 27 212 33 199 46 c 256
 187 58 181 73 181 90 c 258
 181 259 l 257
 253 259 l 258
 322 259 377 274 419 305 c 256
 460 336 481 377 481 428 c 256
 481 478 461 519 422 551 c 256
 385 581 333 596 268 596 c 258
 6 596 l 257
 6 576 l 257
 25 576 l 258
 42 576 57 571 70 560 c 256
 82 549 88 536 88 521 c 258
 88 90 l 258
 88 73 82 58 69 46 c 256
 56 33 42 27 25 27 c 258
 6 27 l 257
 6 9 l 257
 6 8 l 257
EndSplineSet
PickledDataWithLists: "(dp1
S'com.adobe.type.autohint'
p2
(S'data'
S'<data>\\n  <hintSetList>\\n    <hintset pointTag=\"hr00\">\\n      <hstem pos=\"8\" width=\"19\"/>\\n      <hstem pos=\"259\" width=\"36\"/>\\n      <hstem pos=\"560\" width=\"36\"/>\\n      <hstem pos=\"576\" width=\"20\"/>\\n      <vstem pos=\"88\" width=\"93\"/>\\n      <vstem pos=\"380\" width=\"101\"/>\\n    </hintset>\\n  </hintSetList>\\n  </data>'
Ntp3
s."
EndChar

StartChar: Q
Encoding: 49 81 49
GlifName: Q_
Width: 660
VWidth: 0
Flags: W
LayerCount: 2
Back
Fore
SplineSet
335 27 m 256
NamedP: "hr00"
 283 27 238 53 200 105 c 256
 163 157 145 220 145 293 c 258
 145 309 l 258
 145 384 163 447 200 498 c 256
 238 550 284 576 337 576 c 256
 388 576 432 550 468 498 c 256
 504 447 522 384 522 309 c 258
 522 293 l 258
 522 220 504 157 468 105 c 256
 432 53 388 27 335 27 c 256
NamedP: "hr00"
251 0 m 257
 279 -49 322 -85 380 -113 c 256
 437 -141 501 -156 572 -156 c 258
 632 -156 l 257
 632 -139 l 257
 585 -131 542 -116 502 -92 c 256
 462 -68 427 -38 398 -4 c 257
 463 7 518 41 562 98 c 256
 606 155 628 220 628 293 c 258
 628 309 l 258
 628 393 599 465 542 524 c 256
 486 583 418 613 337 613 c 256
 253 613 182 583 123 524 c 256
 64 465 34 393 34 309 c 258
 34 293 l 258
 34 220 55 155 96 99 c 256
 137 44 188 10 251 -1 c 257
 251 0 l 257
EndSplineSet
PickledDataWithLists: "(dp1
S'com.adobe.type.autohint'
p2
(S'data'
S'<data>\\n  <hintSetList>\\n    <hintset pointTag=\"hr00\">\\n      <hstem pos=\"-156\" width=\"17\"/>\\n      <hstem pos=\"17\" width=\"-21\"/>\\n      <hstem pos=\"576\" width=\"37\"/>\\n      <vstem pos=\"34\" width=\"111\"/>\\n      <vstem pos=\"522\" width=\"106\"/>\\n    </hintset>\\n  </hintSetList>\\n  </data>'
Ntp3
s."
EndChar

StartChar: R
Encoding: 50 82 50
GlifName: R_
Width: 587
VWidth: 0
Flags: W
LayerCount: 2
Back
Fore
SplineSet
178 309 m 257
NamedP: "hr00"
 181 529 l 258
 181 538 186 545 195 551 c 257
 207 557 221 560 236 560 c 256
 278 560 314 548 344 525 c 256
 374 502 389 475 389 443 c 256
 389 407 372 377 339 351 c 256
 306 325 267 311 220 311 c 258
 178 311 l 257
 178 309 l 257
NamedP: "hr00"
6 8 m 257
 254 8 l 257
 254 27 l 257
 236 27 l 258
 221 27 208 33 197 46 c 256
 186 58 181 73 181 90 c 258
 181 276 l 257
 235 276 l 257
 438 8 l 257
 587 8 l 257
 587 27 l 257
 575 27 562 31 548 39 c 256
 532 48 516 60 501 75 c 257
 329 292 l 257
 374 301 412 319 443 347 c 256
 474 376 490 408 490 443 c 256
 490 488 472 524 436 553 c 256
 401 582 356 596 301 596 c 258
 6 596 l 257
 6 576 l 257
 25 576 l 258
 42 576 56 570 69 558 c 256
 82 545 88 530 88 513 c 258
 88 90 l 258
 88 73 82 58 69 46 c 256
 56 33 42 27 25 27 c 258
 6 27 l 257
 6 9 l 257
 6 8 l 257
EndSplineSet
PickledDataWithLists: "(dp1
S'com.adobe.type.autohint'
p2
(S'data'
S'<data>\\n  <hintSetList>\\n    <hintset pointTag=\"hr00\">\\n      <hstem pos=\"8\" width=\"19\"/>\\n      <hstem pos=\"276\" width=\"35\"/>\\n      <hstem pos=\"560\" width=\"36\"/>\\n      <hstem pos=\"576\" width=\"20\"/>\\n      <vstem pos=\"88\" width=\"93\"/>\\n      <vstem pos=\"389\" width=\"101\"/>\\n    </hintset>\\n  </hintSetList>\\n  </data>'
Ntp3
s."
EndChar

StartChar: S
Encoding: 51 83 51
GlifName: S_
Width: 471
VWidth: 0
Flags: W
LayerCount: 2
Back
Fore
SplineSet
53 -1 m 257
NamedP: "hr00"
 82 -1 l 257
 83 6 87 12 93 17 c 256
 99 21 105 23 112 23 c 256
 126 23 142 18 160 8 c 256
 179 -3 207 -9 243 -9 c 256
 298 -9 344 8 382 41 c 256
 421 75 441 116 441 163 c 256
 441 193 427 224 400 257 c 256
 373 289 338 319 293 345 c 256
 246 372 210 398 184 425 c 256
 157 452 143 476 143 497 c 256
 143 517 152 534 170 549 c 256
 188 564 209 572 234 572 c 256
 267 572 297 559 326 532 c 256
 356 504 380 467 397 422 c 257
 416 422 l 257
 399 613 l 257
 376 613 l 257
 374 604 370 596 363 591 c 256
 357 586 349 584 340 584 c 256
 331 584 315 588 292 596 c 256
 262 607 237 613 218 613 c 256
 175 613 137 598 105 569 c 256
 74 540 58 505 58 464 c 256
 58 433 72 401 97 369 c 256
 122 337 154 309 197 284 c 256
 242 258 278 232 305 205 c 256
 330 180 342 158 342 140 c 256
 342 110 333 84 314 63 c 256
 294 42 270 31 243 31 c 256
 205 31 169 46 135 74 c 256
 100 103 74 141 57 190 c 257
 29 190 l 257
 53 0 l 257
 53 -1 l 257
NamedP: "hr00"
EndSplineSet
PickledDataWithLists: "(dp1
S'com.adobe.type.autohint'
p2
(S'data'
S'<data>\\n  <hintSetList>\\n    <hintset pointTag=\"hr00\">\\n      <hstem pos=\"-9\" width=\"40\"/>\\n      <hstem pos=\"20\" width=\"-21\"/>\\n      <hstem pos=\"572\" width=\"41\"/>\\n      <vstem pos=\"58\" width=\"85\"/>\\n      <vstem pos=\"342\" width=\"99\"/>\\n    </hintset>\\n  </hintSetList>\\n  </data>'
Ntp3
s."
EndChar

StartChar: T
Encoding: 52 84 52
GlifName: T_
Width: 557
VWidth: 0
Flags: W
LayerCount: 2
Back
Fore
SplineSet
149 8 m 257
NamedP: "hr00"
 414 8 l 257
 414 27 l 257
 396 27 l 258
 379 27 363 33 350 46 c 256
 338 58 332 73 332 90 c 258
 332 560 l 257
 412 560 l 258
 434 560 456 549 476 527 c 256
 497 504 511 474 521 438 c 257
 544 438 l 257
 536 596 l 257
 27 596 l 257
 19 438 l 257
 43 438 l 257
 53 474 68 504 88 527 c 256
 107 549 128 560 151 560 c 258
 231 560 l 257
 231 90 l 258
 231 73 225 58 213 46 c 256
 200 33 184 27 167 27 c 258
 149 27 l 257
 149 9 l 257
 149 8 l 257
NamedP: "hr00"
EndSplineSet
PickledDataWithLists: "(dp1
S'com.adobe.type.autohint'
p2
(S'data'
S'<data>\\n  <hintSetList>\\n    <hintset pointTag=\"hr00\">\\n      <hstem pos=\"8\" width=\"19\"/>\\n      <hstem pos=\"560\" width=\"36\"/>\\n      <vstem pos=\"231\" width=\"101\"/>\\n    </hintset>\\n  </hintSetList>\\n  </data>'
Ntp3
s."
EndChar

StartChar: U
Encoding: 53 85 53
GlifName: U_
Width: 622
VWidth: 0
Flags: W
LayerCount: 2
Back
Fore
SplineSet
311 -5 m 256
NamedP: "hr00"
 376 -5 431 14 476 54 c 256
 520 93 542 142 542 199 c 258
 542 497 l 258
 542 520 548 538 561 553 c 256
 574 568 589 576 606 576 c 258
 624 576 l 257
 624 596 l 257
 413 596 l 257
 413 576 l 257
 430 576 l 258
 447 576 462 568 475 553 c 256
 487 538 493 520 493 497 c 258
 493 199 l 258
 493 154 479 116 447 83 c 256
 416 52 378 36 335 36 c 256
 292 36 253 51 222 83 c 256
 191 115 177 154 177 199 c 258
 177 513 l 258
 177 530 182 545 195 558 c 256
 208 571 223 576 240 576 c 258
 258 576 l 257
 258 596 l 257
 2 596 l 257
 2 576 l 257
 21 576 l 258
 38 576 52 570 65 558 c 256
 78 545 84 530 84 513 c 258
 84 199 l 258
 84 142 105 93 150 54 c 256
 195 14 250 -5 311 -5 c 256
NamedP: "hr00"
EndSplineSet
PickledDataWithLists: "(dp1
S'com.adobe.type.autohint'
p2
(S'data'
S'<data>\\n  <hintSetList>\\n    <hintset pointTag=\"hr00\">\\n      <hstem pos=\"-5\" width=\"41\"/>\\n      <hstem pos=\"576\" width=\"20\"/>\\n      <vstem pos=\"84\" width=\"93\"/>\\n      <vstem pos=\"493\" width=\"49\"/>\\n    </hintset>\\n  </hintSetList>\\n  </data>'
Ntp3
s."
EndChar

StartChar: V
Encoding: 54 86 54
GlifName: V_
Width: 619
VWidth: 0
Flags: W
LayerCount: 2
Back
Fore
SplineSet
345 8 m 257
NamedP: "hr00"
 550 504 l 258
 558 524 568 543 581 557 c 256
 592 570 605 576 618 576 c 257
 618 596 l 257
 444 596 l 257
 444 576 l 257
 462 576 l 258
 473 576 483 572 492 565 c 256
 501 557 505 548 505 537 c 256
 505 530 503 520 497 505 c 258
 356 156 l 257
 195 497 l 257
 187 520 l 258
 182 534 179 543 179 546 c 256
 179 554 183 561 192 567 c 256
 202 573 213 576 226 576 c 258
 244 576 l 257
 244 596 l 257
 4 596 l 257
 4 576 l 257
 18 576 33 569 48 555 c 256
 64 540 79 521 94 496 c 257
 322 8 l 257
 345 8 l 257
NamedP: "hr00"
EndSplineSet
PickledDataWithLists: "(dp1
S'com.adobe.type.autohint'
p2
(S'data'
S'<data>\\n  <hintSetList>\\n    <hintset pointTag=\"hr00\">\\n      <hstem pos=\"576\" width=\"20\"/>\\n      <vstem pos=\"4\" width=\"614\"/>\\n      <vstem pos=\"444\" width=\"174\"/>\\n    </hintset>\\n  </hintSetList>\\n  </data>'
Ntp3
s."
EndChar

StartChar: W
Encoding: 55 87 55
GlifName: W_
Width: 845
VWidth: 0
Flags: W
LayerCount: 2
Back
Fore
SplineSet
281 8 m 257
NamedP: "hr00"
 418 361 l 257
 565 8 l 257
 582 8 l 257
 762 504 l 258
 770 525 780 543 792 557 c 256
 803 570 814 576 825 576 c 258
 844 576 l 257
 844 596 l 257
 661 596 l 257
 661 576 l 257
 679 576 l 258
 692 576 704 573 713 567 c 256
 722 561 726 554 726 546 c 256
 726 533 723 520 717 505 c 258
 596 177 l 257
 469 510 l 258
 467 515 466 527 466 546 c 256
 466 555 469 562 476 567 c 256
 483 573 491 576 500 576 c 258
 527 576 l 257
 527 596 l 257
 279 596 l 257
 279 576 l 257
 297 576 l 258
 308 576 319 571 330 562 c 256
 342 551 351 538 356 521 c 257
 396 419 l 257
 301 177 l 257
 181 505 l 258
 176 520 174 533 174 546 c 256
 174 555 177 562 184 567 c 257
 190 573 198 576 207 576 c 258
 226 576 l 257
 226 596 l 257
 2 596 l 257
 2 576 l 257
 19 576 35 570 50 557 c 256
 65 543 76 525 84 504 c 258
 262 8 l 257
 281 8 l 257
NamedP: "hr00"
EndSplineSet
PickledDataWithLists: "(dp1
S'com.adobe.type.autohint'
p2
(S'data'
S'<data>\\n  <hintSetList>\\n    <hintset pointTag=\"hr00\">\\n      <hstem pos=\"576\" width=\"20\"/>\\n      <vstem pos=\"2\" width=\"842\"/>\\n      <vstem pos=\"661\" width=\"183\"/>\\n    </hintset>\\n  </hintSetList>\\n  </data>'
Ntp3
s."
EndChar

StartChar: X
Encoding: 56 88 56
GlifName: X_
Width: 574
VWidth: 0
Flags: W
LayerCount: 2
Back
Fore
SplineSet
7 8 m 257
NamedP: "hr00"
 240 8 l 257
 240 27 l 257
 221 27 l 258
 202 27 186 31 173 38 c 256
 160 45 154 52 154 61 c 256
 154 75 158 88 165 101 c 257
 274 248 l 257
 365 101 l 258
 373 87 377 74 377 61 c 256
 377 52 373 44 366 38 c 256
 357 31 347 27 334 27 c 258
 316 27 l 257
 316 8 l 257
 572 8 l 257
 572 27 l 257
 554 27 537 34 520 47 c 256
 503 60 487 78 474 99 c 258
 333 326 l 257
 480 524 l 257
 489 540 500 553 515 563 c 256
 530 572 546 576 564 576 c 257
 564 596 l 257
 361 596 l 257
 382 576 l 257
 393 576 403 573 411 568 c 256
 418 563 421 556 421 548 c 256
 421 538 417 527 410 514 c 257
 302 362 l 257
 210 514 l 257
 202 533 l 258
 199 539 198 543 198 546 c 256
 198 555 201 562 207 567 c 257
 212 573 220 576 229 576 c 258
 247 576 l 257
 247 596 l 257
 15 596 l 257
 15 576 l 257
 27 576 40 571 54 562 c 256
 68 552 82 538 97 520 c 257
 251 289 l 257
 105 99 l 258
 87 75 67 60 50 47 c 256
 34 35 20 27 7 27 c 257
 7 9 l 257
 7 8 l 257
NamedP: "hr00"
EndSplineSet
PickledDataWithLists: "(dp1
S'com.adobe.type.autohint'
p2
(S'data'
S'<data>\\n  <hintSetList>\\n    <hintset pointTag=\"hr00\">\\n      <hstem pos=\"8\" width=\"19\"/>\\n      <hstem pos=\"576\" width=\"20\"/>\\n      <vstem pos=\"7\" width=\"565\"/>\\n    </hintset>\\n  </hintSetList>\\n  </data>'
Ntp3
s."
EndChar

StartChar: Y
Encoding: 57 89 57
GlifName: Y_
Width: 615
VWidth: 0
Flags: W
LayerCount: 2
Back
Fore
SplineSet
180 8 m 257
NamedP: "hr00"
 454 8 l 257
 454 27 l 257
 435 27 l 258
 415 27 398 34 385 46 c 256
 371 59 364 73 364 90 c 258
 364 273 l 257
 521 520 l 258
 532 537 545 552 562 562 c 256
 579 571 597 576 616 576 c 257
 616 596 l 257
 416 596 l 257
 416 576 l 257
 435 576 l 258
 448 576 460 573 469 568 c 256
 478 562 482 555 482 548 c 256
 482 547 481 544 478 539 c 257
 477 535 474 529 469 522 c 258
 345 323 l 257
 218 522 l 257
 206 545 l 258
 203 550 201 554 201 557 c 256
 201 562 204 566 211 570 c 256
 220 574 229 576 240 576 c 258
 258 576 l 257
 258 596 l 257
 2 596 l 257
 2 576 l 257
 21 576 39 570 56 559 c 256
 74 548 89 532 100 512 c 257
 270 268 l 257
 270 90 l 258
 270 73 263 58 250 46 c 256
 236 33 219 27 199 27 c 258
 180 27 l 257
 180 9 l 257
 180 8 l 257
NamedP: "hr00"
EndSplineSet
PickledDataWithLists: "(dp1
S'com.adobe.type.autohint'
p2
(S'data'
S'<data>\\n  <hintSetList>\\n    <hintset pointTag=\"hr00\">\\n      <hstem pos=\"8\" width=\"19\"/>\\n      <hstem pos=\"576\" width=\"20\"/>\\n      <vstem pos=\"270\" width=\"94\"/>\\n    </hintset>\\n  </hintSetList>\\n  </data>'
Ntp3
s."
EndChar

StartChar: Z
Encoding: 58 90 58
GlifName: Z_
Width: 573
VWidth: 0
Flags: W
LayerCount: 2
Back
Fore
SplineSet
19 8 m 257
NamedP: "hr00"
 536 8 l 257
 552 173 l 257
 532 173 l 257
 521 134 502 102 475 79 c 256
 448 55 418 43 387 43 c 258
 152 43 l 257
 552 578 l 257
 552 596 l 257
 60 596 l 257
 42 438 l 257
 63 438 l 257
 73 474 90 504 115 527 c 256
 140 549 169 560 200 560 c 258
 412 560 l 257
 19 26 l 257
 19 9 l 257
 19 8 l 257
NamedP: "hr00"
EndSplineSet
PickledDataWithLists: "(dp1
S'com.adobe.type.autohint'
p2
(S'data'
S'<data>\\n  <hintSetList>\\n    <hintset pointTag=\"hr00\">\\n      <hstem pos=\"8\" width=\"35\"/>\\n      <hstem pos=\"560\" width=\"36\"/>\\n      <vstem pos=\"19\" width=\"533\"/>\\n    </hintset>\\n  </hintSetList>\\n  </data>'
Ntp3
s."
EndChar

StartChar: bracketleft
Encoding: 59 91 59
GlifName: bracketleft
Width: 409
VWidth: 0
Flags: W
LayerCount: 2
Back
Fore
SplineSet
333 -319 m 257
NamedP: "hr00"
 333 -265 l 257
 181 -265 l 257
 181 842 l 257
 333 842 l 257
 333 895 l 257
 75 895 l 257
 75 -319 l 257
 333 -319 l 257
NamedP: "hr00"
EndSplineSet
PickledDataWithLists: "(dp1
S'com.adobe.type.autohint'
p2
(S'data'
S'<data>\\n  <hintSetList>\\n    <hintset pointTag=\"hr00\">\\n      <hstem pos=\"-319\" width=\"54\"/>\\n      <hstem pos=\"842\" width=\"53\"/>\\n      <vstem pos=\"75\" width=\"106\"/>\\n    </hintset>\\n  </hintSetList>\\n  </data>'
Ntp3
s."
EndChar

StartChar: backslash
Encoding: 60 92 60
GlifName: backslash
Width: 644
VWidth: 0
Flags: W
LayerCount: 2
Back
Fore
SplineSet
168 834 m 257
NamedP: "hr00"
 75 834 l 257
 475 -238 l 257
 568 -238 l 257
 168 834 l 257
NamedP: "hr00"
EndSplineSet
PickledDataWithLists: "(dp1
S'com.adobe.type.autohint'
p2
(S'data'
S'<data>\\n  <hintSetList>\\n    <hintset pointTag=\"hr00\">\\n      <hstem pos=\"-238\" width=\"1072\"/>\\n      <vstem pos=\"75\" width=\"493\"/>\\n    </hintset>\\n  </hintSetList>\\n  </data>'
Ntp3
s."
EndChar

StartChar: bracketright
Encoding: 61 93 61
GlifName: bracketright
Width: 409
VWidth: 0
Flags: W
LayerCount: 2
Back
Fore
SplineSet
333 895 m 257
NamedP: "hr00"
 75 895 l 257
 75 842 l 257
 227 842 l 257
 227 -265 l 257
 75 -265 l 257
 75 -319 l 257
 333 -319 l 257
 333 895 l 257
NamedP: "hr00"
EndSplineSet
PickledDataWithLists: "(dp1
S'com.adobe.type.autohint'
p2
(S'data'
S'<data>\\n  <hintSetList>\\n    <hintset pointTag=\"hr00\">\\n      <hstem pos=\"-319\" width=\"54\"/>\\n      <hstem pos=\"842\" width=\"53\"/>\\n      <vstem pos=\"227\" width=\"106\"/>\\n    </hintset>\\n  </hintSetList>\\n  </data>'
Ntp3
s."
EndChar

StartChar: asciicircum
Encoding: 62 94 62
GlifName: asciicircum
Width: 634
VWidth: 0
Flags: W
LayerCount: 2
Back
Fore
SplineSet
75 162 m 257
NamedP: "hr00"
 110 162 l 257
 318 391 l 257
 523 162 l 257
 557 162 l 257
 359 514 l 257
 271 514 l 257
 75 162 l 257
NamedP: "hr00"
EndSplineSet
PickledDataWithLists: "(dp1
S'com.adobe.type.autohint'
p2
(S'data'
S'<data>\\n  <hintSetList>\\n    <hintset pointTag=\"hr00\">\\n      <hstem pos=\"162\" width=\"352\"/>\\n      <vstem pos=\"75\" width=\"482\"/>\\n    </hintset>\\n  </hintSetList>\\n  </data>'
Ntp3
s."
EndChar

StartChar: underscore
Encoding: 63 95 63
GlifName: underscore
Width: 750
VWidth: 0
Flags: W
LayerCount: 2
Back
Fore
SplineSet
66 -484 m 257
NamedP: "hr00"
 680 -484 l 257
 680 -444 l 257
 66 -444 l 257
 66 -484 l 257
NamedP: "hr00"
EndSplineSet
PickledDataWithLists: "(dp1
S'com.adobe.type.autohint'
p2
(S'data'
S'<data>\\n  <hintSetList>\\n    <hintset pointTag=\"hr00\">\\n      <hstem pos=\"-484\" width=\"40\"/>\\n      <vstem pos=\"66\" width=\"614\"/>\\n    </hintset>\\n  </hintSetList>\\n  </data>'
Ntp3
s."
EndChar

StartChar: graveaccent
Encoding: 64 96 64
GlifName: graveaccent
Width: 348
VWidth: 0
Flags: W
LayerCount: 2
Back
Fore
SplineSet
233 661 m 257
NamedP: "hr00"
 272 661 l 257
 207 950 l 257
 75 950 l 257
 233 661 l 257
NamedP: "hr00"
EndSplineSet
PickledDataWithLists: "(dp1
S'com.adobe.type.autohint'
p2
(S'data'
S'<data>\\n  <hintSetList>\\n    <hintset pointTag=\"hr00\">\\n      <hstem pos=\"661\" width=\"289\"/>\\n      <vstem pos=\"75\" width=\"197\"/>\\n    </hintset>\\n  </hintSetList>\\n  </data>'
Ntp3
s."
EndChar

StartChar: a
Encoding: 65 97 65
GlifName: a
Width: 415
VWidth: 0
Flags: W
LayerCount: 2
Back
Fore
SplineSet
189 54 m 256
NamedP: "hr00"
 170 54 154 61 139 75 c 256
 126 88 119 104 119 123 c 256
 119 147 133 170 160 193 c 256
 187 216 221 234 262 246 c 257
 262 99 l 257
 249 85 237 74 226 67 c 256
 213 58 201 54 189 54 c 256
NamedP: "hr00"
124 -1 m 256
 156 -1 185 3 210 13 c 256
 235 23 253 37 262 52 c 257
 263 39 269 27 281 16 c 256
 292 5 306 -1 321 -1 c 256
 341 -1 359 5 374 16 c 256
 390 27 402 43 409 62 c 257
 393 68 l 257
 383 56 l 257
 378 53 373 52 370 52 c 256
 361 52 354 55 347 60 c 257
 342 66 340 73 340 82 c 258
 340 293 l 258
 340 334 327 365 301 386 c 256
 276 407 239 418 191 418 c 256
 154 418 123 409 98 390 c 257
 71 373 58 351 58 326 c 256
 58 315 62 305 69 296 c 257
 78 288 87 284 98 284 c 256
 109 284 119 287 126 293 c 256
 134 300 138 309 138 318 c 256
 138 321 137 326 136 335 c 258
 132 359 l 257
 132 368 137 376 148 383 c 257
 160 389 174 392 191 392 c 256
 210 392 227 387 241 376 c 256
 255 365 262 351 262 335 c 258
 262 275 l 257
 196 257 142 234 99 202 c 256
 56 170 34 134 34 98 c 256
 34 71 43 47 61 28 c 256
 78 9 99 -1 124 -1 c 256
EndSplineSet
PickledDataWithLists: "(dp1
S'com.adobe.type.autohint'
p2
(S'data'
S'<data>\\n  <hintSetList>\\n    <hintset pointTag=\"hr00\">\\n      <hstem pos=\"20\" width=\"-21\"/>\\n      <hstem pos=\"-1\" width=\"55\"/>\\n      <hstem pos=\"392\" width=\"26\"/>\\n      <vstem pos=\"34\" width=\"85\"/>\\n      <vstem pos=\"58\" width=\"74\"/>\\n      <vstem pos=\"262\" width=\"78\"/>\\n    </hintset>\\n  </hintSetList>\\n  </data>'
Ntp3
s."
EndChar

StartChar: b
Encoding: 66 98 66
GlifName: b
Width: 465
VWidth: 0
Flags: W
LayerCount: 2
Back
Fore
SplineSet
224 31 m 256
NamedP: "hr00"
 209 31 194 34 181 39 c 257
 167 46 155 56 146 67 c 257
 146 317 l 257
 157 331 170 342 185 349 c 256
 198 356 212 360 226 360 c 256
 258 360 286 346 310 317 c 256
 333 288 345 254 345 213 c 256
 345 162 334 119 310 83 c 256
 287 48 257 31 224 31 c 256
NamedP: "hr00"
207 -1 m 256
 269 -1 322 22 364 68 c 256
 407 115 427 171 427 236 c 256
 427 286 411 329 382 364 c 256
 352 400 317 418 274 418 c 256
 249 418 226 412 203 401 c 256
 180 390 161 376 146 360 c 257
 146 614 l 257
 12 579 l 257
 12 560 l 257
 31 560 l 258
 41 560 50 557 59 551 c 256
 66 546 69 538 69 529 c 258
 69 57 l 257
 86 38 106 24 129 13 c 257
 154 4 180 -1 207 -1 c 256
EndSplineSet
PickledDataWithLists: "(dp1
S'com.adobe.type.autohint'
p2
(S'data'
S'<data>\\n  <hintSetList>\\n    <hintset pointTag=\"hr00\">\\n      <hstem pos=\"-1\" width=\"32\"/>\\n      <hstem pos=\"360\" width=\"58\"/>\\n      <hstem pos=\"560\" width=\"19\"/>\\n      <hstem pos=\"614\" width=\"-20\"/>\\n      <vstem pos=\"69\" width=\"77\"/>\\n      <vstem pos=\"345\" width=\"82\"/>\\n    </hintset>\\n  </hintSetList>\\n  </data>'
Ntp3
s."
EndChar

StartChar: c
Encoding: 67 99 67
GlifName: c
Width: 410
VWidth: 0
Flags: W
LayerCount: 2
Back
Fore
SplineSet
224 -1 m 256
NamedP: "hr00"
 263 -1 297 12 327 37 c 256
 356 62 376 94 387 135 c 257
 371 145 l 257
 356 121 338 102 316 89 c 256
 291 75 265 68 238 68 c 256
 203 68 173 85 148 120 c 256
 123 155 110 196 110 245 c 256
 110 285 122 319 146 347 c 256
 170 375 198 389 229 389 c 256
 244 389 257 384 268 373 c 256
 279 363 286 350 289 335 c 257
 290 322 296 312 305 304 c 256
 314 295 325 291 336 291 c 256
 346 291 355 295 363 304 c 256
 370 313 374 323 374 335 c 256
 374 358 361 377 336 393 c 256
 311 410 281 418 246 418 c 256
 190 418 142 397 101 355 c 256
 61 313 41 263 41 204 c 256
 41 148 58 99 94 59 c 256
 130 18 175 -1 224 -1 c 256
NamedP: "hr00"
EndSplineSet
PickledDataWithLists: "(dp1
S'com.adobe.type.autohint'
p2
(S'data'
S'<data>\\n  <hintSetList>\\n    <hintset pointTag=\"hr00\">\\n      <hstem pos=\"-1\" width=\"69\"/>\\n      <hstem pos=\"389\" width=\"29\"/>\\n      <vstem pos=\"41\" width=\"69\"/>\\n    </hintset>\\n  </hintSetList>\\n  </data>'
Ntp3
s."
EndChar

StartChar: d
Encoding: 68 100 68
GlifName: d
Width: 471
VWidth: 0
Flags: W
LayerCount: 2
Back
Fore
SplineSet
237 47 m 256
NamedP: "hr00"
 206 47 178 66 155 104 c 256
 132 143 120 190 120 245 c 256
 120 285 131 319 153 347 c 256
 174 375 200 389 230 389 c 256
 248 389 264 384 279 373 c 256
 295 362 308 348 319 329 c 257
 319 91 l 257
 307 77 294 66 280 58 c 256
 267 51 252 47 237 47 c 256
NamedP: "hr00"
205 -1 m 256
 230 -1 252 2 273 11 c 256
 292 19 308 31 319 43 c 257
 319 -2 l 257
 453 40 l 257
 453 60 l 257
 437 60 422 66 411 78 c 256
 399 91 395 106 395 123 c 258
 395 614 l 257
 261 579 l 257
 261 560 l 257
 280 560 l 258
 291 560 300 558 308 553 c 256
 315 549 319 544 319 537 c 258
 319 388 l 257
 308 397 295 404 279 410 c 256
 264 415 247 418 230 418 c 256
 179 418 133 397 96 355 c 256
 59 313 42 263 42 204 c 256
 42 148 58 100 91 59 c 256
 122 19 160 -1 205 -1 c 256
EndSplineSet
PickledDataWithLists: "(dp1
S'com.adobe.type.autohint'
p2
(S'data'
S'<data>\\n  <hintSetList>\\n    <hintset pointTag=\"hr00\">\\n      <hstem pos=\"-1\" width=\"48\"/>\\n      <hstem pos=\"40\" width=\"20\"/>\\n      <hstem pos=\"389\" width=\"29\"/>\\n      <hstem pos=\"560\" width=\"19\"/>\\n      <hstem pos=\"614\" width=\"-20\"/>\\n      <vstem pos=\"42\" width=\"78\"/>\\n      <vstem pos=\"319\" width=\"76\"/>\\n    </hintset>\\n  </hintSetList>\\n  </data>'
Ntp3
s."
EndChar

StartChar: e
Encoding: 69 101 69
GlifName: e
Width: 432
VWidth: 0
Flags: W
LayerCount: 2
Back
Fore
SplineSet
108 229 m 257
NamedP: "hr00"
 118 284 133 325 152 351 c 256
 169 376 189 389 211 389 c 256
 234 389 254 376 272 351 c 256
 291 325 304 293 311 255 c 257
 108 255 l 257
 108 229 l 257
NamedP: "hr00"
215 -1 m 256
 261 -1 302 12 338 39 c 256
 374 67 398 103 410 147 c 257
 394 158 l 257
 377 129 356 108 332 92 c 256
 308 77 284 68 257 68 c 256
 217 68 183 83 155 114 c 256
 126 146 112 183 112 226 c 257
 389 226 l 257
 389 281 371 326 338 362 c 256
 304 399 264 418 216 418 c 256
 168 418 127 398 94 358 c 256
 60 317 43 268 43 213 c 256
 43 154 60 103 94 61 c 256
 127 20 168 -1 215 -1 c 256
EndSplineSet
PickledDataWithLists: "(dp1
S'com.adobe.type.autohint'
p2
(S'data'
S'<data>\\n  <hintSetList>\\n    <hintset pointTag=\"hr00\">\\n      <hstem pos=\"-1\" width=\"69\"/>\\n      <hstem pos=\"226\" width=\"29\"/>\\n      <hstem pos=\"389\" width=\"29\"/>\\n      <vstem pos=\"43\" width=\"69\"/>\\n    </hintset>\\n  </hintSetList>\\n  </data>'
Ntp3
s."
EndChar

StartChar: f
Encoding: 70 102 70
GlifName: f
Width: 266
VWidth: 0
Flags: W
LayerCount: 2
Back
Fore
SplineSet
9 8 m 257
NamedP: "hr00"
 242 8 l 257
 242 27 l 257
 223 27 l 258
 206 27 190 31 177 40 c 256
 166 49 160 61 160 74 c 258
 160 381 l 257
 265 381 l 257
 265 410 l 257
 160 410 l 257
 160 537 l 258
 160 550 164 561 172 570 c 256
 180 579 190 584 202 584 c 256
 212 584 222 581 231 576 c 256
 240 570 247 562 254 553 c 257
 260 542 266 534 273 529 c 256
 281 522 289 518 296 518 c 256
 305 518 313 522 320 529 c 256
 327 535 331 543 331 554 c 256
 331 570 321 584 300 596 c 256
 281 607 258 613 231 613 c 256
 192 613 156 597 126 563 c 256
 96 530 82 491 82 448 c 258
 82 410 l 257
 9 410 l 257
 9 381 l 257
 82 381 l 257
 82 74 l 258
 82 61 77 49 67 40 c 256
 56 31 43 27 28 27 c 258
 9 27 l 257
 9 9 l 257
 9 8 l 257
NamedP: "hr00"
EndSplineSet
PickledDataWithLists: "(dp1
S'com.adobe.type.autohint'
p2
(S'data'
S'<data>\\n  <hintSetList>\\n    <hintset pointTag=\"hr00\">\\n      <hstem pos=\"8\" width=\"19\"/>\\n      <hstem pos=\"381\" width=\"29\"/>\\n      <hstem pos=\"584\" width=\"29\"/>\\n      <vstem pos=\"82\" width=\"78\"/>\\n    </hintset>\\n  </hintSetList>\\n  </data>'
Ntp3
s."
EndChar

StartChar: g
Encoding: 71 103 71
GlifName: g
Width: 414
VWidth: 0
Flags: W
LayerCount: 2
Back
Fore
SplineSet
220 170 m 256
NamedP: "hr00"
 195 170 173 183 154 209 c 256
 135 236 125 270 125 309 c 256
 125 330 131 348 144 363 c 256
 157 377 172 384 189 384 c 256
 215 384 237 370 256 343 c 256
 275 317 285 284 285 245 c 256
 285 224 279 206 267 192 c 256
 254 177 238 170 220 170 c 256
NamedP: "hr00"
211 -135 m 256
 176 -135 145 -129 120 -117 c 256
 93 -104 80 -89 80 -72 c 256
 80 -65 84 -55 91 -42 c 257
 124 3 l 257
 246 -1 l 258
 288 -2 321 -5 344 -14 c 256
 365 -23 375 -36 375 -52 c 256
 375 -72 358 -91 324 -109 c 256
 290 -126 252 -135 211 -135 c 256
163 -188 m 256
 236 -188 294 -175 338 -146 c 256
 381 -118 402 -79 402 -32 c 256
 402 -2 386 22 354 38 c 256
 323 54 276 60 213 60 c 256
 184 60 160 63 140 69 c 256
 120 75 110 82 110 90 c 256
 110 97 120 111 143 134 c 258
 156 147 l 257
 167 143 186 141 213 141 c 256
 252 141 285 154 313 181 c 256
 340 208 354 240 354 278 c 256
 354 297 353 314 347 329 c 257
 345 344 341 355 335 360 c 257
 402 360 l 257
 402 393 l 257
 311 393 l 257
 284 410 245 418 196 418 c 256
 156 418 121 405 92 379 c 256
 63 352 48 321 48 286 c 256
 48 255 56 227 71 203 c 256
 86 178 105 162 128 155 c 257
 105 140 88 123 74 106 c 256
 60 88 52 73 52 58 c 256
 52 47 57 37 66 28 c 257
 73 19 83 13 94 8 c 257
 69 -7 49 -23 32 -42 c 256
 16 -61 8 -79 8 -97 c 256
 8 -122 24 -144 55 -162 c 256
 85 -179 121 -188 163 -188 c 256
EndSplineSet
PickledDataWithLists: "(dp1
S'com.adobe.type.autohint'
p2
(S'data'
S'<data>\\n  <hintSetList>\\n    <hintset pointTag=\"hr00\">\\n      <hstem pos=\"-188\" width=\"53\"/>\\n      <hstem pos=\"-1\" width=\"61\"/>\\n      <hstem pos=\"141\" width=\"29\"/>\\n      <hstem pos=\"360\" width=\"33\"/>\\n      <hstem pos=\"384\" width=\"34\"/>\\n      <vstem pos=\"8\" width=\"72\"/>\\n      <vstem pos=\"48\" width=\"77\"/>\\n      <vstem pos=\"285\" width=\"69\"/>\\n      <vstem pos=\"375\" width=\"27\"/>\\n    </hintset>\\n  </hintSetList>\\n  </data>'
Ntp3
s."
EndChar

StartChar: h
Encoding: 72 104 72
GlifName: h
Width: 460
VWidth: 0
Flags: W
LayerCount: 2
Back
Fore
SplineSet
19 8 m 257
NamedP: "hr00"
 210 8 l 257
 210 27 l 257
 192 27 l 258
 182 27 173 31 164 40 c 257
 157 49 153 61 153 74 c 258
 153 305 l 257
 166 323 181 339 197 349 c 256
 214 360 231 364 249 364 c 256
 266 364 281 358 294 347 c 257
 306 334 312 318 312 301 c 258
 312 74 l 258
 312 61 309 49 303 40 c 256
 298 31 290 27 281 27 c 258
 264 27 l 257
 264 8 l 257
 446 8 l 257
 446 27 l 257
 428 27 l 258
 417 27 408 31 401 40 c 256
 393 49 389 61 389 74 c 258
 389 301 l 258
 389 334 378 361 356 383 c 256
 333 406 305 418 273 418 c 256
 248 418 225 411 203 398 c 256
 181 385 164 369 153 350 c 257
 153 614 l 257
 19 579 l 257
 19 560 l 257
 38 560 l 258
 48 560 57 556 66 548 c 257
 73 540 76 531 76 521 c 258
 76 82 l 258
 76 67 72 54 64 42 c 256
 57 32 48 27 38 27 c 258
 19 27 l 257
 19 9 l 257
 19 8 l 257
NamedP: "hr00"
EndSplineSet
PickledDataWithLists: "(dp1
S'com.adobe.type.autohint'
p2
(S'data'
S'<data>\\n  <hintSetList>\\n    <hintset pointTag=\"hr00\">\\n      <hstem pos=\"8\" width=\"19\"/>\\n      <hstem pos=\"364\" width=\"54\"/>\\n      <hstem pos=\"560\" width=\"19\"/>\\n      <hstem pos=\"614\" width=\"-20\"/>\\n      <vstem pos=\"76\" width=\"77\"/>\\n      <vstem pos=\"312\" width=\"77\"/>\\n    </hintset>\\n  </hintSetList>\\n  </data>'
Ntp3
s."
EndChar

StartChar: i
Encoding: 73 105 73
GlifName: i
Width: 231
VWidth: 0
Flags: W
LayerCount: 2
Back
Fore
SplineSet
117 518 m 256
NamedP: "hr00"
 130 518 141 523 150 533 c 257
 157 544 161 556 161 570 c 256
 161 581 157 591 150 600 c 257
 141 609 131 613 119 613 c 256
 106 613 95 609 86 600 c 256
 77 591 73 581 73 570 c 256
 73 556 77 544 86 533 c 256
 95 523 105 518 117 518 c 256
NamedP: "hr00"
16 8 m 257
 215 8 l 257
 215 27 l 257
 197 27 l 258
 187 27 178 31 170 40 c 256
 163 49 159 61 159 74 c 258
 159 419 l 257
 16 371 l 257
 16 357 l 257
 58 357 l 258
 65 357 71 355 75 350 c 256
 79 345 81 340 81 335 c 258
 81 74 l 258
 81 61 77 49 68 40 c 256
 59 31 48 27 35 27 c 258
 16 27 l 257
 16 9 l 257
 16 8 l 257
EndSplineSet
PickledDataWithLists: "(dp1
S'com.adobe.type.autohint'
p2
(S'data'
S'<data>\\n  <hintSetList>\\n    <hintset pointTag=\"hr00\">\\n      <hstem pos=\"8\" width=\"19\"/>\\n      <hstem pos=\"357\" width=\"14\"/>\\n      <hstem pos=\"419\" width=\"-20\"/>\\n      <hstem pos=\"613\" width=\"-20\"/>\\n      <vstem pos=\"73\" width=\"88\"/>\\n      <vstem pos=\"81\" width=\"78\"/>\\n    </hintset>\\n  </hintSetList>\\n  </data>'
Ntp3
s."
EndChar

StartChar: j
Encoding: 74 106 74
GlifName: j
Width: 226
VWidth: 0
Flags: W
LayerCount: 2
Back
Fore
SplineSet
110 518 m 256
NamedP: "hr00"
 122 518 133 523 142 533 c 257
 150 544 154 556 154 570 c 256
 154 581 150 591 142 600 c 256
 133 609 123 613 112 613 c 256
 100 613 90 609 81 600 c 256
 73 591 69 581 69 570 c 256
 69 556 73 544 81 533 c 257
 90 523 99 518 110 518 c 256
NamedP: "hr00"
12 -188 m 256
 55 -188 88 -173 114 -142 c 256
 140 -111 154 -71 154 -23 c 258
 154 419 l 257
 3 368 l 257
 3 341 l 257
 17 352 32 357 47 357 c 256
 56 357 63 353 69 346 c 257
 74 337 77 328 77 318 c 258
 77 -81 l 258
 77 -101 73 -118 65 -132 c 256
 57 -145 48 -152 39 -152 c 256
 32 -152 25 -150 18 -147 c 256
 11 -145 5 -141 0 -136 c 257
 -31 -112 l 258
 -39 -106 -46 -103 -51 -103 c 256
 -59 -103 -66 -106 -73 -113 c 257
 -78 -120 -81 -128 -81 -137 c 256
 -81 -151 -72 -164 -53 -174 c 256
 -35 -184 -13 -188 12 -188 c 256
EndSplineSet
PickledDataWithLists: "(dp1
S'com.adobe.type.autohint'
p2
(S'data'
S'<data>\\n  <hintSetList>\\n    <hintset pointTag=\"hr00\">\\n      <hstem pos=\"-188\" width=\"36\"/>\\n      <hstem pos=\"419\" width=\"-20\"/>\\n      <hstem pos=\"613\" width=\"-20\"/>\\n      <vstem pos=\"69\" width=\"85\"/>\\n      <vstem pos=\"77\" width=\"77\"/>\\n    </hintset>\\n  </hintSetList>\\n  </data>'
Ntp3
s."
EndChar

StartChar: k
Encoding: 75 107 75
GlifName: k
Width: 456
VWidth: 0
Flags: W
LayerCount: 2
Back
Fore
SplineSet
11 8 m 257
NamedP: "hr00"
 218 8 l 257
 218 27 l 257
 199 27 l 258
 188 27 177 31 167 38 c 257
 158 47 154 56 154 67 c 258
 154 218 l 257
 276 64 l 257
 289 50 l 257
 291 46 292 43 292 41 c 256
 292 38 291 34 289 31 c 256
 288 28 285 27 281 27 c 258
 262 27 l 257
 262 8 l 257
 454 8 l 257
 454 27 l 257
 436 27 l 258
 427 27 416 31 403 38 c 256
 390 45 377 55 364 68 c 257
 219 261 l 257
 323 357 l 257
 332 367 344 376 359 381 c 256
 375 387 392 389 411 389 c 258
 430 389 l 257
 430 410 l 257
 247 410 l 257
 247 389 l 257
 270 389 l 258
 275 389 279 388 283 387 c 257
 286 385 288 384 288 383 c 256
 288 380 288 376 287 373 c 256
 286 370 286 369 285 368 c 258
 154 245 l 257
 154 614 l 257
 11 579 l 257
 11 560 l 257
 38 560 l 258
 48 560 57 556 64 548 c 256
 72 540 76 531 76 521 c 258
 76 67 l 258
 76 56 72 47 63 38 c 257
 54 31 43 27 30 27 c 258
 11 27 l 257
 11 9 l 257
 11 8 l 257
NamedP: "hr00"
EndSplineSet
PickledDataWithLists: "(dp1
S'com.adobe.type.autohint'
p2
(S'data'
S'<data>\\n  <hintSetList>\\n    <hintset pointTag=\"hr00\">\\n      <hstem pos=\"8\" width=\"19\"/>\\n      <hstem pos=\"389\" width=\"21\"/>\\n      <hstem pos=\"560\" width=\"19\"/>\\n      <hstem pos=\"614\" width=\"-20\"/>\\n      <vstem pos=\"76\" width=\"78\"/>\\n      <vstem pos=\"247\" width=\"183\"/>\\n    </hintset>\\n  </hintSetList>\\n  </data>'
Ntp3
s."
EndChar

StartChar: l
Encoding: 76 108 76
GlifName: l
Width: 227
VWidth: 0
Flags: W
LayerCount: 2
Back
Fore
SplineSet
11 8 m 257
NamedP: "hr00"
 218 8 l 257
 218 27 l 257
 199 27 l 258
 188 27 177 31 167 40 c 256
 158 49 154 61 154 74 c 258
 154 614 l 257
 11 579 l 257
 11 560 l 257
 46 560 l 258
 55 560 61 556 66 548 c 257
 73 540 76 531 76 521 c 258
 76 74 l 258
 76 61 72 49 63 40 c 256
 54 31 43 27 30 27 c 258
 11 27 l 257
 11 9 l 257
 11 8 l 257
NamedP: "hr00"
EndSplineSet
PickledDataWithLists: "(dp1
S'com.adobe.type.autohint'
p2
(S'data'
S'<data>\\n  <hintSetList>\\n    <hintset pointTag=\"hr00\">\\n      <hstem pos=\"8\" width=\"19\"/>\\n      <hstem pos=\"560\" width=\"19\"/>\\n      <hstem pos=\"614\" width=\"-20\"/>\\n      <vstem pos=\"76\" width=\"78\"/>\\n    </hintset>\\n  </hintSetList>\\n  </data>'
Ntp3
s."
EndChar

StartChar: m
Encoding: 77 109 77
GlifName: m
Width: 708
VWidth: 0
Flags: W
LayerCount: 2
Back
Fore
SplineSet
17 8 m 257
NamedP: "hr00"
 216 8 l 257
 216 27 l 257
 198 27 l 258
 188 27 179 31 171 40 c 256
 164 49 160 61 160 74 c 258
 160 318 l 257
 170 333 184 345 202 355 c 256
 219 364 237 368 258 368 c 256
 275 368 288 362 299 351 c 256
 312 339 318 326 318 309 c 258
 318 74 l 258
 318 61 314 49 307 40 c 256
 299 31 290 27 279 27 c 258
 262 27 l 257
 262 8 l 257
 460 8 l 257
 460 27 l 257
 442 27 l 258
 429 27 418 31 409 40 c 256
 400 49 396 61 396 74 c 258
 396 312 l 257
 407 329 421 343 439 353 c 256
 455 363 472 368 490 368 c 256
 510 368 527 361 542 347 c 257
 555 332 562 314 562 293 c 258
 562 74 l 258
 562 61 558 49 550 40 c 256
 543 31 534 27 523 27 c 258
 505 27 l 257
 505 8 l 257
 696 8 l 257
 696 27 l 257
 678 27 l 258
 668 27 659 31 650 40 c 257
 643 49 639 61 639 74 c 258
 639 286 l 258
 639 321 628 352 607 379 c 256
 587 405 562 418 532 418 c 256
 503 418 475 412 448 400 c 256
 422 389 401 373 385 353 c 257
 374 372 359 388 340 400 c 256
 323 412 304 418 283 418 c 256
 264 418 243 412 221 402 c 256
 200 392 180 380 160 363 c 257
 160 418 l 257
 17 377 l 257
 17 357 l 257
 52 357 l 258
 61 357 68 354 74 348 c 256
 79 342 82 335 82 326 c 258
 82 74 l 258
 82 61 78 49 69 40 c 256
 60 31 49 27 36 27 c 258
 17 27 l 257
 17 9 l 257
 17 8 l 257
NamedP: "hr00"
EndSplineSet
PickledDataWithLists: "(dp1
S'com.adobe.type.autohint'
p2
(S'data'
S'<data>\\n  <hintSetList>\\n    <hintset pointTag=\"hr00\">\\n      <hstem pos=\"8\" width=\"19\"/>\\n      <hstem pos=\"357\" width=\"20\"/>\\n      <hstem pos=\"368\" width=\"50\"/>\\n      <vstem pos=\"82\" width=\"78\"/>\\n      <vstem pos=\"318\" width=\"78\"/>\\n      <vstem pos=\"562\" width=\"77\"/>\\n    </hintset>\\n  </hintSetList>\\n  </data>'
Ntp3
s."
EndChar

StartChar: n
Encoding: 78 110 78
GlifName: n
Width: 454
VWidth: 0
Flags: W
LayerCount: 2
Back
Fore
SplineSet
22 8 m 257
NamedP: "hr00"
 213 8 l 257
 213 27 l 257
 195 27 l 258
 185 27 176 31 167 40 c 257
 160 49 156 61 156 74 c 258
 156 312 l 257
 171 329 186 343 201 353 c 256
 217 363 231 368 244 368 c 256
 261 368 276 362 288 349 c 256
 301 336 307 320 307 301 c 258
 307 74 l 258
 307 61 304 49 298 40 c 256
 292 31 285 27 276 27 c 258
 258 27 l 257
 258 8 l 257
 441 8 l 257
 441 27 l 257
 422 27 l 258
 411 27 402 31 395 40 c 256
 388 49 384 61 384 74 c 258
 384 301 l 258
 384 334 374 361 354 383 c 256
 333 406 309 418 281 418 c 256
 258 418 236 412 213 400 c 256
 190 389 171 374 156 356 c 257
 156 418 l 257
 22 377 l 257
 22 357 l 257
 49 357 l 258
 57 357 64 353 71 346 c 257
 76 337 79 328 79 318 c 258
 79 74 l 258
 79 61 75 49 67 40 c 256
 60 31 51 27 41 27 c 258
 22 27 l 257
 22 9 l 257
 22 8 l 257
NamedP: "hr00"
EndSplineSet
PickledDataWithLists: "(dp1
S'com.adobe.type.autohint'
p2
(S'data'
S'<data>\\n  <hintSetList>\\n    <hintset pointTag=\"hr00\">\\n      <hstem pos=\"8\" width=\"19\"/>\\n      <hstem pos=\"357\" width=\"20\"/>\\n      <hstem pos=\"368\" width=\"50\"/>\\n      <hstem pos=\"418\" width=\"-20\"/>\\n      <vstem pos=\"79\" width=\"77\"/>\\n      <vstem pos=\"307\" width=\"77\"/>\\n    </hintset>\\n  </hintSetList>\\n  </data>'
Ntp3
s."
EndChar

StartChar: o
Encoding: 79 111 79
GlifName: o
Width: 473
VWidth: 0
Flags: W
LayerCount: 2
Back
Fore
SplineSet
253 27 m 256
NamedP: "hr00"
 217 27 184 46 158 85 c 256
 131 125 119 173 119 228 c 256
 119 273 130 311 150 342 c 256
 170 373 193 389 222 389 c 256
 259 389 291 370 318 333 c 256
 345 296 359 250 359 196 c 256
 359 149 347 110 327 77 c 256
 307 44 283 27 253 27 c 256
NamedP: "hr00"
236 -1 m 256
 292 -1 341 19 379 61 c 256
 417 102 435 154 435 213 c 256
 435 269 417 318 379 358 c 256
 341 399 293 418 238 418 c 256
 183 418 137 398 99 358 c 256
 60 317 41 269 41 213 c 256
 41 154 60 103 99 61 c 256
 137 20 183 -1 236 -1 c 256
EndSplineSet
PickledDataWithLists: "(dp1
S'com.adobe.type.autohint'
p2
(S'data'
S'<data>\\n  <hintSetList>\\n    <hintset pointTag=\"hr00\">\\n      <hstem pos=\"-1\" width=\"28\"/>\\n      <hstem pos=\"389\" width=\"29\"/>\\n      <vstem pos=\"41\" width=\"78\"/>\\n      <vstem pos=\"359\" width=\"76\"/>\\n    </hintset>\\n  </hintSetList>\\n  </data>'
Ntp3
s."
EndChar

StartChar: p
Encoding: 80 112 80
GlifName: p
Width: 468
VWidth: 0
Flags: W
LayerCount: 2
Back
Fore
SplineSet
240 27 m 256
NamedP: "hr00"
 220 27 202 32 186 41 c 256
 171 49 160 60 155 74 c 257
 155 312 l 257
 162 329 174 343 190 353 c 256
 207 363 224 368 242 368 c 256
 273 368 298 351 320 320 c 256
 342 288 354 250 354 204 c 256
 354 155 342 114 320 79 c 256
 298 45 273 27 240 27 c 256
NamedP: "hr00"
12 -188 m 257
 228 -188 l 257
 228 -168 l 257
 210 -168 l 258
 195 -168 181 -163 170 -153 c 257
 160 -142 155 -128 155 -113 c 258
 155 23 l 257
 161 18 172 12 189 6 c 256
 206 1 227 -1 250 -1 c 256
 299 -1 342 22 376 68 c 256
 411 115 427 171 427 236 c 256
 427 286 413 329 385 364 c 256
 357 400 323 418 283 418 c 256
 253 418 226 412 203 401 c 256
 180 390 164 377 155 362 c 257
 155 418 l 257
 12 377 l 257
 18 357 l 257
 47 357 l 258
 56 357 64 353 69 346 c 256
 75 337 78 328 78 318 c 258
 78 -113 l 258
 78 -128 74 -142 65 -153 c 257
 55 -163 44 -168 31 -168 c 258
 12 -168 l 257
 12 -187 l 257
 12 -188 l 257
EndSplineSet
PickledDataWithLists: "(dp1
S'com.adobe.type.autohint'
p2
(S'data'
S'<data>\\n  <hintSetList>\\n    <hintset pointTag=\"hr00\">\\n      <hstem pos=\"-188\" width=\"20\"/>\\n      <hstem pos=\"-1\" width=\"28\"/>\\n      <hstem pos=\"368\" width=\"50\"/>\\n      <vstem pos=\"78\" width=\"77\"/>\\n      <vstem pos=\"354\" width=\"73\"/>\\n    </hintset>\\n  </hintSetList>\\n  </data>'
Ntp3
s."
EndChar

StartChar: q
Encoding: 81 113 81
GlifName: q
Width: 474
VWidth: 0
Flags: W
LayerCount: 2
Back
Fore
SplineSet
237 60 m 256
NamedP: "hr00"
 206 60 178 75 155 106 c 256
 132 138 120 176 120 221 c 256
 120 268 133 307 159 339 c 256
 186 372 219 389 256 389 c 256
 269 389 282 385 295 377 c 256
 308 368 318 356 327 341 c 257
 327 99 l 257
 316 87 304 77 289 70 c 256
 274 63 256 60 237 60 c 256
NamedP: "hr00"
254 -188 m 257
 461 -188 l 257
 461 -168 l 257
 442 -168 l 258
 432 -168 423 -163 415 -153 c 257
 408 -142 404 -128 404 -113 c 258
 404 419 l 257
 345 393 l 257
 336 400 323 407 306 412 c 256
 289 416 270 418 247 418 c 256
 191 418 143 396 102 351 c 256
 62 306 42 251 42 188 c 256
 42 136 56 90 87 53 c 256
 117 16 156 -1 199 -1 c 256
 224 -1 248 6 271 16 c 256
 294 26 313 39 327 56 c 257
 327 -113 l 258
 327 -128 322 -142 311 -153 c 256
 300 -163 287 -168 272 -168 c 258
 254 -168 l 257
 254 -187 l 257
 254 -188 l 257
EndSplineSet
PickledDataWithLists: "(dp1
S'com.adobe.type.autohint'
p2
(S'data'
S'<data>\\n  <hintSetList>\\n    <hintset pointTag=\"hr00\">\\n      <hstem pos=\"-188\" width=\"20\"/>\\n      <hstem pos=\"-1\" width=\"61\"/>\\n      <hstem pos=\"389\" width=\"29\"/>\\n      <vstem pos=\"42\" width=\"78\"/>\\n      <vstem pos=\"327\" width=\"77\"/>\\n    </hintset>\\n  </hintSetList>\\n  </data>'
Ntp3
s."
EndChar

StartChar: r
Encoding: 82 114 82
GlifName: r
Width: 320
VWidth: 0
Flags: W
LayerCount: 2
Back
Fore
SplineSet
18 8 m 257
NamedP: "hr00"
 232 8 l 257
 232 27 l 257
 215 27 l 258
 200 27 187 31 175 40 c 256
 164 49 159 61 159 74 c 258
 159 305 l 257
 168 320 178 333 188 343 c 257
 199 352 208 357 215 357 c 256
 220 357 225 356 230 353 c 257
 236 351 241 348 246 345 c 257
 251 340 255 337 260 336 c 257
 265 333 270 332 275 332 c 256
 285 332 294 336 303 345 c 257
 310 354 314 363 314 374 c 256
 314 386 309 396 300 405 c 256
 289 414 277 418 263 418 c 256
 244 418 224 411 204 398 c 256
 185 385 170 369 159 350 c 257
 159 418 l 257
 19 377 l 257
 12 357 l 257
 44 357 l 258
 55 357 64 353 72 346 c 257
 79 337 82 328 82 318 c 258
 82 74 l 258
 82 61 78 49 69 40 c 256
 59 31 48 27 35 27 c 258
 18 27 l 257
 18 9 l 257
 18 8 l 257
NamedP: "hr00"
EndSplineSet
PickledDataWithLists: "(dp1
S'com.adobe.type.autohint'
p2
(S'data'
S'<data>\\n  <hintSetList>\\n    <hintset pointTag=\"hr00\">\\n      <hstem pos=\"8\" width=\"19\"/>\\n      <hstem pos=\"357\" width=\"61\"/>\\n      <hstem pos=\"418\" width=\"-20\"/>\\n      <vstem pos=\"82\" width=\"77\"/>\\n    </hintset>\\n  </hintSetList>\\n  </data>'
Ntp3
s."
EndChar

StartChar: s
Encoding: 83 115 83
GlifName: s
Width: 360
VWidth: 0
Flags: W
LayerCount: 2
Back
Fore
SplineSet
79 8 m 257
NamedP: "hr00"
 94 26 l 257
 104 17 117 11 133 6 c 256
 148 2 165 -1 183 -1 c 256
 221 -1 254 11 282 36 c 256
 309 60 323 89 323 123 c 256
 323 148 314 171 295 192 c 256
 275 213 249 231 216 243 c 256
 187 254 163 267 144 286 c 256
 126 305 117 323 117 342 c 256
 117 355 123 366 134 376 c 256
 145 385 158 389 175 389 c 256
 195 389 214 380 233 361 c 256
 252 342 267 316 279 284 c 257
 299 284 l 257
 291 410 l 257
 271 410 l 257
 270 407 268 404 266 403 c 256
 263 402 259 401 256 401 c 256
 247 401 236 404 222 410 c 257
 206 415 188 418 167 418 c 256
 135 418 109 406 85 384 c 256
 62 362 51 337 51 306 c 256
 51 279 63 256 83 233 c 256
 105 209 132 189 166 177 c 256
 193 167 215 155 230 139 c 256
 246 122 254 106 254 90 c 256
 254 73 248 58 235 46 c 256
 220 33 203 27 183 27 c 256
 158 27 134 38 113 61 c 256
 92 84 78 113 72 150 c 257
 51 150 l 257
 59 8 l 257
 79 8 l 257
NamedP: "hr00"
EndSplineSet
PickledDataWithLists: "(dp1
S'com.adobe.type.autohint'
p2
(S'data'
S'<data>\\n  <hintSetList>\\n    <hintset pointTag=\"hr00\">\\n      <hstem pos=\"-1\" width=\"28\"/>\\n      <hstem pos=\"389\" width=\"29\"/>\\n      <hstem pos=\"410\" width=\"-20\"/>\\n      <vstem pos=\"51\" width=\"272\"/>\\n      <vstem pos=\"51\" width=\"66\"/>\\n      <vstem pos=\"55\" width=\"17\"/>\\n      <vstem pos=\"254\" width=\"69\"/>\\n    </hintset>\\n  </hintSetList>\\n  </data>'
Ntp3
s."
EndChar

StartChar: t
Encoding: 84 116 84
GlifName: t
Width: 267
VWidth: 0
Flags: W
LayerCount: 2
Back
Fore
SplineSet
149 -1 m 256
NamedP: "hr00"
 173 -1 195 3 214 13 c 256
 233 23 248 39 259 58 c 257
 244 68 l 257
 239 61 233 56 225 53 c 257
 218 49 210 47 200 47 c 256
 187 47 176 52 166 61 c 257
 157 72 153 85 153 98 c 258
 153 377 l 257
 243 377 l 257
 243 410 l 257
 153 410 l 257
 153 523 l 257
 133 523 l 257
 124 500 110 477 91 456 c 256
 72 435 48 417 19 400 c 257
 19 372 l 257
 76 372 l 257
 76 90 l 258
 76 65 83 44 98 26 c 256
 113 8 130 -1 149 -1 c 256
NamedP: "hr00"
EndSplineSet
PickledDataWithLists: "(dp1
S'com.adobe.type.autohint'
p2
(S'data'
S'<data>\\n  <hintSetList>\\n    <hintset pointTag=\"hr00\">\\n      <hstem pos=\"20\" width=\"-21\"/>\\n      <hstem pos=\"-1\" width=\"48\"/>\\n      <hstem pos=\"372\" width=\"28\"/>\\n      <hstem pos=\"377\" width=\"33\"/>\\n      <vstem pos=\"76\" width=\"77\"/>\\n    </hintset>\\n  </hintSetList>\\n  </data>'
Ntp3
s."
EndChar

StartChar: u
Encoding: 85 117 85
GlifName: u
Width: 459
VWidth: 0
Flags: W
LayerCount: 2
Back
Fore
SplineSet
189 -1 m 256
NamedP: "hr00"
 216 -1 240 5 262 18 c 256
 284 31 300 45 310 62 c 257
 310 -2 l 257
 444 41 l 257
 444 60 l 257
 417 60 l 258
 409 60 402 63 396 70 c 256
 390 79 387 88 387 98 c 258
 387 410 l 257
 245 410 l 257
 245 389 l 257
 264 389 l 258
 276 389 287 385 296 376 c 256
 305 366 310 355 310 342 c 258
 310 115 l 257
 300 98 287 85 271 74 c 256
 256 65 239 60 222 60 c 256
 203 60 186 67 172 80 c 256
 158 94 151 111 151 131 c 258
 151 410 l 257
 17 410 l 257
 17 389 l 257
 36 389 l 258
 46 389 55 385 64 378 c 256
 71 371 74 362 74 351 c 258
 74 114 l 258
 74 83 85 56 108 33 c 256
 131 10 158 -1 189 -1 c 256
NamedP: "hr00"
EndSplineSet
PickledDataWithLists: "(dp1
S'com.adobe.type.autohint'
p2
(S'data'
S'<data>\\n  <hintSetList>\\n    <hintset pointTag=\"hr00\">\\n      <hstem pos=\"20\" width=\"-21\"/>\\n      <hstem pos=\"-1\" width=\"61\"/>\\n      <hstem pos=\"41\" width=\"19\"/>\\n      <hstem pos=\"389\" width=\"21\"/>\\n      <vstem pos=\"74\" width=\"77\"/>\\n      <vstem pos=\"310\" width=\"77\"/>\\n    </hintset>\\n  </hintSetList>\\n  </data>'
Ntp3
s."
EndChar

StartChar: v
Encoding: 86 118 86
GlifName: v
Width: 424
VWidth: 0
Flags: W
LayerCount: 2
Back
Fore
SplineSet
234 8 m 257
NamedP: "hr00"
 364 325 l 258
 372 344 380 359 390 372 c 256
 399 383 408 389 418 389 c 257
 418 410 l 257
 292 410 l 257
 292 389 l 257
 310 389 l 258
 319 389 327 387 332 384 c 256
 337 382 340 379 340 374 c 256
 340 371 337 361 330 346 c 257
 328 336 l 257
 245 128 l 257
 161 327 l 258
 152 347 150 361 150 367 c 256
 150 374 151 379 153 383 c 256
 156 387 160 389 164 389 c 258
 182 389 l 257
 182 410 l 257
 7 410 l 257
 7 389 l 257
 26 389 l 258
 32 389 40 383 49 372 c 256
 57 361 67 346 80 325 c 257
 222 8 l 257
 234 8 l 257
NamedP: "hr00"
EndSplineSet
PickledDataWithLists: "(dp1
S'com.adobe.type.autohint'
p2
(S'data'
S'<data>\\n  <hintSetList>\\n    <hintset pointTag=\"hr00\">\\n      <hstem pos=\"389\" width=\"21\"/>\\n      <vstem pos=\"7\" width=\"175\"/>\\n      <vstem pos=\"292\" width=\"126\"/>\\n    </hintset>\\n  </hintSetList>\\n  </data>'
Ntp3
s."
EndChar

StartChar: w
Encoding: 87 119 87
GlifName: w
Width: 641
VWidth: 0
Flags: W
LayerCount: 2
Back
Fore
SplineSet
224 8 m 257
NamedP: "hr00"
 328 232 l 257
 424 8 l 257
 443 8 l 257
 574 317 l 258
 583 339 592 357 603 370 c 256
 613 383 624 389 635 389 c 257
 635 410 l 257
 505 410 l 257
 505 389 l 257
 516 389 526 387 533 383 c 256
 540 380 546 375 549 369 c 257
 549 357 543 340 531 319 c 257
 452 136 l 257
 379 319 l 257
 366 368 l 257
 366 374 369 379 374 383 c 256
 379 387 386 389 393 389 c 258
 411 389 l 257
 411 410 l 257
 228 410 l 257
 228 389 l 257
 247 389 l 258
 251 389 256 385 263 377 c 256
 269 370 278 359 286 341 c 258
 310 286 l 257
 231 128 l 257
 152 319 l 258
 143 342 139 360 139 374 c 256
 139 379 142 382 149 384 c 256
 156 387 165 389 176 389 c 257
 176 410 l 257
 9 410 l 257
 9 389 l 257
 22 389 33 383 44 370 c 256
 56 357 65 339 74 317 c 258
 204 8 l 257
 224 8 l 257
NamedP: "hr00"
EndSplineSet
PickledDataWithLists: "(dp1
S'com.adobe.type.autohint'
p2
(S'data'
S'<data>\\n  <hintSetList>\\n    <hintset pointTag=\"hr00\">\\n      <hstem pos=\"389\" width=\"21\"/>\\n      <vstem pos=\"9\" width=\"626\"/>\\n      <vstem pos=\"9\" width=\"167\"/>\\n      <vstem pos=\"228\" width=\"183\"/>\\n      <vstem pos=\"505\" width=\"130\"/>\\n    </hintset>\\n  </hintSetList>\\n  </data>'
Ntp3
s."
EndChar

StartChar: x
Encoding: 88 120 88
GlifName: x
Width: 425
VWidth: 0
Flags: W
LayerCount: 2
Back
Fore
SplineSet
10 8 m 257
NamedP: "hr00"
 144 8 l 257
 144 27 l 257
 125 27 l 258
 122 27 119 28 116 31 c 256
 113 34 112 38 112 41 c 256
 112 46 113 50 114 54 c 256
 115 58 117 62 120 65 c 257
 198 184 l 257
 275 65 l 258
 279 60 282 56 284 52 c 256
 286 48 287 44 287 41 c 256
 287 38 285 34 280 31 c 256
 276 28 271 27 264 27 c 258
 246 27 l 257
 246 8 l 257
 421 8 l 257
 421 27 l 257
 413 27 404 31 394 38 c 256
 384 45 374 55 363 68 c 257
 243 253 l 257
 303 341 l 258
 313 356 325 368 338 377 c 256
 351 385 365 389 380 389 c 257
 380 410 l 257
 246 410 l 257
 246 389 l 257
 264 389 l 258
 267 389 270 388 272 386 c 256
 274 384 275 382 275 379 c 256
 275 370 271 358 263 343 c 257
 220 280 l 257
 182 343 l 257
 172 361 l 258
 169 366 168 369 168 370 c 256
 168 375 170 380 175 383 c 256
 180 387 185 389 191 389 c 258
 209 389 l 257
 209 410 l 257
 18 410 l 257
 18 389 l 257
 31 389 44 386 58 377 c 256
 71 369 84 356 96 341 c 257
 177 216 l 257
 75 68 l 257
 68 55 59 45 48 38 c 256
 37 31 25 27 10 27 c 257
 10 9 l 257
 10 8 l 257
NamedP: "hr00"
EndSplineSet
PickledDataWithLists: "(dp1
S'com.adobe.type.autohint'
p2
(S'data'
S'<data>\\n  <hintSetList>\\n    <hintset pointTag=\"hr00\">\\n      <hstem pos=\"8\" width=\"19\"/>\\n      <hstem pos=\"389\" width=\"21\"/>\\n      <vstem pos=\"10\" width=\"411\"/>\\n      <vstem pos=\"10\" width=\"134\"/>\\n      <vstem pos=\"18\" width=\"191\"/>\\n      <vstem pos=\"246\" width=\"175\"/>\\n      <vstem pos=\"246\" width=\"134\"/>\\n    </hintset>\\n  </hintSetList>\\n  </data>'
Ntp3
s."
EndChar

StartChar: y
Encoding: 89 121 89
GlifName: y
Width: 431
VWidth: 0
Flags: W
LayerCount: 2
Back
Fore
SplineSet
90 -188 m 256
NamedP: "hr00"
 115 -188 139 -177 162 -154 c 256
 185 -132 201 -102 215 -65 c 258
 373 341 l 258
 379 356 386 367 396 376 c 256
 405 385 415 389 427 389 c 257
 427 410 l 257
 301 410 l 257
 301 389 l 257
 319 389 l 258
 326 389 331 387 335 384 c 256
 339 382 341 379 341 374 c 256
 341 362 340 351 337 342 c 258
 249 104 l 257
 142 343 l 258
 139 349 138 355 138 362 c 256
 138 369 140 376 144 382 c 257
 149 387 154 389 160 389 c 258
 191 389 l 257
 191 410 l 257
 8 410 l 257
 8 389 l 257
 20 389 31 385 40 377 c 256
 50 368 58 356 65 341 c 258
 211 17 l 257
 180 -64 l 258
 175 -78 167 -89 159 -97 c 256
 150 -107 141 -112 132 -112 c 256
 130 -112 126 -111 119 -108 c 258
 108 -103 l 258
 94 -97 80 -95 67 -95 c 256
 56 -95 46 -100 37 -109 c 257
 29 -120 25 -132 25 -145 c 256
 25 -157 32 -167 45 -176 c 256
 57 -184 72 -188 90 -188 c 256
NamedP: "hr00"
EndSplineSet
PickledDataWithLists: "(dp1
S'com.adobe.type.autohint'
p2
(S'data'
S'<data>\\n  <hintSetList>\\n    <hintset pointTag=\"hr00\">\\n      <hstem pos=\"-167\" width=\"-21\"/>\\n      <hstem pos=\"-188\" width=\"93\"/>\\n      <hstem pos=\"389\" width=\"21\"/>\\n      <vstem pos=\"8\" width=\"183\"/>\\n      <vstem pos=\"301\" width=\"126\"/>\\n    </hintset>\\n  </hintSetList>\\n  </data>'
Ntp3
s."
EndChar

StartChar: z
Encoding: 90 122 90
GlifName: z
Width: 406
VWidth: 0
Flags: W
LayerCount: 2
Back
Fore
SplineSet
24 8 m 257
NamedP: "hr00"
 370 8 l 257
 377 133 l 257
 358 133 l 257
 353 104 342 81 325 63 c 256
 309 45 291 36 271 36 c 258
 131 36 l 257
 370 390 l 257
 370 410 l 257
 57 410 l 257
 47 299 l 257
 68 299 l 257
 73 324 82 343 97 358 c 256
 112 373 129 381 148 381 c 258
 267 381 l 257
 24 26 l 257
 24 9 l 257
 24 8 l 257
NamedP: "hr00"
EndSplineSet
PickledDataWithLists: "(dp1
S'com.adobe.type.autohint'
p2
(S'data'
S'<data>\\n  <hintSetList>\\n    <hintset pointTag=\"hr00\">\\n      <hstem pos=\"8\" width=\"28\"/>\\n      <hstem pos=\"381\" width=\"29\"/>\\n      <vstem pos=\"52\" width=\"16\"/>\\n      <vstem pos=\"358\" width=\"15\"/>\\n    </hintset>\\n  </hintSetList>\\n  </data>'
Ntp3
s."
EndChar

StartChar: leftcurly
Encoding: 91 123 91
GlifName: leftcurly
Width: 621
VWidth: 0
Flags: W
LayerCount: 2
Back
Fore
SplineSet
75 282 m 257
NamedP: "hr00"
 116 282 152 267 183 238 c 256
 212 210 227 175 227 133 c 258
 227 -29 l 258
 227 -110 258 -179 321 -237 c 256
 382 -294 457 -323 545 -323 c 257
 515 -299 l 257
 464 -299 421 -273 386 -220 c 256
 351 -167 333 -104 333 -29 c 258
 333 133 l 258
 333 165 317 197 283 226 c 256
 249 256 204 278 151 293 c 257
 204 308 249 330 283 361 c 256
 317 391 333 423 333 455 c 258
 333 614 l 258
 333 689 351 754 386 807 c 256
 421 860 464 886 515 886 c 257
 515 910 l 257
 435 910 367 881 312 824 c 256
 255 766 227 696 227 614 c 258
 227 455 l 258
 227 414 212 379 183 350 c 256
 152 320 116 306 75 306 c 257
 75 282 l 257
NamedP: "hr00"
EndSplineSet
PickledDataWithLists: "(dp1
S'com.adobe.type.autohint'
p2
(S'data'
S'<data>\\n  <hintSetList>\\n    <hintset pointTag=\"hr00\">\\n      <hstem pos=\"-323\" width=\"24\"/>\\n      <hstem pos=\"282\" width=\"24\"/>\\n      <hstem pos=\"886\" width=\"24\"/>\\n      <vstem pos=\"227\" width=\"106\"/>\\n    </hintset>\\n  </hintSetList>\\n  </data>'
Ntp3
s."
EndChar

StartChar: bar
Encoding: 92 124 92
GlifName: bar
Width: 232
VWidth: 0
Flags: W
LayerCount: 2
Back
Fore
SplineSet
145 -421 m 257
NamedP: "hr00"
 145 1033 l 257
 64 1033 l 257
 64 -421 l 257
 145 -421 l 257
NamedP: "hr00"
EndSplineSet
PickledDataWithLists: "(dp1
S'com.adobe.type.autohint'
p2
(S'data'
S'<data>\\n  <hintSetList>\\n    <hintset pointTag=\"hr00\">\\n      <hstem pos=\"-421\" width=\"1454\"/>\\n      <vstem pos=\"64\" width=\"81\"/>\\n    </hintset>\\n  </hintSetList>\\n  </data>'
Ntp3
s."
EndChar

StartChar: rightcurly
Encoding: 93 125 93
GlifName: rightcurly
Width: 591
VWidth: 0
Flags: W
LayerCount: 2
Back
Fore
SplineSet
515 299 m 257
NamedP: "hr00"
 474 299 438 314 407 343 c 256
 378 371 363 406 363 448 c 258
 363 607 l 258
 363 689 334 758 278 816 c 256
 222 873 155 903 75 903 c 257
 75 878 l 257
 126 878 169 852 204 799 c 256
 239 746 257 682 257 607 c 258
 257 448 l 258
 257 415 273 383 307 353 c 256
 341 322 386 300 439 285 c 257
 386 270 341 248 307 218 c 256
 273 189 257 157 257 126 c 258
 257 -36 l 258
 257 -111 239 -175 204 -228 c 256
 169 -280 126 -306 75 -306 c 257
 75 -331 l 257
 155 -331 222 -301 278 -244 c 256
 334 -186 363 -117 363 -36 c 258
 363 126 l 258
 363 167 378 202 407 231 c 256
 438 261 474 275 515 275 c 257
 515 299 l 257
NamedP: "hr00"
EndSplineSet
PickledDataWithLists: "(dp1
S'com.adobe.type.autohint'
p2
(S'data'
S'<data>\\n  <hintSetList>\\n    <hintset pointTag=\"hr00\">\\n      <hstem pos=\"-331\" width=\"25\"/>\\n      <hstem pos=\"275\" width=\"24\"/>\\n      <hstem pos=\"878\" width=\"25\"/>\\n      <vstem pos=\"257\" width=\"106\"/>\\n    </hintset>\\n  </hintSetList>\\n  </data>'
Ntp3
s."
EndChar

StartChar: asciitilde
Encoding: 94 126 94
GlifName: asciitilde
Width: 826
VWidth: 0
Flags: W
LayerCount: 2
Back
Fore
SplineSet
86 185 m 257
NamedP: "hr00"
 125 240 190 281 255 281 c 256
 294 281 346 262 413 224 c 256
 480 186 532 167 571 167 c 256
 630 167 701 227 757 328 c 257
 738 347 l 257
 702 294 636 261 569 261 c 256
 531 261 480 279 417 316 c 256
 354 353 305 372 270 372 c 256
 227 372 186 357 148 326 c 256
 111 296 83 256 66 205 c 257
 86 185 l 257
NamedP: "hr00"
EndSplineSet
PickledDataWithLists: "(dp1
S'com.adobe.type.autohint'
p2
(S'data'
S'<data>\\n  <hintSetList>\\n    <hintset pointTag=\"hr00\">\\n      <hstem pos=\"167\" width=\"94\"/>\\n      <hstem pos=\"281\" width=\"91\"/>\\n      <vstem pos=\"66\" width=\"691\"/>\\n    </hintset>\\n  </hintSetList>\\n  </data>'
Ntp3
s."
EndChar

StartChar: uni2018
Encoding: 95 8216 95
GlifName: uni2018
Width: 323
VWidth: 0
Flags: W
LayerCount: 2
Back
Fore
SplineSet
246 554 m 256
NamedP: "hr00"
 246 573 240 590 228 604 c 256
 215 618 199 625 181 625 c 256
 171 625 161 623 151 620 c 256
 141 616 133 612 127 607 c 257
 127 627 135 647 152 667 c 256
 171 688 193 701 219 707 c 257
 204 736 l 257
 161 728 127 707 104 674 c 256
 85 645 75 611 75 572 c 256
 75 545 83 523 98 505 c 256
 115 485 139 475 168 475 c 256
 193 475 212 483 227 498 c 256
 240 512 246 531 246 554 c 256
NamedP: "hr00"
EndSplineSet
PickledDataWithLists: "(dp1
S'com.adobe.type.autohint'
p2
(S'data'
S'<data>\\n  <hintSetList>\\n    <hintset pointTag=\"hr00\">\\n      <hstem pos=\"607\" width=\"-20\"/>\\n      <vstem pos=\"75\" width=\"52\"/>\\n    </hintset>\\n  </hintSetList>\\n  </data>'
Ntp3
s."
EndChar

StartChar: uni2019
Encoding: 96 8217 96
GlifName: uni2019
Width: 323
VWidth: 0
Flags: W
LayerCount: 2
Back
Fore
SplineSet
75 657 m 256
NamedP: "hr00"
 75 638 81 621 93 607 c 256
 106 593 122 586 140 586 c 256
 150 586 160 587 171 590 c 257
 181 594 189 599 195 604 c 257
 195 583 186 563 169 543 c 256
 151 523 129 510 102 504 c 257
 117 475 l 257
 161 483 195 504 218 537 c 256
 237 565 246 599 246 639 c 256
 246 665 239 687 224 705 c 256
 207 726 183 736 154 736 c 256
 129 736 109 728 95 713 c 256
 82 699 75 680 75 657 c 256
NamedP: "hr00"
EndSplineSet
PickledDataWithLists: "(dp1
S'com.adobe.type.autohint'
p2
(S'data'
S'<data>\\n  <hintSetList>\\n    <hintset pointTag=\"hr00\">\\n      <hstem pos=\"475\" width=\"261\"/>\\n      <hstem pos=\"586\" width=\"150\"/>\\n      <vstem pos=\"195\" width=\"51\"/>\\n    </hintset>\\n  </hintSetList>\\n  </data>'
Ntp3
s."
EndChar

StartChar: uni201C
Encoding: 97 8220 97
GlifName: uni201C_
Width: 500
VWidth: 0
Flags: W
LayerCount: 2
Back
Fore
SplineSet
424 470 m 256
NamedP: "hr00"
 424 482 416 497 401 516 c 256
 386 534 378 549 378 561 c 256
 378 588 382 613 391 636 c 257
 398 660 409 681 424 698 c 257
 394 713 l 257
 365 689 342 661 327 630 c 256
 311 597 303 564 303 531 c 256
 303 502 310 477 321 457 c 256
 333 436 346 425 363 425 c 256
 380 425 395 429 406 438 c 256
 418 447 424 458 424 470 c 256
NamedP: "hr00"
196 470 m 256
 196 482 189 497 174 516 c 256
 159 534 151 549 151 561 c 256
 151 588 156 613 163 636 c 256
 171 660 181 681 196 698 c 257
 166 713 l 257
 137 689 114 661 99 630 c 256
 83 597 75 564 75 531 c 256
 75 502 82 477 93 457 c 256
 105 436 119 425 136 425 c 256
 153 425 167 429 178 438 c 256
 190 447 196 458 196 470 c 256
EndSplineSet
PickledDataWithLists: "(dp1
S'com.adobe.type.autohint'
p2
(S'data'
S'<data>\\n  <hintSetList>\\n    <hintset pointTag=\"hr00\">\\n      <hstem pos=\"425\" width=\"288\"/>\\n      <vstem pos=\"75\" width=\"76\"/>\\n      <vstem pos=\"303\" width=\"75\"/>\\n    </hintset>\\n  </hintSetList>\\n  </data>'
Ntp3
s."
EndChar

StartChar: uni201D
Encoding: 98 8221 98
GlifName: uni201D_
Width: 500
VWidth: 0
Flags: W
LayerCount: 2
Back
Fore
SplineSet
303 592 m 256
NamedP: "hr00"
 303 579 310 564 325 546 c 256
 340 528 348 513 348 501 c 256
 348 474 343 449 336 426 c 256
 328 402 318 381 303 364 c 257
 333 349 l 257
 362 373 385 401 400 432 c 256
 416 465 424 498 424 531 c 256
 424 560 417 585 406 605 c 256
 394 626 380 637 363 637 c 256
 346 637 332 632 321 623 c 256
 309 614 303 604 303 592 c 256
NamedP: "hr00"
75 592 m 256
 75 579 83 564 98 546 c 256
 113 528 121 513 121 501 c 256
 121 474 117 449 108 426 c 257
 101 402 90 381 75 364 c 257
 105 349 l 257
 134 373 157 401 172 432 c 256
 188 465 196 498 196 531 c 256
 196 560 189 585 178 605 c 256
 166 626 153 637 136 637 c 256
 119 637 104 632 93 623 c 256
 81 614 75 604 75 592 c 256
EndSplineSet
PickledDataWithLists: "(dp1
S'com.adobe.type.autohint'
p2
(S'data'
S'<data>\\n  <hintSetList>\\n    <hintset pointTag=\"hr00\">\\n      <hstem pos=\"349\" width=\"288\"/>\\n      <vstem pos=\"121\" width=\"75\"/>\\n      <vstem pos=\"348\" width=\"76\"/>\\n    </hintset>\\n  </hintSetList>\\n  </data>'
Ntp3
s."
EndChar

StartChar: uni2022
Encoding: 99 8226 99
GlifName: uni2022
Width: 527
VWidth: 0
Flags: W
LayerCount: 2
Back
Fore
SplineSet
261 325 m 258
NamedP: "hr00"
 254 318 247 314 239 311 c 257
 239 332 243 356 251 382 c 256
 256 398 265 420 276 447 c 256
 285 470 289 483 289 500 c 256
 289 515 283 528 271 541 c 256
 260 552 247 559 232 564 c 257
 196 555 171 530 171 494 c 256
 171 485 174 473 179 458 c 257
 185 448 221 356 221 327 c 258
 221 311 l 257
 206 318 190 330 175 348 c 256
 166 359 154 374 140 394 c 256
 127 414 115 428 106 435 c 256
 92 448 77 454 61 454 c 256
 47 454 34 450 23 443 c 258
 4 430 l 257
 1 402 l 257
 1 375 12 355 33 344 c 256
 45 337 68 332 101 327 c 256
 145 320 185 310 214 293 c 257
 189 278 154 269 121 264 c 258
 79 258 l 258
 56 255 38 248 24 238 c 256
 8 227 0 210 0 189 c 256
 0 181 1 170 4 157 c 257
 27 140 38 133 62 133 c 256
 76 133 89 137 100 146 c 256
 109 153 118 163 127 177 c 256
 146 204 161 222 170 232 c 256
 188 252 205 267 221 277 c 257
 221 270 l 258
 221 239 211 209 197 172 c 258
 186 142 l 257
 177 123 173 107 173 92 c 256
 173 74 178 59 190 46 c 256
 201 35 215 27 232 22 c 257
 268 31 291 57 291 94 c 256
 291 105 289 114 286 122 c 258
 280 139 l 257
 264 175 l 258
 257 191 251 206 247 220 c 256
 241 239 238 254 238 266 c 257
 239 277 l 257
 256 266 274 253 289 234 c 258
 331 181 l 257
 342 164 351 153 360 146 c 256
 372 137 386 133 403 133 c 256
 424 133 440 141 457 157 c 257
 458 162 460 175 460 184 c 256
 460 225 429 253 388 258 c 258
 341 264 l 258
 306 268 274 278 245 293 c 257
 264 304 285 313 310 319 c 257
 320 320 342 324 377 330 c 257
 433 334 460 361 461 399 c 256
 461 408 460 417 457 430 c 257
 436 445 420 453 399 453 c 256
 384 453 371 448 359 438 c 256
 352 433 344 421 331 405 c 258
 308 376 l 257
 261 325 l 258
NamedP: "hr00"
EndSplineSet
PickledDataWithLists: "(dp1
S'com.adobe.type.autohint'
p2
(S'data'
S'<data>\\n  <hintSetList>\\n    <hintset pointTag=\"hr00\">\\n      <hstem pos=\"22\" width=\"542\"/>\\n      <hstem pos=\"133\" width=\"128\"/>\\n      <vstem pos=\"221\" width=\"17\"/>\\n    </hintset>\\n  </hintSetList>\\n  </data>'
Ntp3
s."
EndChar

StartChar: trademark
Encoding: 100 8482 100
GlifName: trademark
Width: 847
VWidth: 0
Flags: W
LayerCount: 2
Back
Fore
SplineSet
334 657 m 257
NamedP: "hr00"
 334 642 l 257
 363 642 371 637 375 626 c 256
 377 621 378 608 378 587 c 258
 378 403 l 258
 378 349 376 355 334 350 c 257
 334 336 l 257
 455 336 l 257
 455 350 l 257
 441 350 l 257
 411 356 404 350 404 403 c 258
 404 594 l 257
 526 336 l 257
 540 336 l 257
 662 597 l 257
 662 402 l 258
 662 352 658 355 614 350 c 257
 614 336 l 257
 773 336 l 257
 773 350 l 257
 753 351 741 355 736 360 c 256
 731 366 729 380 729 403 c 258
 729 588 l 258
 729 642 728 637 773 642 c 257
 773 657 l 257
 662 657 l 257
 557 430 l 257
 448 657 l 257
 334 657 l 257
NamedP: "hr00"
0 577 m 257
 13 577 l 257
 22 618 38 632 89 632 c 258
 120 632 l 257
 120 403 l 258
 120 359 114 354 79 350 c 257
 79 336 l 257
 228 336 l 257
 228 350 l 257
 192 353 186 359 186 403 c 258
 186 632 l 257
 216 632 l 258
 268 632 288 614 293 577 c 257
 306 577 l 257
 298 657 l 257
 9 657 l 257
 0 577 l 257
EndSplineSet
PickledDataWithLists: "(dp1
S'com.adobe.type.autohint'
p2
(S'data'
S'<data>\\n  <hintSetList>\\n    <hintset pointTag=\"hr00\">\\n      <hstem pos=\"336\" width=\"14\"/>\\n      <hstem pos=\"632\" width=\"25\"/>\\n      <hstem pos=\"642\" width=\"15\"/>\\n      <vstem pos=\"120\" width=\"66\"/>\\n      <vstem pos=\"378\" width=\"26\"/>\\n      <vstem pos=\"662\" width=\"67\"/>\\n    </hintset>\\n  </hintSetList>\\n  </data>'
Ntp3
s."
EndChar

StartChar: copyright
Encoding: 101 169 101
GlifName: copyright
Width: 638
VWidth: 0
Flags: W
LayerCount: 2
Back
Fore
SplineSet
412 465 m 257
NamedP: "hr00"
 405 450 401 447 392 447 c 256
 389 447 384 448 377 450 c 256
 336 463 327 465 303 465 c 256
 244 465 196 447 158 410 c 256
 121 374 102 331 102 280 c 256
 102 229 120 187 155 152 c 256
 191 117 236 100 289 100 c 256
 354 100 406 127 443 182 c 257
 428 189 l 257
 397 146 355 125 303 125 c 256
 223 125 169 176 169 291 c 256
 169 332 182 373 198 397 c 256
 219 427 255 447 299 447 c 256
 358 447 401 416 421 353 c 257
 436 353 l 257
 428 465 l 257
 412 465 l 257
NamedP: "hr00"
287 542 m 256
 375 542 465 496 512 412 c 256
 536 370 548 327 548 282 c 256
 548 237 536 193 513 151 c 256
 490 110 457 78 416 55 c 256
 375 32 332 21 287 21 c 256
 242 21 199 32 157 55 c 256
 116 78 83 110 60 151 c 256
 37 193 25 237 25 282 c 256
 25 327 37 370 60 412 c 256
 84 454 117 486 158 508 c 256
 200 531 243 542 287 542 c 256
287 568 m 256
 191 568 91 516 39 424 c 256
 14 379 1 331 1 282 c 256
 1 233 14 185 39 139 c 256
 64 94 99 58 144 33 c 256
 189 8 237 -4 287 -4 c 256
 336 -4 384 8 429 33 c 256
 474 58 509 94 534 139 c 256
 559 185 572 233 572 282 c 256
 572 331 558 379 533 424 c 256
 507 470 472 505 427 530 c 256
 382 555 335 568 287 568 c 256
EndSplineSet
PickledDataWithLists: "(dp1
S'com.adobe.type.autohint'
p2
(S'data'
S'<data>\\n  <hintSetList>\\n    <hintset pointTag=\"hr00\">\\n      <hstem pos=\"-4\" width=\"25\"/>\\n      <hstem pos=\"100\" width=\"25\"/>\\n      <hstem pos=\"447\" width=\"18\"/>\\n      <hstem pos=\"542\" width=\"26\"/>\\n      <vstem pos=\"1\" width=\"24\"/>\\n      <vstem pos=\"102\" width=\"67\"/>\\n      <vstem pos=\"548\" width=\"24\"/>\\n    </hintset>\\n  </hintSetList>\\n  </data>'
Ntp3
s."
EndChar

StartChar: registered
Encoding: 102 174 102
GlifName: registered
Width: 642
VWidth: 0
Flags: W
LayerCount: 2
Back
Fore
SplineSet
223 431 m 257
NamedP: "hr00"
 235 435 246 437 257 437 c 256
 305 437 338 404 338 361 c 257
 333 317 316 288 223 288 c 257
 223 431 l 257
NamedP: "hr00"
128 441 m 257
 152 441 160 434 163 421 c 256
 164 418 165 406 165 387 c 258
 165 177 l 258
 165 156 164 143 162 139 c 256
 157 128 150 121 123 121 c 257
 123 109 l 257
 271 109 l 257
 271 121 l 257
 235 121 227 129 223 146 c 257
 223 271 l 257
 254 271 l 257
 372 109 l 257
 445 109 l 257
 445 121 l 257
 436 122 430 124 425 127 c 256
 416 132 407 142 397 156 c 258
 314 276 l 257
 377 292 403 324 403 365 c 256
 403 416 362 455 283 455 c 258
 128 455 l 257
 128 441 l 257
285 540 m 256
 373 540 465 493 510 410 c 256
 533 369 545 326 545 281 c 256
 545 189 498 100 415 55 c 256
 374 32 330 22 285 21 c 256
 150 16 21 142 25 281 c 256
 27 370 75 461 158 506 c 256
 199 529 242 540 285 540 c 256
285 565 m 256
 238 565 192 553 146 528 c 256
 101 503 65 468 39 422 c 256
 14 377 1 330 1 281 c 256
 1 181 55 84 144 33 c 256
 189 8 236 -4 285 -4 c 256
 334 -4 382 8 427 33 c 256
 472 58 507 93 532 138 c 256
 557 183 570 231 570 281 c 256
 570 378 517 478 425 528 c 256
 380 552 333 565 285 565 c 256
EndSplineSet
PickledDataWithLists: "(dp1
S'com.adobe.type.autohint'
p2
(S'data'
S'<data>\\n  <hintSetList>\\n    <hintset pointTag=\"hr00\">\\n      <hstem pos=\"-4\" width=\"25\"/>\\n      <hstem pos=\"109\" width=\"12\"/>\\n      <hstem pos=\"271\" width=\"17\"/>\\n      <hstem pos=\"437\" width=\"18\"/>\\n      <hstem pos=\"540\" width=\"25\"/>\\n      <vstem pos=\"1\" width=\"24\"/>\\n      <vstem pos=\"165\" width=\"58\"/>\\n      <vstem pos=\"338\" width=\"65\"/>\\n      <vstem pos=\"545\" width=\"25\"/>\\n    </hintset>\\n  </hintSetList>\\n  </data>'
Ntp3
s."
EndChar

StartChar: onequarter
Encoding: 103 188 103
GlifName: onequarter
Width: 785
VWidth: 0
Flags: W
LayerCount: 2
Back
Fore
SplineSet
216 289 m 257
NamedP: "hr00"
 216 675 l 257
 163 675 l 257
 158 620 131 604 66 604 c 258
 55 604 l 257
 55 561 l 257
 70 561 l 258
 122 561 159 571 158 571 c 257
 158 289 l 257
 216 289 l 257
NamedP: "hr00"
221 -10 m 257
 654 684 l 257
 583 684 l 257
 149 -10 l 257
 221 -10 l 257
729 9 m 257
 729 100 l 257
 783 100 l 257
 783 149 l 257
 729 149 l 257
 729 385 l 257
 673 385 l 257
 491 143 l 257
 491 100 l 257
 670 100 l 257
 670 9 l 257
 729 9 l 257
558 149 m 257
 670 301 l 257
 670 149 l 257
 558 149 l 257
EndSplineSet
PickledDataWithLists: "(dp1
S'com.adobe.type.autohint'
p2
(S'data'
S'<data>\\n  <hintSetList>\\n    <hintset pointTag=\"hr00\">\\n      <hstem pos=\"11\" width=\"-21\"/>\\n      <hstem pos=\"100\" width=\"49\"/>\\n      <hstem pos=\"561\" width=\"43\"/>\\n      <vstem pos=\"158\" width=\"58\"/>\\n      <vstem pos=\"670\" width=\"59\"/>\\n    </hintset>\\n  </hintSetList>\\n  </data>'
Ntp3
s."
EndChar

StartChar: onehalf
Encoding: 104 189 104
GlifName: onehalf
Width: 785
VWidth: 0
Flags: W
LayerCount: 2
Back
Fore
SplineSet
216 289 m 257
NamedP: "hr00"
 216 675 l 257
 163 675 l 257
 158 620 131 604 66 604 c 258
 55 604 l 257
 55 561 l 257
 70 561 l 258
 122 561 159 571 158 571 c 257
 158 289 l 257
 216 289 l 257
NamedP: "hr00"
221 -10 m 257
 654 684 l 257
 583 684 l 257
 149 -10 l 257
 221 -10 l 257
778 9 m 257
 778 58 l 257
 550 58 l 257
 551 73 573 102 633 131 c 257
 640 136 651 141 664 148 c 256
 704 168 730 185 743 198 c 256
 767 221 779 247 779 279 c 256
 779 351 725 395 644 395 c 256
 556 395 504 352 500 255 c 257
 558 255 l 257
 559 320 587 346 643 346 c 256
 692 346 720 320 720 279 c 256
 720 259 713 244 698 229 c 256
 689 220 668 207 635 190 c 256
 618 182 605 175 596 170 c 256
 521 129 490 87 490 30 c 258
 490 9 l 257
 778 9 l 257
EndSplineSet
PickledDataWithLists: "(dp1
S'com.adobe.type.autohint'
p2
(S'data'
S'<data>\\n  <hintSetList>\\n    <hintset pointTag=\"hr00\">\\n      <hstem pos=\"11\" width=\"-21\"/>\\n      <hstem pos=\"9\" width=\"49\"/>\\n      <hstem pos=\"346\" width=\"49\"/>\\n      <hstem pos=\"561\" width=\"43\"/>\\n      <vstem pos=\"158\" width=\"58\"/>\\n      <vstem pos=\"490\" width=\"60\"/>\\n      <vstem pos=\"500\" width=\"58\"/>\\n      <vstem pos=\"720\" width=\"59\"/>\\n    </hintset>\\n  </hintSetList>\\n  </data>'
Ntp3
s."
EndChar

StartChar: threequarters
Encoding: 105 190 105
GlifName: threequarters
Width: 784
VWidth: 0
Flags: W
LayerCount: 2
Back
Fore
SplineSet
20 404 m 258
NamedP: "hr00"
 20 325 76 279 164 279 c 256
 252 279 308 324 308 399 c 256
 308 425 301 447 287 464 c 256
 273 482 263 492 258 493 c 257
 260 494 266 502 277 517 c 256
 288 532 294 550 294 571 c 256
 294 635 245 675 166 675 c 256
 86 675 37 635 33 548 c 257
 90 548 l 257
 91 605 118 628 166 628 c 256
 210 628 235 604 235 571 c 256
 235 531 209 511 150 511 c 258
 125 511 l 257
 125 463 l 257
 144 466 144 465 153 465 c 256
 220 465 248 444 248 399 c 256
 248 352 218 328 163 328 c 256
 110 328 81 353 80 414 c 257
 20 414 l 257
 20 404 l 258
NamedP: "hr00"
220 -10 m 257
 654 684 l 257
 583 684 l 257
 149 -10 l 257
 220 -10 l 257
728 9 m 257
 728 100 l 257
 783 100 l 257
 783 149 l 257
 728 149 l 257
 728 385 l 257
 671 385 l 257
 491 143 l 257
 491 100 l 257
 670 100 l 257
 670 9 l 257
 728 9 l 257
558 149 m 257
 670 301 l 257
 670 149 l 257
 558 149 l 257
EndSplineSet
PickledDataWithLists: "(dp1
S'com.adobe.type.autohint'
p2
(S'data'
S'<data>\\n  <hintSetList>\\n    <hintset pointTag=\"hr00\">\\n      <hstem pos=\"11\" width=\"-21\"/>\\n      <hstem pos=\"100\" width=\"49\"/>\\n      <hstem pos=\"279\" width=\"49\"/>\\n      <hstem pos=\"414\" width=\"-20\"/>\\n      <hstem pos=\"465\" width=\"46\"/>\\n      <hstem pos=\"628\" width=\"47\"/>\\n      <vstem pos=\"20\" width=\"60\"/>\\n      <vstem pos=\"33\" width=\"57\"/>\\n      <vstem pos=\"235\" width=\"59\"/>\\n      <vstem pos=\"248\" width=\"60\"/>\\n      <vstem pos=\"670\" width=\"58\"/>\\n    </hintset>\\n  </hintSetList>\\n  </data>'
Ntp3
s."
EndChar

StartChar: Divide
Encoding: 106 247 106
GlifName: Divide_
Width: 693
VWidth: 0
Flags: W
LayerCount: 2
Back
Fore
SplineSet
286 76 m 256
NamedP: "hr00"
 286 59 292 45 304 33 c 256
 316 21 330 15 347 15 c 256
 364 15 377 21 389 33 c 256
 401 45 407 59 407 76 c 256
 407 93 401 107 389 118 c 257
 378 131 364 137 347 137 c 256
 330 137 315 131 304 118 c 257
 292 107 286 93 286 76 c 256
NamedP: "hr00"
286 432 m 256
 286 415 292 402 304 390 c 256
 316 378 330 372 347 372 c 256
 364 372 377 378 389 390 c 256
 401 402 407 415 407 432 c 256
 407 449 401 463 389 475 c 256
 377 487 364 493 347 493 c 256
 330 493 316 487 304 475 c 256
 292 463 286 449 286 432 c 256
75 214 m 257
 617 214 l 257
 617 285 l 257
 75 285 l 257
 75 214 l 257
EndSplineSet
PickledDataWithLists: "(dp1
S'com.adobe.type.autohint'
p2
(S'data'
S'<data>\\n  <hintSetList>\\n    <hintset pointTag=\"hr00\">\\n      <hstem pos=\"15\" width=\"122\"/>\\n      <hstem pos=\"214\" width=\"71\"/>\\n      <hstem pos=\"372\" width=\"121\"/>\\n      <vstem pos=\"75\" width=\"542\"/>\\n      <vstem pos=\"286\" width=\"121\"/>\\n    </hintset>\\n  </hintSetList>\\n  </data>'
Ntp3
s."
EndChar

StartChar: .notdef
Encoding: 107 -1 107
GlifName: _notdef
Width: 891
VWidth: 0
Flags: W
LayerCount: 2
Back
Fore
SplineSet
382 128 m 257
NamedP: "hr00"
 344 151 314 183 293 222 c 257
 220 170 l 257
 249 122 286 83 333 53 c 257
 382 128 l 257
NamedP: "hr00"
596 87 m 257
 575 81 554 78 532 78 c 256
 509 78 488 81 467 87 c 257
 452 -3 l 257
 479 -8 506 -11 531 -11 c 256
 558 -11 584 -8 610 -3 c 257
 596 87 l 257
266 297 m 257
 261 318 258 341 258 364 c 256
 258 387 261 409 266 431 c 257
 179 447 l 257
 174 420 171 393 171 364 c 256
 171 335 174 308 179 282 c 257
 266 297 l 257
333 676 m 257
 286 645 249 606 220 559 c 257
 293 507 l 257
 314 546 344 578 382 602 c 257
 333 676 l 257
772 222 m 257
 749 183 718 151 680 128 c 257
 730 53 l 257
 776 83 814 122 843 170 c 257
 772 222 l 257
891 364 m 256
 891 391 888 419 883 447 c 257
 798 431 l 257
 803 409 805 387 805 364 c 256
 805 341 803 318 798 297 c 257
 883 282 l 257
 888 311 891 338 891 364 c 256
610 730 m 257
 584 737 558 741 531 741 c 256
 506 741 479 737 452 730 c 257
 467 642 l 257
 488 647 509 649 532 649 c 256
 554 649 575 647 596 642 c 257
 610 730 l 257
843 559 m 257
 815 606 777 645 730 676 c 257
 680 602 l 257
 718 578 749 546 772 507 c 257
 843 559 l 257
EndSplineSet
PickledDataWithLists: "(dp1
S'com.adobe.type.autohint'
p2
(S'data'
S'<data>\\n  <hintSetList>\\n    <hintset pointTag=\"hr00\">\\n      <hstem pos=\"-11\" width=\"89\"/>\\n      <hstem pos=\"18\" width=\"-21\"/>\\n      <hstem pos=\"602\" width=\"-20\"/>\\n      <hstem pos=\"649\" width=\"92\"/>\\n      <vstem pos=\"171\" width=\"87\"/>\\n      <vstem pos=\"805\" width=\"86\"/>\\n    </hintset>\\n  </hintSetList>\\n  </data>'
Ntp3
s."
EndChar

StartChar: Nukta
Encoding: 110 2364 110
GlifName: Nukta_
Width: 1
VWidth: 0
Flags: W
LayerCount: 2
Back
Fore
SplineSet
401 1010 m 256
NamedP: "hr00"
 401 977 379 960 347 960 c 256
 311 960 290 979 290 1010 c 256
 290 1039 317 1058 348 1058 c 256
 379 1058 401 1038 401 1010 c 256
NamedP: "hr00"
759 936 m 256
 759 952 748 962 740 962 c 258
 413 962 l 257
 426 981 432 1002 432 1023 c 256
 432 1071 394 1109 349 1109 c 256
 296 1109 260 1064 260 1020 c 256
 260 959 294 910 350 910 c 258
 737 910 l 258
 752 910 759 919 759 936 c 256
EndSplineSet
PickledDataWithLists: "(dp1
S'com.adobe.type.autohint'
p2
(S'data'
S'<data>\\n  <hintSetList>\\n    <hintset pointTag=\"hr00\">\\n      <hstem pos=\"910\" width=\"52\"/>\\n      <hstem pos=\"1058\" width=\"51\"/>\\n      <vstem pos=\"260\" width=\"30\"/>\\n      <vstem pos=\"401\" width=\"31\"/>\\n    </hintset>\\n  </hintSetList>\\n  </data>'
Ntp3
s."
EndChar

StartChar: uni0950
Encoding: 111 2384 111
GlifName: uni0950
Width: 761
VWidth: 0
Flags: W
LayerCount: 2
Back
Fore
SplineSet
349 663 m 257
NamedP: "hr00"
 396 613 l 257
 444 659 l 257
 396 708 l 257
 349 663 l 257
NamedP: "hr00"
262 618 m 257
 306 550 359 516 422 516 c 256
 463 516 504 538 545 582 c 257
 483 634 l 257
 456 597 423 579 386 579 c 256
 347 579 314 597 285 634 c 257
 262 618 l 257
505 386 m 257
 522 421 549 438 587 438 c 256
 642 438 681 384 681 305 c 256
 681 222 637 162 580 162 c 256
 546 162 529 190 529 245 c 258
 529 273 l 257
 529 327 l 258
 529 358 521 378 505 386 c 257
36 330 m 257
 44 235 74 156 125 93 c 256
 177 30 238 -1 307 -1 c 256
 394 -1 450 53 450 133 c 256
 450 182 430 233 391 286 c 257
 420 305 443 315 462 315 c 256
 484 315 495 294 495 253 c 258
 495 219 l 258
 495 128 518 95 577 95 c 256
 661 95 715 178 715 310 c 256
 715 441 675 505 595 505 c 256
 534 505 497 468 483 394 c 257
 476 395 471 396 468 396 c 256
 431 396 393 376 352 337 c 257
 339 350 l 257
 346 365 350 381 350 400 c 256
 350 487 292 546 211 546 c 256
 179 546 148 539 119 524 c 257
 151 449 l 257
 186 468 219 477 251 477 c 256
 295 477 316 459 316 424 c 256
 316 377 280 343 209 322 c 257
 241 247 l 257
 273 262 300 285 323 316 c 257
 367 271 389 222 389 167 c 256
 389 108 343 61 286 61 c 256
 233 61 185 86 143 137 c 256
 102 188 75 255 62 337 c 257
 36 330 l 257
EndSplineSet
PickledDataWithLists: "(dp1
S'com.adobe.type.autohint'
p2
(S'data'
S'<data>\\n  <hintSetList>\\n    <hintset pointTag=\"hr00\">\\n      <hstem pos=\"-1\" width=\"62\"/>\\n      <hstem pos=\"95\" width=\"67\"/>\\n      <hstem pos=\"315\" width=\"81\"/>\\n      <hstem pos=\"438\" width=\"67\"/>\\n      <hstem pos=\"477\" width=\"69\"/>\\n      <hstem pos=\"516\" width=\"63\"/>\\n      <vstem pos=\"316\" width=\"34\"/>\\n      <vstem pos=\"389\" width=\"61\"/>\\n      <vstem pos=\"495\" width=\"34\"/>\\n      <vstem pos=\"681\" width=\"34\"/>\\n    </hintset>\\n  </hintSetList>\\n  </data>'
Ntp3
s."
EndChar

StartChar: Udatta
Encoding: 112 2385 112
GlifName: Udatta_
Width: 0
VWidth: 0
Flags: W
LayerCount: 2
Back
Fore
SplineSet
365 930 m 257
NamedP: "hr00"
 365 1294 l 257
 282 1294 l 257
 282 930 l 257
 365 930 l 257
NamedP: "hr00"
EndSplineSet
PickledDataWithLists: "(dp1
S'com.adobe.type.autohint'
p2
(S'data'
S'<data>\\n  <hintSetList>\\n    <hintset pointTag=\"hr00\">\\n      <hstem pos=\"930\" width=\"364\"/>\\n      <vstem pos=\"282\" width=\"83\"/>\\n    </hintset>\\n  </hintSetList>\\n  </data>'
Ntp3
s."
EndChar

StartChar: Anudatta
Encoding: 113 2386 113
GlifName: Anudatta_
Width: 0
VWidth: 0
Flags: W
LayerCount: 2
Back
Fore
SplineSet
121 -516 m 257
NamedP: "hr00"
 523 -516 l 257
 523 -425 l 257
 121 -425 l 257
 121 -516 l 257
NamedP: "hr00"
EndSplineSet
PickledDataWithLists: "(dp1
S'com.adobe.type.autohint'
p2
(S'data'
S'<data>\\n  <hintSetList>\\n    <hintset pointTag=\"hr00\">\\n      <hstem pos=\"-516\" width=\"91\"/>\\n      <vstem pos=\"121\" width=\"402\"/>\\n    </hintset>\\n  </hintSetList>\\n  </data>'
Ntp3
s."
EndChar

StartChar: KaHalanth
Encoding: 114 2387 114
GlifName: KaHalanth_
Width: 668
VWidth: 0
Flags: W
LayerCount: 2
Back
Fore
SplineSet
301 416 m 257
NamedP: "hr00"
 298 419 294 421 291 421 c 258
 245 420 l 258
 228 420 214 423 201 428 c 256
 187 433 180 440 180 449 c 256
 180 469 206 489 258 509 c 256
 312 530 339 552 339 574 c 256
 339 591 306 608 240 623 c 256
 155 643 113 665 113 693 c 256
 113 721 133 741 174 754 c 256
 203 763 241 768 288 768 c 256
 355 768 440 754 544 726 c 256
 581 716 608 710 623 708 c 257
 630 708 636 711 641 718 c 256
 646 725 648 733 648 743 c 256
 648 765 607 785 526 804 c 256
 451 821 380 830 311 830 c 256
 230 830 168 823 125 808 c 256
 62 785 30 744 30 685 c 256
 30 648 57 618 110 594 c 256
 147 577 188 566 233 561 c 257
 233 555 l 257
 193 538 163 522 144 509 c 256
 112 487 96 465 96 444 c 256
 96 414 118 391 161 375 c 256
 172 371 182 368 193 366 c 257
 133 329 103 288 103 245 c 256
 103 222 111 204 128 193 c 256
 145 181 171 172 204 175 c 258
 344 186 l 258
 377 189 403 184 420 179 c 256
 444 172 456 160 456 143 c 256
 456 117 437 95 398 76 c 256
 363 59 327 51 289 51 c 256
 262 51 225 56 180 65 c 256
 160 69 147 71 141 71 c 256
 129 71 120 68 113 63 c 256
 107 58 104 50 104 39 c 256
 104 16 120 2 151 -5 c 256
 171 -10 206 -12 255 -12 c 256
 325 -12 386 1 438 26 c 256
 497 55 526 95 525 145 c 256
 525 174 515 196 496 211 c 256
 472 231 432 245 376 241 c 258
 226 231 l 258
 212 230 200 232 190 235 c 256
 177 238 171 243 171 250 c 256
 171 279 197 305 250 328 c 256
 305 353 370 365 445 365 c 256
 449 365 455 368 463 374 c 256
 471 380 475 386 475 391 c 256
 475 403 470 414 459 423 c 256
 449 432 437 436 424 436 c 256
 383 436 342 429 301 416 c 257
NamedP: "hr00"
EndSplineSet
PickledDataWithLists: "(dp1
S'com.adobe.type.autohint'
p2
(S'data'
S'<data>\\n  <hintSetList>\\n    <hintset pointTag=\"hr00\">\\n      <hstem pos=\"-12\" width=\"63\"/>\\n      <hstem pos=\"-5\" width=\"56\"/>\\n      <hstem pos=\"186\" width=\"55\"/>\\n      <hstem pos=\"365\" width=\"71\"/>\\n      <hstem pos=\"416\" width=\"-20\"/>\\n      <hstem pos=\"768\" width=\"62\"/>\\n      <vstem pos=\"30\" width=\"83\"/>\\n      <vstem pos=\"96\" width=\"84\"/>\\n      <vstem pos=\"103\" width=\"68\"/>\\n      <vstem pos=\"456\" width=\"69\"/>\\n    </hintset>\\n  </hintSetList>\\n  </data>'
Ntp3
s."
EndChar

StartChar: DEVANAGARI_DANDA
Encoding: 115 2404 115
GlifName: DEVANAGARI__DANDA_
Width: 252
VWidth: 0
Flags: W
LayerCount: 2
Back
Fore
SplineSet
164 482 m 257
NamedP: "hr00"
 83 482 l 257
 83 -22 l 257
 164 -22 l 257
 164 482 l 257
NamedP: "hr00"
EndSplineSet
PickledDataWithLists: "(dp1
S'com.adobe.type.autohint'
p2
(S'data'
S'<data>\\n  <hintSetList>\\n    <hintset pointTag=\"hr00\">\\n      <hstem pos=\"-22\" width=\"504\"/>\\n      <vstem pos=\"83\" width=\"81\"/>\\n    </hintset>\\n  </hintSetList>\\n  </data>'
Ntp3
s."
EndChar

StartChar: DEVANAGARI_DOUBLE_DANDA
Encoding: 116 2405 116
GlifName: DEVANAGARI__DOUBLE__DANDA_
Width: 451
VWidth: 0
Flags: W
LayerCount: 2
Back
Fore
SplineSet
355 482 m 257
NamedP: "hr00"
 276 482 l 257
 276 -22 l 257
 355 -22 l 257
 355 482 l 257
NamedP: "hr00"
166 486 m 257
 85 486 l 257
 85 -19 l 257
 166 -19 l 257
 166 486 l 257
EndSplineSet
PickledDataWithLists: "(dp1
S'com.adobe.type.autohint'
p2
(S'data'
S'<data>\\n  <hintSetList>\\n    <hintset pointTag=\"hr00\">\\n      <hstem pos=\"-22\" width=\"508\"/>\\n      <vstem pos=\"85\" width=\"81\"/>\\n      <vstem pos=\"276\" width=\"79\"/>\\n    </hintset>\\n  </hintSetList>\\n  </data>'
Ntp3
s."
EndChar

StartChar: Arasunna
Encoding: 117 3073 117
GlifName: Arasunna_
Width: 312
VWidth: 0
Flags: W
LayerCount: 2
Back
Fore
SplineSet
264 65 m 256
NamedP: "hr00"
 209 65 167 80 139 111 c 256
 113 140 100 181 100 236 c 256
 100 271 110 300 131 324 c 256
 154 349 183 361 219 361 c 256
 237 361 251 364 262 370 c 257
 274 375 280 382 280 390 c 256
 280 397 277 403 272 409 c 256
 267 416 259 420 250 420 c 258
 232 420 l 258
 171 420 123 402 87 366 c 256
 50 329 31 279 31 215 c 256
 31 171 47 129 80 90 c 256
 119 43 173 14 242 3 c 257
 261 3 276 5 285 9 c 256
 295 14 300 21 300 31 c 256
 300 39 297 46 292 53 c 256
 287 61 277 65 264 65 c 256
NamedP: "hr00"
EndSplineSet
PickledDataWithLists: "(dp1
S'com.adobe.type.autohint'
p2
(S'data'
S'<data>\\n  <hintSetList>\\n    <hintset pointTag=\"hr00\">\\n      <hstem pos=\"3\" width=\"62\"/>\\n      <hstem pos=\"361\" width=\"59\"/>\\n      <vstem pos=\"31\" width=\"69\"/>\\n    </hintset>\\n  </hintSetList>\\n  </data>'
Ntp3
s."
EndChar

StartChar: Anusvara
Encoding: 118 3074 118
GlifName: Anusvara_
Width: 532
VWidth: 0
Flags: W
LayerCount: 2
Back
Fore
SplineSet
435 189 m 256
NamedP: "hr00"
 435 154 416 124 378 99 c 256
 343 76 303 64 259 64 c 256
 212 64 173 76 143 101 c 256
 114 126 99 157 99 195 c 256
 99 232 115 266 150 293 c 256
 182 319 220 331 261 331 c 256
 309 331 350 317 384 288 c 256
 418 259 435 226 435 189 c 256
NamedP: "hr00"
504 199 m 256
 504 249 481 294 435 334 c 256
 387 375 330 395 265 395 c 256
 200 395 146 377 101 340 c 256
 54 300 30 246 30 179 c 256
 30 134 46 94 78 61 c 256
 119 18 178 -4 255 -4 c 256
 331 -4 392 16 439 55 c 256
 484 94 505 142 504 199 c 256
EndSplineSet
PickledDataWithLists: "(dp1
S'com.adobe.type.autohint'
p2
(S'data'
S'<data>\\n  <hintSetList>\\n    <hintset pointTag=\"hr00\">\\n      <hstem pos=\"-4\" width=\"68\"/>\\n      <hstem pos=\"331\" width=\"64\"/>\\n      <vstem pos=\"30\" width=\"69\"/>\\n      <vstem pos=\"435\" width=\"69\"/>\\n    </hintset>\\n  </hintSetList>\\n  </data>'
Ntp3
s."
EndChar

StartChar: Visarga
Encoding: 119 3075 119
GlifName: Visarga_
Width: 305
VWidth: 0
Flags: W
LayerCount: 2
Back
Fore
SplineSet
206 100 m 256
NamedP: "hr00"
 206 84 199 72 186 63 c 256
 174 54 160 50 145 50 c 256
 130 50 117 55 108 64 c 256
 99 73 95 85 95 98 c 256
 95 109 99 118 107 126 c 256
 117 137 130 143 147 143 c 256
 163 143 176 139 187 131 c 257
 200 124 206 113 206 100 c 256
NamedP: "hr00"
267 98 m 256
 267 125 257 147 236 164 c 256
 214 181 185 190 150 190 c 256
 118 190 92 181 71 163 c 256
 48 144 37 119 37 88 c 256
 37 68 45 50 60 33 c 256
 81 10 110 -1 147 -1 c 256
 180 -1 207 7 230 24 c 256
 255 41 267 66 267 98 c 256
206 344 m 256
 206 328 199 315 186 306 c 256
 174 299 160 295 145 295 c 256
 130 295 117 300 108 309 c 256
 99 317 95 328 95 343 c 256
 95 354 99 363 107 371 c 256
 117 382 130 388 147 388 c 256
 162 388 176 384 187 376 c 256
 200 368 206 357 206 344 c 256
267 343 m 256
 267 370 257 392 236 409 c 256
 214 426 185 435 150 435 c 256
 118 435 92 426 71 408 c 256
 48 389 37 364 37 333 c 256
 37 313 45 295 60 278 c 256
 81 255 110 244 147 244 c 256
 180 244 207 252 230 269 c 256
 255 286 267 311 267 343 c 256
EndSplineSet
PickledDataWithLists: "(dp1
S'com.adobe.type.autohint'
p2
(S'data'
S'<data>\\n  <hintSetList>\\n    <hintset pointTag=\"hr00\">\\n      <hstem pos=\"-1\" width=\"51\"/>\\n      <hstem pos=\"143\" width=\"47\"/>\\n      <hstem pos=\"244\" width=\"51\"/>\\n      <hstem pos=\"388\" width=\"47\"/>\\n      <vstem pos=\"37\" width=\"58\"/>\\n      <vstem pos=\"206\" width=\"61\"/>\\n    </hintset>\\n  </hintSetList>\\n  </data>'
Ntp3
s."
EndChar

StartChar: uni0C05
Encoding: 120 3077 120
GlifName: uni0C05_
Width: 731
VWidth: 0
Flags: W
LayerCount: 2
Back
Fore
SplineSet
711 263 m 256
NamedP: "hr00"
 711 328 686 382 636 425 c 256
 589 466 534 486 470 486 c 256
 417 486 373 470 336 439 c 256
 305 412 289 384 289 354 c 256
 289 334 294 315 303 296 c 256
 311 278 323 263 339 250 c 257
 206 250 l 258
 196 250 189 247 184 241 c 256
 180 236 178 230 178 221 c 256
 178 211 180 203 185 198 c 256
 191 191 198 190 206 193 c 257
 401 193 l 257
 436 193 l 258
 448 193 458 196 465 201 c 256
 472 207 476 216 476 228 c 256
 476 233 475 238 473 243 c 257
 470 246 468 248 465 249 c 256
 428 260 402 270 388 280 c 256
 368 295 358 316 358 343 c 256
 358 367 370 387 395 403 c 256
 418 418 443 425 470 425 c 256
 516 425 556 408 591 375 c 256
 626 342 643 306 643 265 c 256
 643 204 613 154 553 116 c 256
 496 80 426 63 343 63 c 256
 264 63 203 82 159 121 c 256
 119 156 99 201 99 256 c 256
 99 302 112 343 139 378 c 256
 162 407 192 429 229 444 c 256
 236 447 244 451 254 454 c 256
 273 461 283 471 283 486 c 256
 283 496 280 504 275 511 c 256
 270 517 265 520 259 520 c 256
 206 520 157 496 110 448 c 256
 57 393 30 327 30 249 c 256
 30 176 56 116 108 69 c 256
 163 19 237 -6 331 -6 c 256
 442 -6 533 19 604 68 c 256
 675 118 711 183 711 263 c 256
NamedP: "hr00"
EndSplineSet
PickledDataWithLists: "(dp1
S'com.adobe.type.autohint'
p2
(S'data'
S'<data>\\n  <hintSetList>\\n    <hintset pointTag=\"hr00\">\\n      <hstem pos=\"-6\" width=\"69\"/>\\n      <hstem pos=\"193\" width=\"57\"/>\\n      <hstem pos=\"425\" width=\"61\"/>\\n      <vstem pos=\"30\" width=\"69\"/>\\n      <vstem pos=\"289\" width=\"69\"/>\\n      <vstem pos=\"643\" width=\"68\"/>\\n    </hintset>\\n  </hintSetList>\\n  </data>'
Ntp3
s."
EndChar

StartChar: AA
Encoding: 121 3078 121
GlifName: AA_
Width: 738
VWidth: 0
Flags: W
LayerCount: 2
Back
Fore
SplineSet
648 408 m 256
NamedP: "hr00"
 648 377 632 351 601 333 c 256
 577 319 549 312 517 309 c 257
 500 323 489 335 484 345 c 256
 474 361 469 381 469 405 c 256
 469 426 476 443 491 456 c 257
 507 473 528 481 555 481 c 256
 580 481 601 474 619 461 c 256
 638 448 648 430 648 408 c 256
NamedP: "hr00"
714 400 m 257
 714 440 700 474 672 499 c 256
 643 525 605 537 560 537 c 256
 517 537 481 527 452 507 c 256
 420 484 404 453 404 414 c 256
 404 394 406 376 413 359 c 256
 419 343 430 325 444 306 c 257
 214 306 l 258
 196 306 184 304 177 299 c 256
 172 296 169 289 169 279 c 256
 169 266 172 258 179 253 c 256
 188 247 200 246 217 249 c 257
 491 249 l 257
 510 240 526 231 539 220 c 257
 556 202 565 182 565 160 c 256
 565 135 544 113 503 94 c 256
 462 75 416 65 365 65 c 256
 298 65 238 80 185 111 c 256
 126 146 96 192 96 249 c 256
 96 317 124 370 179 407 c 256
 223 437 271 452 322 452 c 256
 335 452 344 454 351 457 c 257
 358 463 362 473 362 486 c 256
 362 497 359 505 354 510 c 256
 349 517 339 520 324 520 c 256
 231 520 157 490 102 430 c 256
 54 377 30 316 30 246 c 256
 30 169 65 107 136 59 c 256
 199 17 271 -4 353 -4 c 256
 418 -4 477 9 530 33 c 256
 597 64 631 106 631 163 c 256
 631 180 626 198 617 215 c 256
 605 235 589 252 568 266 c 257
 604 271 637 286 667 311 c 256
 701 338 717 367 714 400 c 257
EndSplineSet
PickledDataWithLists: "(dp1
S'com.adobe.type.autohint'
p2
(S'data'
S'<data>\\n  <hintSetList>\\n    <hintset pointTag=\"hr00\">\\n      <hstem pos=\"-4\" width=\"69\"/>\\n      <hstem pos=\"249\" width=\"57\"/>\\n      <hstem pos=\"452\" width=\"68\"/>\\n      <hstem pos=\"481\" width=\"56\"/>\\n      <vstem pos=\"30\" width=\"66\"/>\\n      <vstem pos=\"404\" width=\"65\"/>\\n      <vstem pos=\"565\" width=\"66\"/>\\n      <vstem pos=\"648\" width=\"66\"/>\\n    </hintset>\\n  </hintSetList>\\n  </data>'
Ntp3
s."
EndChar

StartChar: uni0C07
Encoding: 122 3079 122
GlifName: uni0C07_
Width: 740
VWidth: 0
Flags: W
LayerCount: 2
Back
Fore
SplineSet
518 139 m 257
NamedP: "hr00"
 485 109 444 88 395 74 c 256
 356 63 318 56 279 56 c 256
 240 56 206 63 175 74 c 256
 140 87 123 102 123 121 c 256
 123 149 147 171 194 187 c 256
 232 200 271 206 310 206 c 256
 346 206 387 199 432 184 c 256
 475 169 504 154 518 139 c 257
NamedP: "hr00"
720 -35 m 256
 720 -6 707 25 681 60 c 256
 665 83 641 109 609 140 c 257
 648 195 668 258 668 329 c 256
 668 381 649 427 611 466 c 256
 574 505 529 524 478 524 c 256
 433 524 393 511 359 485 c 256
 328 460 311 431 308 398 c 257
 303 421 291 441 273 457 c 256
 252 476 226 486 195 486 c 256
 150 486 112 473 81 448 c 256
 47 420 30 384 30 339 c 256
 30 311 40 289 59 273 c 256
 75 259 94 252 115 252 c 256
 128 252 138 254 146 259 c 256
 155 265 159 274 159 285 c 256
 159 288 153 293 140 298 c 256
 111 310 97 326 97 346 c 256
 97 371 107 391 127 406 c 256
 144 420 163 427 185 427 c 256
 211 427 233 416 250 394 c 256
 265 375 274 350 277 321 c 257
 277 314 281 307 289 302 c 256
 297 297 307 295 319 295 c 256
 332 295 342 299 350 308 c 256
 358 317 362 328 362 343 c 256
 362 376 372 404 393 427 c 256
 414 449 439 460 468 460 c 256
 502 460 533 446 560 417 c 256
 587 387 601 352 601 311 c 256
 601 288 597 263 590 237 c 256
 583 212 574 194 564 181 c 257
 495 233 412 259 316 259 c 256
 253 259 198 249 150 229 c 256
 88 203 57 164 57 112 c 256
 57 77 77 47 118 25 c 256
 158 3 206 -7 263 -7 c 256
 316 -7 368 1 419 17 c 256
 475 35 521 60 556 93 c 257
 576 76 592 57 605 36 c 256
 620 10 633 -23 643 -62 c 256
 644 -67 647 -70 651 -72 c 256
 655 -75 660 -76 666 -76 c 256
 679 -76 691 -71 702 -62 c 257
 714 -55 720 -46 720 -35 c 256
EndSplineSet
PickledDataWithLists: "(dp1
S'com.adobe.type.autohint'
p2
(S'data'
S'<data>\\n  <hintSetList>\\n    <hintset pointTag=\"hr00\">\\n      <hstem pos=\"-7\" width=\"63\"/>\\n      <hstem pos=\"206\" width=\"53\"/>\\n      <hstem pos=\"427\" width=\"59\"/>\\n      <hstem pos=\"460\" width=\"64\"/>\\n      <vstem pos=\"30\" width=\"67\"/>\\n      <vstem pos=\"57\" width=\"66\"/>\\n      <vstem pos=\"308\" width=\"54\"/>\\n      <vstem pos=\"601\" width=\"67\"/>\\n    </hintset>\\n  </hintSetList>\\n  </data>'
Ntp3
s."
EndChar

StartChar: II
Encoding: 123 3080 123
GlifName: II_
Width: 1011
VWidth: 0
Flags: W
LayerCount: 2
Back
Fore
SplineSet
921 109 m 256
NamedP: "hr00"
 921 95 914 83 901 73 c 256
 889 63 875 58 858 58 c 256
 843 58 830 61 819 68 c 256
 805 77 798 89 798 106 c 256
 798 127 803 144 813 155 c 256
 822 165 832 170 845 170 c 256
 871 170 891 163 905 148 c 256
 916 136 921 123 921 109 c 256
NamedP: "hr00"
410 310 m 256
 449 310 485 303 519 289 c 256
 555 275 580 256 594 233 c 257
 229 214 l 257
 239 243 257 266 283 281 c 256
 314 300 356 310 410 310 c 256
614 178 m 257
 611 150 590 123 551 98 c 256
 506 68 454 53 394 53 c 256
 344 53 302 64 269 86 c 256
 242 105 226 128 219 154 c 257
 614 178 l 257
990 109 m 256
 990 133 981 155 963 175 c 256
 944 198 918 213 886 220 c 257
 911 231 933 250 954 279 c 256
 976 310 988 341 988 373 c 256
 988 406 972 435 941 458 c 256
 910 481 871 493 824 493 c 256
 783 493 749 485 720 469 c 256
 691 452 676 431 676 405 c 256
 676 397 681 390 691 384 c 256
 701 377 712 374 723 374 c 256
 734 374 745 382 755 398 c 256
 771 423 793 435 821 435 c 256
 850 435 874 428 891 414 c 256
 910 399 919 378 919 351 c 256
 919 314 891 280 834 249 c 256
 828 245 l 257
 745 245 l 258
 718 245 693 243 671 239 c 257
 644 284 604 317 549 339 c 256
 502 358 447 368 384 368 c 256
 340 368 309 369 291 373 c 256
 269 377 258 386 258 399 c 256
 258 415 293 447 364 495 c 256
 420 534 455 561 468 578 c 256
 482 595 493 611 500 624 c 256
 509 641 514 657 514 670 c 256
 514 683 511 693 504 700 c 256
 497 709 488 714 475 715 c 256
 462 715 452 712 444 706 c 256
 433 699 426 689 423 676 c 256
 413 638 399 611 381 593 c 256
 359 571 326 544 280 509 c 256
 202 451 164 402 164 365 c 256
 164 344 188 326 235 320 c 258
 243 319 l 257
 221 305 203 289 189 271 c 256
 173 252 162 232 155 211 c 257
 69 211 l 258
 57 211 48 209 41 205 c 256
 34 201 30 194 30 183 c 256
 30 168 34 159 43 155 c 256
 50 151 65 150 88 150 c 258
 146 150 l 257
 151 105 177 68 224 39 c 256
 269 10 323 -4 386 -4 c 256
 471 -4 542 19 601 63 c 256
 652 101 680 141 685 185 c 257
 708 190 739 193 778 193 c 257
 763 183 751 171 744 158 c 256
 734 140 729 119 729 94 c 256
 729 69 740 47 761 29 c 256
 786 8 819 -2 858 -2 c 256
 893 -2 923 8 949 29 c 256
 977 50 991 77 990 109 c 256
EndSplineSet
PickledDataWithLists: "(dp1
S'com.adobe.type.autohint'
p2
(S'data'
S'<data>\\n  <hintSetList>\\n    <hintset pointTag=\"hr00\">\\n      <hstem pos=\"-4\" width=\"57\"/>\\n      <hstem pos=\"-2\" width=\"60\"/>\\n      <hstem pos=\"150\" width=\"61\"/>\\n      <hstem pos=\"166\" width=\"57\"/>\\n      <hstem pos=\"193\" width=\"52\"/>\\n      <hstem pos=\"310\" width=\"58\"/>\\n      <hstem pos=\"435\" width=\"58\"/>\\n      <vstem pos=\"164\" width=\"94\"/>\\n      <vstem pos=\"614\" width=\"71\"/>\\n      <vstem pos=\"729\" width=\"69\"/>\\n      <vstem pos=\"919\" width=\"69\"/>\\n    </hintset>\\n  </hintSetList>\\n  </data>'
Ntp3
s."
EndChar

StartChar: uni0C09
Encoding: 124 3081 124
GlifName: uni0C09_
Width: 777
VWidth: 0
Flags: W
LayerCount: 2
Back
Fore
SplineSet
757 139 m 256
NamedP: "hr00"
 757 168 751 194 737 216 c 256
 719 245 689 260 651 260 c 256
 627 260 607 252 591 237 c 256
 577 224 570 210 570 195 c 256
 570 182 573 172 579 165 c 256
 586 157 596 153 610 153 c 256
 623 153 634 156 641 161 c 257
 648 168 652 176 652 187 c 256
 652 192 651 199 649 208 c 257
 661 208 671 201 679 187 c 256
 686 175 690 162 690 148 c 256
 690 127 681 107 664 90 c 256
 643 68 615 57 581 57 c 256
 554 57 521 81 485 132 c 256
 455 173 431 195 412 195 c 256
 390 195 366 170 339 119 c 256
 320 84 304 66 293 66 c 256
 265 66 241 78 222 102 c 256
 203 127 194 155 194 188 c 256
 194 215 197 237 203 256 c 257
 416 256 l 257
 484 256 l 258
 496 256 505 257 510 260 c 257
 521 264 526 271 526 280 c 256
 526 293 522 302 513 307 c 256
 506 312 495 315 480 314 c 258
 233 297 l 257
 264 340 308 371 363 388 c 256
 396 399 433 404 472 404 c 256
 514 404 548 394 575 373 c 256
 584 366 592 362 598 362 c 256
 611 362 622 364 631 368 c 256
 640 372 644 379 644 388 c 256
 644 409 630 428 602 440 c 256
 574 452 539 457 497 457 c 256
 425 457 364 447 315 426 c 256
 256 401 206 359 165 301 c 257
 98 301 l 258
 78 301 63 299 52 295 c 256
 37 289 30 279 30 266 c 256
 30 259 35 254 46 250 c 256
 54 246 63 244 73 244 c 258
 133 246 l 257
 132 242 l 258
 129 221 127 202 127 185 c 256
 127 136 140 94 167 59 c 256
 199 17 245 -4 306 -4 c 256
 328 -4 351 22 379 73 c 256
 395 102 407 116 414 116 c 256
 420 116 430 106 443 86 c 256
 481 26 525 -4 575 -4 c 256
 619 -4 659 9 695 35 c 256
 736 64 756 98 757 139 c 256
NamedP: "hr00"
433 480 m 257
 428 508 428 531 433 548 c 257
 433 648 l 258
 433 663 427 676 414 687 c 256
 405 696 395 700 385 700 c 256
 376 700 367 696 360 688 c 256
 353 681 350 673 350 664 c 257
 375 491 l 257
 377 484 381 479 387 476 c 257
 392 475 399 474 407 474 c 256
 417 474 426 476 433 480 c 257
EndSplineSet
PickledDataWithLists: "(dp1
S'com.adobe.type.autohint'
p2
(S'data'
S'<data>\\n  <hintSetList>\\n    <hintset pointTag=\"hr00\">\\n      <hstem pos=\"-4\" width=\"61\"/>\\n      <hstem pos=\"-4\" width=\"70\"/>\\n      <hstem pos=\"116\" width=\"79\"/>\\n      <hstem pos=\"208\" width=\"52\"/>\\n      <hstem pos=\"244\" width=\"57\"/>\\n      <hstem pos=\"256\" width=\"58\"/>\\n      <hstem pos=\"404\" width=\"53\"/>\\n      <vstem pos=\"127\" width=\"67\"/>\\n      <vstem pos=\"350\" width=\"83\"/>\\n      <vstem pos=\"570\" width=\"82\"/>\\n      <vstem pos=\"690\" width=\"67\"/>\\n    </hintset>\\n  </hintSetList>\\n  </data>'
Ntp3
s."
EndChar

StartChar: UU
Encoding: 125 3082 125
GlifName: UU_
Width: 1065
VWidth: 0
Flags: W
LayerCount: 2
Back
Fore
SplineSet
976 225 m 256
NamedP: "hr00"
 976 212 972 201 965 190 c 256
 955 177 940 170 920 170 c 256
 904 170 892 176 885 188 c 257
 878 197 875 208 875 221 c 256
 875 233 878 245 883 256 c 256
 888 269 895 280 905 289 c 257
 928 286 947 278 960 264 c 256
 971 252 976 239 976 225 c 256
NamedP: "hr00"
1045 225 m 256
 1045 250 1036 274 1018 295 c 256
 999 318 973 333 941 340 c 257
 964 355 981 373 993 393 c 256
 1006 414 1013 437 1013 463 c 256
 1013 502 995 531 960 551 c 256
 933 567 903 575 870 575 c 256
 833 575 801 565 776 545 c 256
 753 527 741 506 741 483 c 256
 741 463 745 449 753 440 c 256
 760 433 770 429 784 429 c 256
 795 429 804 431 811 436 c 256
 819 441 823 448 823 456 c 257
 822 459 820 462 818 465 c 256
 813 471 810 476 810 481 c 256
 810 494 815 505 826 513 c 256
 837 520 852 524 869 524 c 256
 884 524 898 519 913 510 c 256
 934 497 944 479 944 454 c 256
 944 424 931 396 904 369 c 258
 890 355 l 257
 859 355 l 257
 275 324 l 257
 299 349 332 366 373 376 c 256
 397 382 422 385 448 385 c 256
 475 385 504 380 536 370 c 256
 555 364 570 361 580 361 c 256
 587 361 593 366 598 375 c 256
 603 382 605 390 605 399 c 256
 605 413 595 423 576 430 c 256
 558 437 529 440 488 440 c 256
 417 440 357 430 310 411 c 256
 267 394 229 367 196 330 c 257
 71 330 l 258
 57 330 47 328 41 325 c 256
 34 320 30 311 30 296 c 256
 30 286 39 279 58 275 c 256
 72 272 93 270 121 270 c 258
 156 270 l 257
 151 263 147 251 144 234 c 256
 141 219 140 201 140 181 c 256
 140 136 156 96 188 59 c 256
 223 18 265 -2 316 -2 c 256
 349 -2 374 19 390 61 c 256
 399 86 409 99 420 99 c 256
 427 99 439 89 453 70 c 256
 491 19 534 -7 585 -7 c 256
 638 -7 682 7 718 34 c 256
 757 64 776 105 776 158 c 256
 776 179 767 201 750 223 c 256
 727 252 693 266 649 266 c 256
 623 266 600 261 579 251 c 256
 546 236 530 210 530 175 c 256
 530 161 536 148 548 136 c 256
 561 123 576 116 593 116 c 256
 605 116 614 119 621 125 c 256
 628 132 631 142 631 155 c 257
 619 155 610 158 605 164 c 256
 601 168 599 175 599 186 c 256
 599 195 604 202 614 208 c 256
 624 213 635 215 646 215 c 256
 661 215 675 210 688 198 c 256
 702 186 708 169 708 149 c 256
 708 120 697 97 674 78 c 256
 653 60 630 51 603 51 c 256
 550 51 505 84 468 149 c 256
 450 179 436 194 425 194 c 256
 401 194 379 170 358 121 c 256
 343 86 328 68 315 68 c 256
 282 68 256 82 235 111 c 256
 218 136 209 164 209 195 c 256
 209 216 210 232 213 243 c 256
 215 254 220 263 228 270 c 257
 793 301 l 257
 848 301 l 257
 835 292 824 280 816 265 c 256
 809 251 806 235 806 218 c 256
 806 185 818 158 843 138 c 256
 864 121 887 113 914 113 c 256
 950 113 980 126 1006 148 c 256
 1031 170 1044 195 1045 225 c 256
376 603 m 257
 376 620 372 633 365 643 c 256
 358 651 349 655 339 655 c 256
 324 655 313 647 306 630 c 256
 302 619 300 601 300 578 c 258
 300 538 l 258
 300 505 301 481 305 466 c 256
 309 448 318 439 329 439 c 256
 335 439 345 441 359 446 c 256
 366 449 371 450 374 451 c 257
 371 459 369 473 369 494 c 258
 369 501 l 258
 369 528 371 562 376 603 c 257
476 621 m 258
 476 636 473 646 468 653 c 256
 463 660 455 663 446 663 c 256
 429 663 418 653 413 634 c 256
 410 623 408 604 408 575 c 256
 408 524 411 492 413 478 c 256
 416 463 422 456 435 456 c 256
 445 456 455 459 464 466 c 257
 474 472 478 478 476 484 c 257
 476 521 l 257
 476 621 l 258
EndSplineSet
PickledDataWithLists: "(dp1
S'com.adobe.type.autohint'
p2
(S'data'
S'<data>\\n  <hintSetList>\\n    <hintset pointTag=\"hr00\">\\n      <hstem pos=\"-7\" width=\"58\"/>\\n      <hstem pos=\"-2\" width=\"70\"/>\\n      <hstem pos=\"99\" width=\"95\"/>\\n      <hstem pos=\"113\" width=\"57\"/>\\n      <hstem pos=\"116\" width=\"39\"/>\\n      <hstem pos=\"215\" width=\"51\"/>\\n      <hstem pos=\"270\" width=\"60\"/>\\n      <hstem pos=\"301\" width=\"54\"/>\\n      <hstem pos=\"385\" width=\"55\"/>\\n      <hstem pos=\"524\" width=\"51\"/>\\n      <vstem pos=\"140\" width=\"69\"/>\\n      <vstem pos=\"300\" width=\"69\"/>\\n      <vstem pos=\"408\" width=\"68\"/>\\n      <vstem pos=\"530\" width=\"69\"/>\\n      <vstem pos=\"708\" width=\"68\"/>\\n      <vstem pos=\"741\" width=\"69\"/>\\n      <vstem pos=\"806\" width=\"69\"/>\\n      <vstem pos=\"944\" width=\"69\"/>\\n      <vstem pos=\"976\" width=\"69\"/>\\n    </hintset>\\n  </hintSetList>\\n  </data>'
Ntp3
s."
EndChar

StartChar: Ru
Encoding: 126 3083 126
GlifName: Ru_
Width: 1351
VWidth: 0
Flags: W
LayerCount: 2
Back
Fore
SplineSet
658 171 m 256
NamedP: "hr00"
 658 138 645 109 619 86 c 256
 593 63 562 51 525 51 c 256
 509 51 492 57 473 69 c 256
 454 80 435 95 416 116 c 256
 404 129 392 147 380 170 c 256
 372 186 365 194 360 194 c 256
 351 194 340 189 329 178 c 256
 317 167 305 152 295 133 c 258
 283 110 l 258
 269 83 257 70 250 70 c 256
 243 70 239 92 239 135 c 258
 239 141 l 258
 239 194 247 246 264 298 c 258
 276 335 l 258
 287 370 294 392 294 401 c 256
 294 410 289 418 278 424 c 256
 266 431 252 434 236 434 c 256
 179 434 131 419 90 388 c 256
 50 357 30 319 30 275 c 256
 30 254 37 235 51 220 c 256
 66 205 83 198 103 198 c 256
 117 198 129 202 139 209 c 256
 149 216 154 225 154 236 c 256
 154 245 151 252 146 258 c 256
 141 263 135 267 126 269 c 256
 118 270 111 273 106 276 c 256
 101 279 99 283 99 286 c 256
 99 295 103 304 110 315 c 256
 117 325 128 335 141 346 c 256
 154 357 167 365 180 370 c 257
 192 376 203 379 213 379 c 256
 216 379 219 378 221 375 c 256
 224 372 225 369 225 365 c 256
 225 362 225 359 224 358 c 256
 210 323 197 283 186 240 c 256
 175 197 170 156 170 118 c 256
 170 85 176 57 188 34 c 256
 199 11 213 -2 230 -4 c 257
 247 -4 265 7 284 29 c 256
 303 50 321 78 336 114 c 257
 351 75 376 45 409 23 c 256
 442 0 477 -12 516 -12 c 256
 551 -12 584 -4 614 9 c 256
 645 23 670 41 689 66 c 257
 702 44 721 27 744 14 c 256
 767 1 793 -6 821 -6 c 256
 852 -6 880 -1 905 11 c 256
 930 23 950 40 963 61 c 257
 983 36 1005 17 1030 3 c 256
 1056 -12 1082 -19 1109 -19 c 256
 1170 -19 1223 0 1266 39 c 256
 1309 77 1331 123 1331 178 c 256
 1331 207 1323 237 1304 269 c 256
 1286 300 1258 330 1225 359 c 258
 1169 409 l 258
 1146 429 1128 444 1113 454 c 256
 1097 465 1084 470 1075 470 c 256
 1064 470 1053 467 1044 460 c 256
 1035 453 1031 445 1031 436 c 256
 1031 426 1039 414 1054 399 c 256
 1068 384 1088 368 1114 353 c 256
 1161 324 1197 293 1223 260 c 256
 1250 227 1263 197 1263 169 c 256
 1263 135 1250 107 1223 83 c 256
 1195 59 1164 46 1126 46 c 256
 1087 46 1054 59 1025 88 c 256
 997 116 984 150 984 189 c 257
 980 230 970 263 955 290 c 256
 940 317 924 331 906 331 c 256
 897 331 890 328 884 321 c 257
 877 316 874 308 874 299 c 256
 874 295 875 290 878 283 c 256
 880 276 884 269 889 260 c 256
 910 223 921 184 921 143 c 256
 921 120 912 101 893 86 c 256
 874 71 851 63 824 63 c 256
 803 63 784 70 766 85 c 256
 749 100 737 120 731 144 c 258
 726 164 l 257
 726 191 717 220 701 250 c 256
 685 280 664 309 633 335 c 258
 500 445 l 257
 499 447 497 449 494 450 c 256
 492 451 490 451 489 451 c 256
 477 451 467 445 459 434 c 256
 450 422 446 408 446 393 c 256
 446 380 469 359 516 328 c 258
 551 305 l 258
 584 284 610 262 629 239 c 256
 648 215 658 192 658 171 c 256
NamedP: "hr00"
EndSplineSet
PickledDataWithLists: "(dp1
S'com.adobe.type.autohint'
p2
(S'data'
S'<data>\\n  <hintSetList>\\n    <hintset pointTag=\"hr00\">\\n      <hstem pos=\"-19\" width=\"65\"/>\\n      <hstem pos=\"-12\" width=\"63\"/>\\n      <hstem pos=\"-6\" width=\"69\"/>\\n      <hstem pos=\"379\" width=\"55\"/>\\n      <vstem pos=\"30\" width=\"69\"/>\\n      <vstem pos=\"170\" width=\"69\"/>\\n      <vstem pos=\"658\" width=\"68\"/>\\n      <vstem pos=\"921\" width=\"63\"/>\\n      <vstem pos=\"1263\" width=\"68\"/>\\n    </hintset>\\n  </hintSetList>\\n  </data>'
Ntp3
s."
EndChar

StartChar: Lu
Encoding: 127 3084 127
GlifName: Lu_
Width: 1069
VWidth: 0
Flags: W
LayerCount: 2
Back
Fore
SplineSet
621 336 m 256
NamedP: "hr00"
 621 297 613 260 594 225 c 256
 576 191 550 162 519 141 c 256
 472 109 435 76 408 40 c 256
 381 4 368 -29 368 -60 c 256
 368 -69 370 -81 373 -96 c 256
 380 -129 407 -159 454 -186 c 256
 507 -217 568 -232 639 -232 c 256
 754 -232 855 -197 943 -126 c 256
 977 -98 1004 -62 1024 -19 c 256
 1041 17 1049 49 1049 78 c 256
 1049 129 1036 179 1010 226 c 256
 990 263 963 301 924 334 c 258
 900 354 l 258
 836 408 805 452 805 483 c 256
 805 498 803 508 799 513 c 256
 796 516 789 518 779 518 c 256
 762 518 751 512 744 501 c 256
 739 494 736 484 736 471 c 256
 736 440 767 395 830 336 c 256
 930 242 980 154 980 73 c 256
 980 7 945 -51 874 -100 c 256
 805 -148 729 -172 646 -172 c 256
 591 -172 542 -162 499 -139 c 256
 457 -117 436 -90 436 -61 c 256
 436 -40 446 -16 466 11 c 256
 486 40 514 69 551 100 c 256
 596 137 630 176 654 219 c 256
 678 262 690 303 690 343 c 256
 690 397 670 444 631 485 c 256
 592 525 547 545 494 545 c 256
 447 545 404 532 370 504 c 256
 338 479 321 448 318 415 c 257
 312 439 300 459 281 476 c 256
 259 496 232 506 201 506 c 256
 154 506 115 493 83 466 c 256
 48 437 30 400 30 353 c 256
 30 324 40 302 60 285 c 256
 77 270 96 263 118 263 c 256
 131 263 142 266 149 271 c 256
 158 277 163 286 163 298 c 256
 163 301 157 306 144 311 c 256
 114 324 99 340 99 361 c 256
 99 386 109 407 130 423 c 256
 147 437 167 444 190 444 c 256
 217 444 240 433 258 410 c 256
 273 390 283 365 286 335 c 257
 286 327 290 320 299 315 c 256
 306 310 316 308 329 308 c 256
 342 308 353 312 361 321 c 256
 370 330 374 343 374 358 c 256
 374 392 385 421 406 444 c 256
 427 467 453 479 483 479 c 256
 520 479 552 466 579 440 c 256
 607 413 621 378 621 336 c 256
NamedP: "hr00"
EndSplineSet
PickledDataWithLists: "(dp1
S'com.adobe.type.autohint'
p2
(S'data'
S'<data>\\n  <hintSetList>\\n    <hintset pointTag=\"hr00\">\\n      <hstem pos=\"-232\" width=\"60\"/>\\n      <hstem pos=\"415\" width=\"-20\"/>\\n      <hstem pos=\"444\" width=\"62\"/>\\n      <hstem pos=\"479\" width=\"66\"/>\\n      <vstem pos=\"30\" width=\"69\"/>\\n      <vstem pos=\"318\" width=\"56\"/>\\n      <vstem pos=\"368\" width=\"68\"/>\\n      <vstem pos=\"621\" width=\"69\"/>\\n      <vstem pos=\"736\" width=\"69\"/>\\n      <vstem pos=\"980\" width=\"69\"/>\\n    </hintset>\\n  </hintSetList>\\n  </data>'
Ntp3
s."
EndChar

StartChar: uni0C0E
Encoding: 128 3086 128
GlifName: uni0C0E_
Width: 571
VWidth: 0
Flags: W
LayerCount: 2
Back
Fore
SplineSet
196 90 m 256
NamedP: "hr00"
 196 84 190 77 178 68 c 256
 163 57 149 51 136 51 c 256
 125 51 115 56 108 65 c 256
 102 72 99 79 99 86 c 256
 99 99 103 112 111 123 c 256
 121 135 133 141 146 141 c 256
 159 141 169 138 178 133 c 257
 190 124 196 110 196 90 c 256
NamedP: "hr00"
551 178 m 256
 552 245 516 316 446 393 c 256
 417 425 397 450 385 469 c 257
 385 473 381 476 374 479 c 257
 367 480 361 481 355 481 c 256
 350 481 343 477 333 470 c 256
 322 461 316 453 316 446 c 256
 316 431 336 406 374 368 c 256
 448 296 483 231 483 176 c 256
 483 137 470 107 444 84 c 256
 422 65 398 56 371 56 c 256
 330 56 293 82 261 133 c 256
 232 180 200 203 164 203 c 256
 123 203 90 187 63 156 c 256
 41 131 30 107 30 83 c 256
 30 51 40 26 61 11 c 256
 79 -2 102 -7 131 -7 c 256
 149 -7 167 -2 185 9 c 256
 207 22 227 41 244 66 c 257
 258 41 276 22 298 10 c 256
 316 1 338 -4 364 -4 c 256
 412 -4 454 13 491 46 c 256
 529 81 550 125 551 178 c 256
EndSplineSet
PickledDataWithLists: "(dp1
S'com.adobe.type.autohint'
p2
(S'data'
S'<data>\\n  <hintSetList>\\n    <hintset pointTag=\"hr00\">\\n      <hstem pos=\"-7\" width=\"58\"/>\\n      <hstem pos=\"14\" width=\"-21\"/>\\n      <hstem pos=\"-4\" width=\"60\"/>\\n      <hstem pos=\"141\" width=\"62\"/>\\n      <vstem pos=\"30\" width=\"69\"/>\\n      <vstem pos=\"483\" width=\"68\"/>\\n    </hintset>\\n  </hintSetList>\\n  </data>'
Ntp3
s."
EndChar

StartChar: EE
Encoding: 129 3087 129
GlifName: EE_
Width: 571
VWidth: 0
Flags: W
LayerCount: 2
Back
Fore
SplineSet
196 90 m 256
NamedP: "hr00"
 196 84 190 77 178 68 c 256
 163 57 149 51 136 51 c 256
 125 51 115 56 108 65 c 256
 102 72 99 79 99 86 c 256
 99 99 103 112 111 123 c 256
 121 135 133 141 146 141 c 256
 159 141 169 138 178 133 c 257
 190 124 196 110 196 90 c 256
NamedP: "hr00"
551 178 m 256
 552 245 516 316 446 393 c 256
 417 425 397 450 385 469 c 257
 385 473 381 476 374 479 c 257
 367 480 361 481 355 481 c 256
 350 481 343 477 333 470 c 256
 322 461 316 453 316 446 c 256
 316 431 336 406 374 368 c 256
 448 296 483 231 483 176 c 256
 483 137 470 107 444 84 c 256
 422 65 398 56 371 56 c 256
 330 56 293 82 261 133 c 256
 232 180 200 203 164 203 c 256
 123 203 90 187 63 156 c 256
 41 131 30 107 30 83 c 256
 30 51 40 26 61 11 c 256
 79 -2 102 -7 131 -7 c 256
 149 -7 167 -2 185 9 c 256
 208 22 227 41 244 66 c 257
 258 41 276 22 298 10 c 256
 316 1 338 -4 364 -4 c 256
 412 -4 454 13 491 46 c 256
 529 81 550 125 551 178 c 256
551 540 m 257
 544 576 523 605 490 626 c 256
 453 649 407 661 351 661 c 256
 260 661 184 637 125 590 c 256
 64 541 33 476 33 396 c 256
 33 371 40 347 53 324 c 256
 67 300 86 280 110 263 c 256
 115 260 120 259 124 259 c 256
 133 259 142 263 149 270 c 256
 156 277 160 284 160 291 c 256
 160 300 152 309 139 321 c 256
 113 343 101 368 101 395 c 256
 101 462 129 515 183 556 c 256
 229 590 282 608 344 608 c 256
 407 608 456 585 490 539 c 256
 504 520 516 511 526 511 c 256
 532 511 538 513 543 518 c 256
 548 523 551 529 551 536 c 258
 551 540 l 257
EndSplineSet
PickledDataWithLists: "(dp1
S'com.adobe.type.autohint'
p2
(S'data'
S'<data>\\n  <hintSetList>\\n    <hintset pointTag=\"hr00\">\\n      <hstem pos=\"-7\" width=\"58\"/>\\n      <hstem pos=\"14\" width=\"-21\"/>\\n      <hstem pos=\"-4\" width=\"60\"/>\\n      <hstem pos=\"141\" width=\"62\"/>\\n      <hstem pos=\"608\" width=\"53\"/>\\n      <vstem pos=\"30\" width=\"69\"/>\\n      <vstem pos=\"33\" width=\"68\"/>\\n      <vstem pos=\"483\" width=\"68\"/>\\n    </hintset>\\n  </hintSetList>\\n  </data>'
Ntp3
s."
EndChar

StartChar: AI
Encoding: 130 3088 130
GlifName: AI_
Width: 720
VWidth: 0
Flags: W
LayerCount: 2
Back
Fore
SplineSet
227 93 m 256
NamedP: "hr00"
 227 82 221 73 210 64 c 256
 197 55 183 50 168 50 c 256
 157 50 148 54 141 62 c 257
 135 67 132 75 132 84 c 256
 132 101 136 114 144 123 c 256
 153 133 165 138 178 138 c 256
 193 138 203 136 210 132 c 256
 221 125 227 112 227 93 c 256
NamedP: "hr00"
700 313 m 258
 700 358 687 404 661 452 c 256
 620 526 560 563 481 563 c 256
 438 563 399 549 367 519 c 256
 343 497 326 468 313 435 c 257
 297 465 276 487 249 500 c 256
 229 510 207 515 182 515 c 256
 143 515 110 504 82 483 c 256
 47 458 30 423 30 380 c 256
 30 355 38 333 55 314 c 256
 71 295 90 285 112 285 c 256
 126 285 137 288 146 293 c 256
 155 299 160 307 160 318 c 256
 160 325 153 332 139 338 c 256
 112 349 98 369 98 400 c 256
 98 421 109 437 132 447 c 256
 147 454 163 457 182 457 c 256
 201 457 222 451 244 436 c 256
 272 418 285 394 285 366 c 256
 285 361 288 357 293 354 c 256
 298 352 304 351 311 351 c 256
 323 351 333 354 342 359 c 256
 349 364 353 371 353 379 c 256
 353 397 363 419 383 445 c 256
 408 479 440 496 479 496 c 256
 513 496 545 482 575 455 c 256
 613 420 632 372 632 313 c 256
 632 249 613 193 575 145 c 256
 533 91 479 64 412 64 c 256
 371 64 333 87 298 133 c 256
 265 177 231 199 196 199 c 256
 156 199 124 183 97 153 c 256
 76 128 64 105 64 81 c 256
 64 50 74 26 95 11 c 256
 112 -1 135 -7 163 -7 c 256
 183 -7 202 -3 219 6 c 256
 243 18 261 38 274 65 c 257
 292 42 314 24 339 13 c 256
 362 2 388 -4 417 -4 c 256
 486 -4 550 23 608 81 c 256
 669 141 700 213 700 294 c 258
 700 313 l 258
EndSplineSet
PickledDataWithLists: "(dp1
S'com.adobe.type.autohint'
p2
(S'data'
S'<data>\\n  <hintSetList>\\n    <hintset pointTag=\"hr00\">\\n      <hstem pos=\"-7\" width=\"57\"/>\\n      <hstem pos=\"-4\" width=\"68\"/>\\n      <hstem pos=\"138\" width=\"61\"/>\\n      <hstem pos=\"457\" width=\"58\"/>\\n      <hstem pos=\"496\" width=\"67\"/>\\n      <vstem pos=\"30\" width=\"68\"/>\\n      <vstem pos=\"64\" width=\"68\"/>\\n      <vstem pos=\"285\" width=\"68\"/>\\n      <vstem pos=\"632\" width=\"68\"/>\\n    </hintset>\\n  </hintSetList>\\n  </data>'
Ntp3
s."
EndChar

StartChar: uni0C12
Encoding: 131 3090 131
GlifName: uni0C12_
Width: 713
VWidth: 0
Flags: W
LayerCount: 2
Back
Fore
SplineSet
518 -14 m 256
NamedP: "hr00"
 569 -14 612 2 645 34 c 256
 677 64 693 100 693 143 c 256
 693 184 683 217 663 241 c 256
 646 260 629 270 610 270 c 256
 595 270 583 265 573 256 c 256
 563 248 558 239 558 229 c 256
 558 224 564 217 576 210 c 256
 608 193 624 168 624 136 c 256
 624 108 611 86 586 70 c 256
 567 59 547 53 526 53 c 256
 498 53 471 64 446 86 c 256
 425 105 409 130 394 160 c 258
 391 166 l 258
 382 185 372 195 361 195 c 256
 338 195 312 168 283 114 c 256
 268 85 257 71 251 71 c 256
 242 71 239 90 239 129 c 258
 239 141 l 258
 239 190 250 251 275 326 c 256
 287 364 294 389 294 401 c 256
 295 416 289 425 276 430 c 256
 268 433 255 435 238 435 c 256
 189 435 141 420 98 388 c 256
 52 354 30 316 30 275 c 256
 30 252 37 233 50 219 c 256
 63 204 81 196 104 196 c 256
 119 196 131 199 140 206 c 256
 151 214 156 224 156 236 c 256
 156 255 144 267 121 271 c 256
 106 274 99 279 99 286 c 256
 99 304 114 324 143 346 c 256
 171 367 195 378 214 378 c 256
 217 378 219 377 221 374 c 256
 224 371 225 368 225 365 c 256
 225 362 225 359 224 358 c 256
 188 261 170 181 170 118 c 256
 170 89 173 63 181 41 c 256
 191 13 209 -2 231 -5 c 257
 251 -5 272 9 294 36 c 256
 309 55 323 80 338 110 c 257
 350 82 372 56 403 31 c 256
 440 1 478 -14 518 -14 c 256
NamedP: "hr00"
EndSplineSet
PickledDataWithLists: "(dp1
S'com.adobe.type.autohint'
p2
(S'data'
S'<data>\\n  <hintSetList>\\n    <hintset pointTag=\"hr00\">\\n      <hstem pos=\"-14\" width=\"67\"/>\\n      <hstem pos=\"16\" width=\"-21\"/>\\n      <hstem pos=\"378\" width=\"57\"/>\\n      <vstem pos=\"30\" width=\"69\"/>\\n      <vstem pos=\"170\" width=\"69\"/>\\n      <vstem pos=\"624\" width=\"69\"/>\\n    </hintset>\\n  </hintSetList>\\n  </data>'
Ntp3
s."
EndChar

StartChar: OO
Encoding: 132 3091 132
GlifName: OO_
Width: 713
VWidth: 0
Flags: W
LayerCount: 2
Back
Fore
SplineSet
518 -14 m 256
NamedP: "hr00"
 569 -14 612 2 645 34 c 256
 677 64 693 100 693 143 c 256
 693 184 683 217 663 241 c 256
 646 260 629 270 610 270 c 256
 595 270 583 265 573 256 c 256
 563 248 558 239 558 229 c 256
 558 224 564 217 576 210 c 256
 608 193 624 168 624 136 c 256
 624 108 611 86 586 70 c 256
 567 59 547 53 526 53 c 256
 498 53 471 64 446 86 c 256
 425 105 409 130 394 160 c 258
 391 166 l 258
 382 185 372 195 361 195 c 256
 338 195 312 168 283 114 c 256
 268 85 257 71 251 71 c 256
 242 71 239 90 239 129 c 258
 239 141 l 258
 239 190 250 251 275 326 c 256
 287 364 294 389 294 401 c 257
 295 407 295 413 294 418 c 257
 288 429 l 257
 272 444 260 459 251 475 c 256
 241 494 236 515 236 538 c 256
 236 565 247 587 268 603 c 256
 287 618 310 625 339 625 c 256
 360 625 379 621 395 613 c 256
 414 603 424 588 424 568 c 256
 424 555 426 545 431 538 c 256
 438 529 448 524 463 524 c 256
 476 524 485 528 489 536 c 256
 492 541 493 551 493 566 c 256
 493 602 478 631 449 654 c 256
 420 677 385 688 343 688 c 256
 287 688 244 673 213 644 c 256
 183 617 168 580 168 535 c 256
 168 501 180 467 204 433 c 257
 160 425 120 406 85 376 c 256
 48 345 30 311 30 275 c 256
 30 252 37 233 50 219 c 256
 63 204 81 196 104 196 c 256
 119 196 131 199 140 206 c 256
 151 214 156 224 156 236 c 256
 156 255 144 267 121 271 c 256
 106 274 99 279 99 286 c 256
 99 304 114 324 143 346 c 256
 171 367 195 378 214 378 c 256
 217 378 219 377 221 374 c 256
 224 371 225 368 225 365 c 256
 225 362 225 359 224 358 c 256
 188 261 170 181 170 118 c 256
 170 89 173 63 181 41 c 256
 191 13 209 -2 231 -5 c 257
 251 -5 272 9 294 36 c 256
 309 55 323 80 338 110 c 257
 350 82 372 56 403 31 c 256
 440 1 478 -14 518 -14 c 256
NamedP: "hr00"
EndSplineSet
PickledDataWithLists: "(dp1
S'com.adobe.type.autohint'
p2
(S'data'
S'<data>\\n  <hintSetList>\\n    <hintset pointTag=\"hr00\">\\n      <hstem pos=\"-14\" width=\"67\"/>\\n      <hstem pos=\"16\" width=\"-21\"/>\\n      <hstem pos=\"625\" width=\"63\"/>\\n      <vstem pos=\"30\" width=\"69\"/>\\n      <vstem pos=\"168\" width=\"68\"/>\\n      <vstem pos=\"170\" width=\"69\"/>\\n      <vstem pos=\"424\" width=\"69\"/>\\n      <vstem pos=\"624\" width=\"69\"/>\\n    </hintset>\\n  </hintSetList>\\n  </data>'
Ntp3
s."
EndChar

StartChar: AU
Encoding: 133 3092 133
GlifName: AU_
Width: 713
VWidth: 0
Flags: W
LayerCount: 2
Back
Fore
SplineSet
518 -14 m 256
NamedP: "hr00"
 569 -14 612 2 645 34 c 256
 677 64 693 100 693 143 c 256
 693 184 683 217 663 241 c 256
 646 260 629 270 610 270 c 256
 595 270 583 265 573 256 c 256
 563 248 558 239 558 229 c 256
 558 224 564 217 576 210 c 256
 608 193 624 168 624 136 c 256
 624 108 611 86 586 70 c 256
 567 59 547 53 526 53 c 256
 498 53 471 64 446 86 c 256
 425 105 409 130 394 160 c 258
 391 166 l 258
 382 185 372 195 361 195 c 256
 338 195 312 168 283 114 c 256
 268 85 257 71 251 71 c 256
 242 71 239 90 239 129 c 258
 239 141 l 258
 239 190 250 251 275 326 c 256
 287 364 294 389 294 401 c 257
 295 404 296 406 296 408 c 256
 296 409 296 411 295 414 c 257
 305 425 313 434 318 443 c 256
 325 456 329 470 329 485 c 256
 329 500 325 515 318 529 c 256
 313 537 306 548 295 561 c 257
 493 561 l 258
 532 561 560 557 579 550 c 256
 604 540 616 523 616 498 c 256
 616 480 612 466 604 455 c 256
 594 441 579 434 558 434 c 256
 543 434 531 438 524 445 c 256
 518 452 515 460 515 469 c 258
 515 493 l 258
 515 500 513 506 510 511 c 256
 505 517 497 520 486 520 c 256
 475 520 465 516 458 508 c 256
 450 499 446 488 446 473 c 256
 446 444 456 421 475 403 c 256
 496 384 523 375 558 375 c 256
 588 375 615 385 640 405 c 256
 671 429 689 460 686 499 c 258
 685 513 l 258
 683 544 673 569 648 590 c 256
 623 610 593 618 558 618 c 258
 280 618 l 257
 80 618 l 258
 65 618 54 616 45 610 c 256
 37 604 33 597 33 588 c 256
 33 577 36 568 43 561 c 256
 50 553 60 549 74 549 c 258
 191 549 l 258
 213 549 230 544 241 534 c 256
 254 524 260 508 260 485 c 256
 260 468 254 455 241 445 c 256
 230 437 216 433 201 433 c 257
 164 438 l 257
 155 438 148 436 143 431 c 256
 136 426 132 417 131 406 c 257
 102 391 79 373 60 350 c 256
 40 325 30 300 30 275 c 256
 30 252 37 233 50 219 c 256
 63 204 81 196 104 196 c 256
 119 196 131 199 140 206 c 256
 151 214 156 224 156 236 c 256
 156 255 144 267 121 271 c 256
 106 274 99 279 99 286 c 256
 99 304 114 324 143 346 c 256
 171 367 195 378 214 378 c 256
 217 378 219 377 221 374 c 256
 224 371 225 368 225 365 c 256
 225 362 225 359 224 358 c 256
 188 261 170 181 170 118 c 256
 170 89 173 63 181 41 c 256
 191 13 209 -2 231 -5 c 257
 251 -5 272 9 294 36 c 256
 309 55 323 80 338 110 c 257
 350 82 372 56 403 31 c 256
 440 1 478 -14 518 -14 c 256
NamedP: "hr00"
EndSplineSet
PickledDataWithLists: "(dp1
S'com.adobe.type.autohint'
p2
(S'data'
S'<data>\\n  <hintSetList>\\n    <hintset pointTag=\"hr00\">\\n      <hstem pos=\"-14\" width=\"67\"/>\\n      <hstem pos=\"16\" width=\"-21\"/>\\n      <hstem pos=\"375\" width=\"59\"/>\\n      <hstem pos=\"378\" width=\"55\"/>\\n      <hstem pos=\"414\" width=\"-20\"/>\\n      <hstem pos=\"561\" width=\"57\"/>\\n      <vstem pos=\"30\" width=\"69\"/>\\n      <vstem pos=\"170\" width=\"69\"/>\\n      <vstem pos=\"260\" width=\"69\"/>\\n      <vstem pos=\"446\" width=\"69\"/>\\n      <vstem pos=\"616\" width=\"70\"/>\\n      <vstem pos=\"624\" width=\"69\"/>\\n    </hintset>\\n  </hintSetList>\\n  </data>'
Ntp3
s."
EndChar

StartChar: Ka
Encoding: 134 3093 134
GlifName: Ka_
Width: 488
VWidth: 0
Flags: W
LayerCount: 2
Back
Fore
SplineSet
229 417 m 257
NamedP: "hr00"
 221 422 212 425 201 425 c 258
 185 425 l 258
 175 425 166 428 159 433 c 256
 152 438 148 443 148 450 c 256
 148 466 183 498 254 546 c 256
 311 585 346 612 359 629 c 256
 374 648 384 664 391 676 c 256
 400 693 405 708 405 721 c 256
 405 734 402 744 395 751 c 256
 388 760 379 765 366 766 c 256
 354 766 343 763 334 758 c 256
 324 751 317 741 314 728 c 256
 304 690 290 662 273 645 c 256
 248 620 209 592 156 560 c 256
 89 519 55 482 55 448 c 256
 55 425 68 406 93 390 c 256
 104 382 117 376 131 373 c 257
 64 334 30 291 30 245 c 256
 30 222 38 204 55 193 c 256
 72 181 98 172 131 175 c 258
 271 186 l 258
 304 189 330 184 348 179 c 256
 372 172 384 160 384 143 c 256
 384 117 364 95 325 76 c 256
 291 59 255 51 216 51 c 256
 189 51 153 56 108 65 c 256
 88 69 75 71 69 71 c 256
 56 71 47 68 41 63 c 256
 34 58 31 50 31 39 c 256
 31 16 47 2 79 -5 c 256
 99 -10 134 -12 183 -12 c 256
 253 -12 316 2 371 29 c 256
 436 60 468 101 468 151 c 256
 468 178 456 199 431 215 c 256
 403 232 361 245 304 241 c 258
 154 231 l 258
 140 230 127 232 116 235 c 256
 105 238 99 243 99 250 c 256
 99 279 125 305 178 328 c 256
 233 353 298 365 373 365 c 256
 377 365 383 368 390 374 c 256
 399 380 403 386 403 391 c 256
 403 403 397 414 386 423 c 256
 376 432 364 436 351 436 c 256
 310 436 270 430 229 417 c 257
NamedP: "hr00"
EndSplineSet
PickledDataWithLists: "(dp1
S'com.adobe.type.autohint'
p2
(S'data'
S'<data>\\n  <hintSetList>\\n    <hintset pointTag=\"hr00\">\\n      <hstem pos=\"-12\" width=\"63\"/>\\n      <hstem pos=\"-5\" width=\"56\"/>\\n      <hstem pos=\"186\" width=\"55\"/>\\n      <hstem pos=\"365\" width=\"71\"/>\\n      <hstem pos=\"417\" width=\"-20\"/>\\n      <vstem pos=\"30\" width=\"69\"/>\\n      <vstem pos=\"55\" width=\"93\"/>\\n      <vstem pos=\"384\" width=\"84\"/>\\n    </hintset>\\n  </hintSetList>\\n  </data>'
Ntp3
s."
EndChar

StartChar: Kha
Encoding: 135 3094 135
GlifName: Kha_
Width: 714
VWidth: 0
Flags: W
LayerCount: 2
Back
Fore
SplineSet
356 -5 m 258
NamedP: "hr00"
 356 0 354 5 351 8 c 257
 347 10 342 11 335 11 c 256
 322 11 310 6 301 -4 c 256
 292 -14 288 -27 288 -42 c 258
 288 -180 l 258
 288 -184 289 -187 291 -190 c 257
 294 -191 298 -192 304 -192 c 256
 312 -192 322 -190 333 -186 c 256
 344 -182 351 -177 356 -171 c 257
 356 -5 l 258
NamedP: "hr00"
636 56 m 256
 675 93 694 137 694 190 c 256
 694 249 670 302 623 351 c 256
 576 400 525 425 469 425 c 256
 455 425 444 422 435 415 c 256
 428 408 424 399 424 386 c 256
 424 375 428 366 436 359 c 256
 445 352 462 346 485 340 c 256
 526 330 559 311 585 283 c 256
 612 254 625 222 625 189 c 256
 625 152 613 123 590 100 c 256
 567 77 536 66 498 66 c 256
 459 66 416 80 371 109 c 257
 397 154 410 191 410 221 c 256
 410 276 389 321 348 356 c 256
 307 392 254 410 191 410 c 256
 142 410 103 400 74 379 c 256
 45 358 30 331 30 296 c 256
 30 274 38 255 54 240 c 256
 71 225 91 218 115 218 c 256
 144 218 169 225 190 241 c 256
 211 257 221 277 221 300 c 256
 221 313 219 324 215 334 c 256
 211 344 205 353 196 360 c 257
 241 360 275 346 301 321 c 256
 327 295 341 262 341 219 c 256
 341 187 335 160 323 139 c 257
 274 170 226 185 179 185 c 256
 140 185 107 177 84 159 c 256
 60 141 49 117 49 88 c 256
 49 62 61 41 86 23 c 256
 111 5 140 -5 175 -5 c 256
 207 -5 236 0 261 11 c 256
 287 22 310 38 329 59 c 257
 358 43 l 258
 408 15 453 0 496 0 c 256
 551 0 597 19 636 56 c 256
238 125 m 256
 257 118 272 110 283 99 c 257
 284 96 l 257
 273 83 258 73 239 66 c 256
 220 59 198 56 173 56 c 256
 154 56 140 59 131 65 c 256
 122 71 118 80 118 93 c 256
 118 103 125 112 138 121 c 256
 150 130 163 135 178 135 c 256
 199 135 219 132 238 125 c 256
156 275 m 257
 146 267 133 263 118 263 c 256
 107 263 98 266 91 273 c 256
 84 280 81 289 81 300 c 256
 81 313 86 323 95 331 c 256
 105 340 117 345 130 345 c 256
 141 345 150 341 159 334 c 256
 166 327 170 318 170 308 c 256
 170 295 165 284 156 275 c 257
EndSplineSet
PickledDataWithLists: "(dp1
S'com.adobe.type.autohint'
p2
(S'data'
S'<data>\\n  <hintSetList>\\n    <hintset pointTag=\"hr00\">\\n      <hstem pos=\"-5\" width=\"61\"/>\\n      <hstem pos=\"0\" width=\"66\"/>\\n      <hstem pos=\"135\" width=\"50\"/>\\n      <hstem pos=\"218\" width=\"45\"/>\\n      <hstem pos=\"360\" width=\"50\"/>\\n      <vstem pos=\"30\" width=\"51\"/>\\n      <vstem pos=\"49\" width=\"69\"/>\\n      <vstem pos=\"170\" width=\"51\"/>\\n      <vstem pos=\"288\" width=\"68\"/>\\n      <vstem pos=\"341\" width=\"69\"/>\\n      <vstem pos=\"625\" width=\"69\"/>\\n    </hintset>\\n  </hintSetList>\\n  </data>'
Ntp3
s."
EndChar

StartChar: Ga
Encoding: 136 3095 136
GlifName: Ga_
Width: 570
VWidth: 0
Flags: W
LayerCount: 2
Back
Fore
SplineSet
322 419 m 257
NamedP: "hr00"
 316 422 309 424 302 425 c 256
 293 427 284 428 275 428 c 257
 267 427 l 257
 263 428 259 430 256 433 c 256
 249 438 245 443 245 450 c 256
 245 466 280 498 351 546 c 256
 408 585 443 612 456 629 c 256
 471 648 482 664 489 676 c 256
 498 693 503 708 503 721 c 256
 503 734 500 744 493 751 c 256
 486 760 477 765 464 766 c 256
 451 766 440 763 431 758 c 256
 421 751 414 741 411 728 c 256
 401 690 387 662 370 645 c 256
 345 620 307 592 254 560 c 256
 187 519 153 482 153 448 c 256
 153 428 163 411 182 396 c 257
 156 377 132 350 108 315 c 256
 57 240 30 160 30 71 c 256
 30 50 34 34 41 21 c 257
 49 9 59 3 71 3 c 256
 86 3 97 8 104 18 c 256
 111 28 115 42 115 61 c 258
 115 98 l 258
 115 165 131 224 163 276 c 256
 195 328 232 354 273 354 c 256
 318 354 364 316 411 239 c 256
 458 162 481 85 481 9 c 256
 481 0 484 -6 489 -11 c 257
 495 -15 503 -17 513 -17 c 256
 524 -17 533 -14 540 -7 c 257
 547 -2 550 7 550 18 c 256
 550 113 520 206 461 295 c 256
 416 362 369 403 322 419 c 257
NamedP: "hr00"
EndSplineSet
PickledDataWithLists: "(dp1
S'com.adobe.type.autohint'
p2
(S'data'
S'<data>\\n  <hintSetList>\\n    <hintset pointTag=\"hr00\">\\n      <hstem pos=\"354\" width=\"74\"/>\\n      <vstem pos=\"30\" width=\"85\"/>\\n      <vstem pos=\"153\" width=\"92\"/>\\n      <vstem pos=\"481\" width=\"69\"/>\\n    </hintset>\\n  </hintSetList>\\n  </data>'
Ntp3
s."
EndChar

StartChar: Gha
Encoding: 137 3096 137
GlifName: Gha_
Width: 976
VWidth: 0
Flags: W
LayerCount: 2
Back
Fore
SplineSet
284 -237 m 256
NamedP: "hr00"
 297 -232 303 -224 303 -214 c 257
 296 -199 294 -181 295 -162 c 257
 296 -157 296 -153 296 -150 c 258
 295 -95 l 258
 294 -63 296 -40 300 -25 c 257
 304 -15 301 -8 290 -4 c 256
 283 -1 274 0 263 0 c 256
 250 0 241 -3 234 -10 c 256
 227 -17 223 -30 223 -47 c 257
 226 -62 228 -84 228 -114 c 258
 228 -179 l 258
 228 -202 230 -218 233 -227 c 256
 236 -238 243 -244 254 -244 c 256
 264 -244 274 -242 284 -237 c 256
NamedP: "hr00"
552 67 m 257
 561 56 572 46 585 36 c 256
 625 6 673 -9 730 -9 c 256
 801 -9 856 6 895 35 c 256
 936 65 953 108 951 165 c 256
 950 197 940 232 918 269 c 256
 896 306 870 336 839 361 c 258
 768 419 l 258
 728 451 704 468 691 468 c 256
 677 468 667 464 660 456 c 257
 653 451 650 442 650 430 c 256
 650 415 675 392 726 361 c 256
 831 296 883 232 883 169 c 256
 883 136 870 110 844 90 c 256
 819 71 787 61 749 61 c 256
 708 61 673 69 644 86 c 256
 614 103 597 124 594 149 c 256
 594 152 593 155 591 158 c 257
 592 166 593 175 593 184 c 256
 593 217 579 250 551 285 c 256
 524 320 487 353 440 383 c 257
 429 383 418 379 409 371 c 257
 399 364 394 355 394 346 c 256
 394 326 411 307 444 288 c 256
 497 257 524 216 524 166 c 256
 524 132 508 105 476 85 c 256
 449 68 422 60 393 60 c 256
 354 60 319 85 288 134 c 256
 257 182 222 206 185 206 c 256
 144 206 109 190 81 159 c 256
 59 133 48 108 48 83 c 256
 48 50 59 24 80 9 c 256
 99 -5 123 -11 153 -11 c 256
 171 -11 189 -7 208 4 c 256
 230 17 249 35 265 59 c 257
 281 32 302 13 328 4 c 256
 346 -3 372 -6 406 -6 c 256
 453 -6 495 11 533 46 c 257
 552 67 l 257
240 476 m 258
 299 531 334 592 356 645 c 256
 357 647 358 650 358 654 c 256
 358 661 353 669 344 678 c 257
 335 685 325 688 316 688 c 256
 305 688 294 676 281 653 c 256
 258 611 232 569 204 526 c 257
 195 515 175 495 143 464 c 256
 68 394 30 344 30 313 c 256
 30 303 33 295 40 290 c 256
 47 284 54 281 63 281 c 256
 74 281 82 284 86 290 c 256
 89 293 93 301 98 313 c 257
 103 334 140 384 215 453 c 258
 240 476 l 258
194 129 m 256
 207 120 214 107 214 90 c 256
 214 85 208 78 196 69 c 256
 183 60 170 55 158 55 c 256
 147 55 137 59 128 68 c 256
 120 75 116 81 116 86 c 256
 116 99 122 110 133 121 c 256
 144 132 155 138 168 138 c 256
 176 138 185 135 194 129 c 256
EndSplineSet
PickledDataWithLists: "(dp1
S'com.adobe.type.autohint'
p2
(S'data'
S'<data>\\n  <hintSetList>\\n    <hintset pointTag=\"hr00\">\\n      <hstem pos=\"-11\" width=\"66\"/>\\n      <hstem pos=\"-9\" width=\"70\"/>\\n      <hstem pos=\"-6\" width=\"66\"/>\\n      <hstem pos=\"138\" width=\"68\"/>\\n      <vstem pos=\"48\" width=\"68\"/>\\n      <vstem pos=\"228\" width=\"67\"/>\\n      <vstem pos=\"524\" width=\"69\"/>\\n      <vstem pos=\"883\" width=\"68\"/>\\n    </hintset>\\n  </hintSetList>\\n  </data>'
Ntp3
s."
EndChar

StartChar: uni0C19
Encoding: 138 3097 138
GlifName: uni0C19_
Width: 713
VWidth: 0
Flags: W
LayerCount: 2
Back
Fore
SplineSet
403 31 m 256
NamedP: "hr00"
 440 1 478 -14 518 -14 c 256
 569 -14 612 2 645 34 c 256
 677 64 693 100 693 143 c 256
 693 184 683 217 663 241 c 256
 646 260 629 270 610 270 c 256
 595 270 583 265 573 256 c 256
 563 248 558 239 558 229 c 256
 558 224 564 217 576 210 c 256
 608 193 624 168 624 136 c 256
 624 108 611 86 586 70 c 256
 567 59 547 53 526 53 c 256
 498 53 471 64 446 86 c 256
 425 105 409 130 394 160 c 258
 391 166 l 258
 382 185 372 195 361 195 c 256
 338 195 312 168 283 114 c 256
 268 85 257 71 251 71 c 256
 242 71 239 90 239 129 c 258
 239 141 l 258
 239 192 248 245 266 300 c 257
 478 284 l 258
 511 282 535 286 548 291 c 256
 563 297 570 308 570 324 c 256
 570 331 566 338 559 344 c 256
 552 351 543 353 534 351 c 257
 431 351 l 257
 431 484 l 257
 430 495 426 504 420 509 c 256
 415 513 407 515 396 515 c 256
 385 515 376 511 371 504 c 256
 366 498 363 489 364 478 c 258
 374 354 l 257
 289 361 l 257
 292 371 294 384 294 401 c 256
 294 416 288 425 275 430 c 256
 267 433 255 435 238 435 c 256
 189 435 141 420 98 388 c 256
 52 354 30 316 30 275 c 256
 30 252 37 233 50 219 c 256
 63 204 81 196 104 196 c 256
 119 196 131 199 140 206 c 256
 151 214 156 224 156 236 c 256
 156 255 144 267 121 271 c 256
 106 274 99 279 99 286 c 256
 99 304 114 324 143 346 c 256
 171 367 195 378 214 378 c 256
 217 378 219 377 221 374 c 256
 224 371 225 368 225 365 c 256
 225 362 225 359 224 358 c 256
 188 261 170 181 170 118 c 256
 170 89 173 63 181 41 c 256
 191 13 209 -2 231 -5 c 257
 251 -5 272 9 294 36 c 256
 309 55 323 80 338 110 c 257
 350 82 372 56 403 31 c 256
NamedP: "hr00"
EndSplineSet
PickledDataWithLists: "(dp1
S'com.adobe.type.autohint'
p2
(S'data'
S'<data>\\n  <hintSetList>\\n    <hintset pointTag=\"hr00\">\\n      <hstem pos=\"-14\" width=\"67\"/>\\n      <hstem pos=\"16\" width=\"-21\"/>\\n      <hstem pos=\"284\" width=\"67\"/>\\n      <hstem pos=\"378\" width=\"57\"/>\\n      <vstem pos=\"30\" width=\"69\"/>\\n      <vstem pos=\"170\" width=\"69\"/>\\n      <vstem pos=\"225\" width=\"69\"/>\\n      <vstem pos=\"364\" width=\"67\"/>\\n      <vstem pos=\"624\" width=\"69\"/>\\n    </hintset>\\n  </hintSetList>\\n  </data>'
Ntp3
s."
EndChar

StartChar: Ca
Encoding: 139 3098 139
GlifName: Ca_
Width: 800
VWidth: 0
Flags: W
LayerCount: 2
Back
Fore
SplineSet
502 424 m 257
NamedP: "hr00"
 497 425 493 426 488 426 c 258
 471 426 l 258
 461 426 452 429 445 434 c 256
 438 439 434 444 434 451 c 256
 434 467 469 500 540 548 c 256
 597 587 632 613 645 630 c 256
 660 649 671 665 678 678 c 256
 687 695 691 710 691 723 c 256
 691 735 688 745 681 753 c 256
 674 762 665 768 653 768 c 256
 640 769 629 765 620 759 c 256
 610 752 603 742 600 729 c 256
 590 692 576 664 559 646 c 256
 534 621 495 593 443 561 c 256
 375 520 341 483 341 449 c 256
 341 426 354 407 379 391 c 256
 402 376 431 368 464 368 c 257
 467 367 471 366 475 366 c 258
 480 366 l 258
 557 366 614 345 653 303 c 256
 686 266 703 220 703 163 c 256
 703 132 690 108 663 91 c 256
 640 76 612 69 581 69 c 256
 540 69 501 98 466 156 c 256
 442 196 420 216 401 216 c 256
 376 216 349 188 319 131 c 256
 300 96 285 79 275 79 c 256
 264 79 254 86 243 101 c 256
 230 119 224 140 224 165 c 256
 224 208 250 237 303 251 c 256
 334 260 350 272 350 288 c 257
 352 299 348 306 338 311 c 256
 331 314 322 316 311 316 c 257
 183 301 l 257
 143 301 110 307 83 319 c 256
 74 323 67 325 63 325 c 256
 55 325 47 321 40 313 c 256
 33 304 30 297 30 290 c 256
 30 273 41 261 64 254 c 256
 81 249 105 248 136 248 c 258
 190 248 l 257
 181 240 173 229 168 216 c 257
 159 199 155 179 155 158 c 256
 155 123 168 88 193 53 c 256
 221 13 254 -7 291 -7 c 256
 311 -7 331 15 351 58 c 256
 368 93 383 116 398 126 c 257
 415 91 435 62 458 41 c 256
 489 12 523 -2 560 -2 c 256
 632 -2 687 15 726 50 c 256
 762 83 777 121 771 164 c 257
 771 234 753 291 718 334 c 256
 672 389 600 419 502 424 c 257
NamedP: "hr00"
EndSplineSet
PickledDataWithLists: "(dp1
S'com.adobe.type.autohint'
p2
(S'data'
S'<data>\\n  <hintSetList>\\n    <hintset pointTag=\"hr00\">\\n      <hstem pos=\"-7\" width=\"86\"/>\\n      <hstem pos=\"-2\" width=\"71\"/>\\n      <hstem pos=\"248\" width=\"53\"/>\\n      <hstem pos=\"366\" width=\"60\"/>\\n      <vstem pos=\"155\" width=\"69\"/>\\n      <vstem pos=\"341\" width=\"93\"/>\\n      <vstem pos=\"703\" width=\"68\"/>\\n    </hintset>\\n  </hintSetList>\\n  </data>'
Ntp3
s."
EndChar

StartChar: Cha
Encoding: 140 3099 140
GlifName: Cha_
Width: 800
VWidth: 0
Flags: W
LayerCount: 2
Back
Fore
SplineSet
502 424 m 257
NamedP: "hr00"
 497 425 493 426 488 426 c 258
 471 426 l 258
 461 426 452 429 445 434 c 256
 438 439 434 444 434 451 c 256
 434 467 469 500 540 548 c 256
 597 587 632 613 645 630 c 256
 660 649 671 665 678 678 c 256
 687 695 691 710 691 723 c 256
 691 735 688 745 681 753 c 256
 674 762 665 768 653 768 c 256
 640 769 629 765 620 759 c 256
 610 752 603 742 600 729 c 256
 590 692 576 664 559 646 c 256
 534 621 495 593 443 561 c 256
 375 520 341 483 341 449 c 256
 341 426 354 407 379 391 c 256
 401 376 428 369 460 368 c 257
 463 367 467 366 471 366 c 258
 486 366 l 258
 562 366 619 345 656 303 c 256
 687 267 703 220 703 163 c 256
 703 132 690 108 663 91 c 256
 640 76 612 69 581 69 c 256
 540 69 501 98 466 156 c 256
 442 196 420 216 401 216 c 256
 376 216 349 188 319 131 c 256
 300 96 285 79 275 79 c 256
 264 79 254 86 243 101 c 256
 230 119 224 140 224 165 c 256
 224 208 250 237 303 251 c 256
 334 260 350 272 350 288 c 257
 352 299 348 306 338 311 c 256
 331 314 322 316 311 316 c 257
 183 301 l 257
 143 301 110 307 83 319 c 256
 74 323 67 325 63 325 c 256
 55 325 47 321 40 313 c 256
 33 304 30 297 30 290 c 256
 30 273 41 261 64 254 c 256
 81 249 105 248 136 248 c 258
 190 248 l 257
 181 240 173 229 168 216 c 257
 159 199 155 179 155 158 c 256
 155 123 168 88 193 53 c 256
 221 13 254 -7 291 -7 c 256
 311 -7 331 15 351 58 c 256
 368 93 383 116 398 126 c 257
 415 91 435 62 458 41 c 256
 489 12 523 -2 560 -2 c 256
 632 -2 687 15 726 50 c 256
 762 83 777 121 771 164 c 257
 771 233 753 290 716 334 c 256
 670 389 599 419 502 424 c 257
NamedP: "hr00"
433 8 m 257
 432 13 429 17 425 20 c 256
 422 23 417 24 411 24 c 256
 400 24 391 20 383 11 c 257
 372 1 364 -13 364 -30 c 258
 364 -219 l 258
 364 -224 365 -227 368 -229 c 256
 371 -230 375 -231 380 -231 c 256
 387 -231 396 -229 406 -224 c 258
 433 -209 l 257
 433 8 l 257
EndSplineSet
PickledDataWithLists: "(dp1
S'com.adobe.type.autohint'
p2
(S'data'
S'<data>\\n  <hintSetList>\\n    <hintset pointTag=\"hr00\">\\n      <hstem pos=\"-7\" width=\"86\"/>\\n      <hstem pos=\"-2\" width=\"71\"/>\\n      <hstem pos=\"248\" width=\"53\"/>\\n      <hstem pos=\"366\" width=\"60\"/>\\n      <vstem pos=\"155\" width=\"69\"/>\\n      <vstem pos=\"341\" width=\"93\"/>\\n      <vstem pos=\"364\" width=\"69\"/>\\n      <vstem pos=\"703\" width=\"68\"/>\\n    </hintset>\\n  </hintSetList>\\n  </data>'
Ntp3
s."
EndChar

StartChar: Ja
Encoding: 141 3100 141
GlifName: Ja_
Width: 713
VWidth: 0
Flags: W
LayerCount: 2
Back
Fore
SplineSet
409 20 m 256
NamedP: "hr00"
 442 -3 479 -14 518 -14 c 256
 566 -14 607 3 641 33 c 256
 676 64 693 100 693 143 c 256
 693 178 685 208 669 233 c 256
 652 258 633 270 610 270 c 256
 597 270 585 266 574 258 c 256
 563 249 558 239 558 229 c 256
 558 226 559 224 561 221 c 257
 576 210 l 257
 592 201 604 190 611 178 c 256
 620 165 624 151 624 136 c 256
 624 113 614 94 595 78 c 256
 575 62 553 53 526 53 c 256
 501 53 477 63 453 83 c 256
 430 103 408 131 391 166 c 256
 385 178 381 186 376 190 c 256
 373 193 368 195 361 195 c 256
 348 195 336 190 326 180 c 256
 316 169 302 147 283 114 c 256
 274 97 263 83 251 71 c 257
 247 71 244 77 241 89 c 257
 240 100 239 117 239 141 c 256
 239 197 250 255 271 314 c 257
 290 291 313 274 338 264 c 256
 363 254 394 249 433 249 c 256
 474 249 508 261 536 284 c 256
 565 307 580 334 580 366 c 256
 580 391 568 419 543 450 c 256
 517 482 483 512 441 540 c 257
 431 540 422 535 415 526 c 256
 407 517 402 506 400 493 c 257
 409 482 423 470 443 458 c 257
 468 438 486 420 496 405 c 256
 506 390 511 374 511 355 c 256
 511 339 503 327 488 318 c 256
 472 309 451 304 424 304 c 256
 385 304 352 312 329 330 c 256
 305 348 294 372 294 401 c 256
 294 412 289 421 280 426 c 256
 270 432 256 435 238 435 c 256
 186 435 138 418 95 385 c 256
 52 352 30 315 30 275 c 256
 30 251 37 232 50 218 c 256
 63 203 81 196 104 196 c 256
 118 196 130 200 141 208 c 256
 151 216 156 225 156 236 c 256
 156 246 154 254 149 259 c 256
 145 264 136 268 123 271 c 257
 114 272 107 274 104 276 c 256
 101 278 99 281 99 286 c 256
 99 303 113 322 141 344 c 256
 169 367 193 378 214 378 c 256
 217 378 220 377 221 374 c 257
 224 371 225 368 225 365 c 256
 225 362 225 359 224 358 c 256
 188 259 170 179 170 118 c 256
 170 83 174 54 186 31 c 256
 197 9 213 -3 231 -5 c 257
 248 -5 266 5 285 26 c 256
 304 47 322 75 338 110 c 257
 353 73 376 43 409 20 c 256
NamedP: "hr00"
EndSplineSet
PickledDataWithLists: "(dp1
S'com.adobe.type.autohint'
p2
(S'data'
S'<data>\\n  <hintSetList>\\n    <hintset pointTag=\"hr00\">\\n      <hstem pos=\"-14\" width=\"67\"/>\\n      <hstem pos=\"16\" width=\"-21\"/>\\n      <hstem pos=\"249\" width=\"55\"/>\\n      <hstem pos=\"378\" width=\"57\"/>\\n      <vstem pos=\"30\" width=\"69\"/>\\n      <vstem pos=\"170\" width=\"69\"/>\\n      <vstem pos=\"225\" width=\"69\"/>\\n      <vstem pos=\"511\" width=\"69\"/>\\n      <vstem pos=\"624\" width=\"69\"/>\\n    </hintset>\\n  </hintSetList>\\n  </data>'
Ntp3
s."
EndChar

StartChar: Jha
Encoding: 142 3101 142
GlifName: Jha_
Width: 1296
VWidth: 0
Flags: W
LayerCount: 2
Back
Fore
SplineSet
176 405 m 257
NamedP: "hr00"
 151 392 127 374 104 351 c 256
 55 301 30 246 30 186 c 256
 30 136 50 93 90 58 c 256
 137 15 203 -6 286 -6 c 256
 375 -6 446 15 499 58 c 256
 510 67 520 76 529 85 c 257
 530 81 532 77 534 73 c 256
 541 55 560 37 590 20 c 256
 623 1 656 -9 690 -9 c 256
 760 -9 817 5 855 41 c 258
 877 62 l 257
 885 53 894 45 905 36 c 256
 945 6 993 -9 1050 -9 c 256
 1121 -9 1176 6 1215 35 c 256
 1256 65 1273 108 1271 165 c 256
 1270 197 1260 232 1238 269 c 256
 1216 306 1190 336 1159 361 c 258
 1088 419 l 258
 1048 451 1024 468 1011 468 c 256
 997 468 987 464 980 456 c 257
 973 451 970 442 970 430 c 256
 970 415 995 392 1046 361 c 256
 1151 296 1203 232 1203 169 c 256
 1203 136 1190 110 1164 90 c 256
 1139 71 1107 61 1069 61 c 256
 1028 61 993 69 964 86 c 256
 934 103 917 124 914 149 c 256
 914 152 913 154 911 157 c 257
 911 178 l 258
 911 209 900 241 878 275 c 256
 858 306 832 334 799 361 c 258
 728 419 l 258
 688 451 664 468 651 468 c 256
 637 468 627 464 620 456 c 257
 613 451 610 442 610 430 c 256
 610 415 635 392 686 361 c 256
 791 296 843 232 843 169 c 256
 843 136 830 110 804 90 c 256
 779 71 747 61 709 61 c 256
 672 61 641 69 616 85 c 256
 593 101 579 122 576 149 c 256
 575 155 574 161 571 167 c 257
 574 181 576 196 576 211 c 256
 576 282 542 337 475 376 c 256
 420 409 354 425 276 426 c 257
 271 427 266 430 261 433 c 256
 254 438 250 443 250 450 c 256
 250 466 285 498 356 546 c 256
 413 585 448 612 461 629 c 256
 476 648 487 664 494 676 c 256
 503 693 508 708 508 721 c 256
 508 734 505 744 498 751 c 256
 491 760 482 765 469 766 c 256
 456 766 445 763 436 758 c 256
 426 751 419 741 416 728 c 256
 406 690 392 662 375 645 c 256
 350 620 312 592 259 560 c 256
 192 519 158 482 158 448 c 256
 158 432 164 418 176 405 c 257
NamedP: "hr00"
939 -56 m 257
 942 -47 939 -37 931 -27 c 256
 924 -18 917 -14 908 -14 c 256
 897 -14 888 -18 883 -26 c 256
 876 -35 872 -49 870 -67 c 257
 870 -205 l 258
 870 -211 873 -216 880 -221 c 256
 887 -226 893 -229 899 -229 c 256
 908 -229 916 -227 923 -222 c 256
 931 -217 936 -208 939 -196 c 257
 939 -56 l 257
433 323 m 256
 483 293 508 252 508 201 c 256
 508 166 487 134 446 105 c 256
 405 75 354 60 295 60 c 256
 241 60 195 72 158 96 c 256
 119 121 99 153 99 191 c 256
 99 221 107 251 126 279 c 256
 144 307 171 333 206 360 c 257
 263 364 l 258
 330 369 387 350 433 323 c 256
EndSplineSet
PickledDataWithLists: "(dp1
S'com.adobe.type.autohint'
p2
(S'data'
S'<data>\\n  <hintSetList>\\n    <hintset pointTag=\"hr00\">\\n      <hstem pos=\"-9\" width=\"70\"/>\\n      <hstem pos=\"-6\" width=\"66\"/>\\n      <hstem pos=\"364\" width=\"62\"/>\\n      <vstem pos=\"30\" width=\"69\"/>\\n      <vstem pos=\"158\" width=\"92\"/>\\n      <vstem pos=\"508\" width=\"68\"/>\\n      <vstem pos=\"843\" width=\"68\"/>\\n      <vstem pos=\"870\" width=\"69\"/>\\n      <vstem pos=\"1203\" width=\"68\"/>\\n    </hintset>\\n  </hintSetList>\\n  </data>'
Ntp3
s."
EndChar

